SplineFontDB: 1.0
FontName: Kinnari
FullName: Kinnari
FamilyName: Kinnari
Weight: Medium
Copyright: Kinnari by Db Type : Fontographer 3.5
Version: 001.000
ItalicAngle: 0
UnderlinePosition: -70
UnderlineWidth: 25
Ascent: 800
Descent: 200
NeedsXUIDChange: 1
FSType: 0
PfmFamily: 17
TTFWeight: 500
TTFWidth: 5
Panose: 0 0 0 0 0 0 0 0 0 0
LineGap: 138
VLineGap: 0
OS2WinAscent: 0
OS2WinAOffset: 1
OS2WinDescent: 0
OS2WinDOffset: 1
HheadAscent: 0
HheadAOffset: 1
HheadDescent: 0
HheadDOffset: 1
ScriptLang: 5
 1 DFLT 1 dflt 
 1 thai 4 KUY  PAL  THA  dflt 
 1 latn 1 dflt 
 1 thai 1 dflt 
 1 thai 1 PAL  
ContextSub: glyph 0 4 ' RQD' 0 0 0 1
 String: 15 uni0E0D uni0E10
 BString: 0 
 FString: 0 
 1
  SeqLookup: 0 'nds0'
EndFPST
ChainSub: coverage 0 1 'ccmp' 0 0 0 1
 2 0 0
  Coverage: 19 uni0E4B uni0E4B.low
  Coverage: 7 uni0E4D
 2
  SeqLookup: 0 'amni'
  SeqLookup: 1 'G006'
EndFPST
ChainSub: coverage 0 1 'ccmp' 0 0 0 1
 2 0 0
  Coverage: 19 uni0E4A uni0E4A.low
  Coverage: 7 uni0E4D
 2
  SeqLookup: 0 'amni'
  SeqLookup: 1 'G005'
EndFPST
ChainSub: coverage 0 1 'ccmp' 0 0 0 1
 2 0 0
  Coverage: 19 uni0E49 uni0E49.low
  Coverage: 7 uni0E4D
 2
  SeqLookup: 0 'amni'
  SeqLookup: 1 'G004'
EndFPST
ChainSub: coverage 0 1 'ccmp' 0 0 0 1
 2 0 0
  Coverage: 19 uni0E48 uni0E48.low
  Coverage: 7 uni0E4D
 2
  SeqLookup: 0 'amni'
  SeqLookup: 1 'G003'
EndFPST
ChainSub: coverage 0 1 'ccmp' 0 0 0 1
 1 0 1
  Coverage: 15 uni0E0D uni0E10
  FCoverage: 23 uni0E38 uni0E39 uni0E3A
 1
  SeqLookup: 0 'ndsc'
EndFPST
ChainSub: coverage 0 1 'ccmp' 0 0 0 1
 1 2 0
  Coverage: 39 uni0E48 uni0E49 uni0E4A uni0E4B uni0E4C
  BCoverage: 23 uni0E38 uni0E39 uni0E3A

StartChar: Encoding:
Encoding: 0 -1 220
OldEncoding: 0
Width: 384
Flags: W
HStem: 0 23<23 384> 568 23<0 361>
VStem: 0 23<0 568> 361 23<23 591>
Fore
23 568 m 1
 23 23 l 1
 361 23 l 1
 361 568 l 1
 23 568 l 1
384 0 m 1
 0 0 l 1
 0 591 l 1
 384 591 l 1
 384 0 l 1
EndSplineSet
EndChar
StartChar: exclam
Encoding: 2 33 1
OldEncoding: 33
Width: 333
Flags: W
HStem: -14 115<156 176>
Fore
220 596 m 0
 220 596 l 0
 220 579 218 562 217 547 c 1
 174 177 l 1
 160 177 l 1
 117 547 l 1
 117 562 114 579 114 596 c 0
 114 628 124 676 167 676 c 0
 214 676 220 628 220 596 c 0
224 41 m 0
 224 9 197 -14 166 -14 c 0
 138 -14 109 11 109 41 c 0
 109 74 134 101 167 101 c 0
 200 101 224 74 224 41 c 0
EndSplineSet
EndChar
StartChar: quotedbl
Encoding: 3 34 2
OldEncoding: 34
Width: 407
Flags: W
HStem: 444 21G<103 123 284 304>
Fore
336 641 m 0
 304 444 l 1
 284 444 l 1
 250 641 l 1
 247 662 270 684 293 684 c 0
 318 684 341 662 336 641 c 0
157 641 m 1
 123 444 l 1
 103 444 l 1
 71 641 l 1
 66 662 89 684 114 684 c 0
 137 684 160 662 157 641 c 1
EndSplineSet
EndChar
StartChar: numbersign
Encoding: 4 35 3
OldEncoding: 35
Width: 499
Flags: W
HStem: 0 21G<78 137 272 330> 217 53<5 111 178 303 370 470> 404 55<31 141 207 332 398 495> 404 258<180 332 370 495>
DStem: 111 217 169 217 78 0 137 0 141 404 200 404 120 270 178 270 180 662 238 662 149 459 207 459 303 217 361 217 272 0 330 0 332 404 390 404 312 270 370 270 370 662 427 662 339 459 398 459
Fore
495 404 m 1xe0
 390 404 l 1xd0
 370 270 l 1
 470 270 l 1
 470 217 l 1
 361 217 l 1
 330 0 l 1
 272 0 l 1
 303 217 l 1
 169 217 l 1
 137 0 l 1
 78 0 l 1
 111 217 l 1
 5 217 l 1
 5 270 l 1
 120 270 l 1
 141 404 l 1
 31 404 l 1
 31 459 l 1
 149 459 l 1xe0
 180 662 l 1
 238 662 l 1xd0
 207 459 l 1
 339 459 l 1xe0
 370 662 l 1
 427 662 l 1xd0
 398 459 l 1
 495 459 l 1
 495 404 l 1xe0
332 404 m 1xe0
 200 404 l 1xd0
 178 270 l 1
 312 270 l 1
 332 404 l 1xe0
EndSplineSet
EndChar
StartChar: dollar
Encoding: 5 36 4
OldEncoding: 36
Width: 499
Flags: W
VStem: 52 75<508 533> 230 34<-88 0 28 293 407 636 661 727> 378 78<152 178>
Fore
456 178 m 0
 456 178 l 0
 456 65 367 8 264 0 c 1
 264 -88 l 1
 230 -88 l 1
 230 0 l 1
 164 0 100 17 45 51 c 1
 45 181 l 1
 60 181 l 1
 75 88 132 29 230 28 c 1
 230 310 l 1
 154 353 52 407 52 508 c 0
 52 610 140 659 230 662 c 1
 230 727 l 1
 264 727 l 1
 264 662 l 1
 321 660 379 645 424 610 c 1
 424 499 l 1
 410 499 l 1
 398 576 343 631 264 636 c 1
 264 390 l 1
 352 343 456 296 456 178 c 0
230 407 m 0
 230 636 l 0
 197 636 127 596 127 533 c 0
 127 467 184 441 230 407 c 0
378 152 m 0
 378 223 319 263 264 293 c 1
 264 28 l 1
 333 37 378 81 378 152 c 0
EndSplineSet
EndChar
StartChar: percent
Encoding: 6 37 5
OldEncoding: 37
Width: 832
Flags: W
HStem: -14 31<574 589> 287 36<180 200> 324 32<663 678> 633 29<274 286>
VStem: 61 76<396 424> 358 18<539 593> 358 26<537 553> 745 26<222 249>
DStem: 550 610 633 676 201 -14 249 -14
Fore
633 676 m 1xfb
 249 -14 l 1
 201 -14 l 1
 550 610 l 1
 490 585 416 578 376 593 c 1xfd
 376 578 384 556 384 539 c 0
 384 404 267 287 180 287 c 0
 103 287 61 338 61 424 c 0
 61 531 164 662 276 662 c 0
 310 662 330 653 356 630 c 1
 382 610 404 607 436 607 c 0
 496 607 553 633 585 676 c 1
 633 676 l 1xfb
771 247 m 0
 771 247 l 0
 771 91 662 -14 576 -14 c 0
 473 -14 449 48 449 123 c 0
 449 230 553 356 665 356 c 0
 733 356 771 300 771 247 c 0
358 553 m 0
 358 553 l 0
 358 570 353 584 350 599 c 1
 312 610 298 633 281 633 c 0
 244 633 137 533 137 396 c 0
 137 353 151 323 200 323 c 1
 296 332 358 456 358 553 c 0
745 241 m 0
 745 281 722 324 676 324 c 0
 622 324 585 269 564 224 c 0
 510 111 507 17 587 17 c 0
 680 17 745 161 745 241 c 0
EndSplineSet
EndChar
StartChar: ampersand
Encoding: 7 38 6
OldEncoding: 38
Width: 777
Flags: W
HStem: -14 54<220 263> 407 18<495 511.333 702.125 710> 644 32<346 364>
VStem: 43 91<144 172> 203 78<516 548> 438 52<545 563>
Fore
750 100 m 1
 750 100 l 0
 702 26 667 -14 599 -14 c 0
 530 -14 475 31 429 78 c 1
 373 25 298 -14 220 -14 c 0
 108 -14 43 43 43 144 c 0
 43 258 163 339 237 376 c 1
 220 422 203 468 203 516 c 0
 203 604 266 676 355 676 c 0
 427 676 490 633 490 556 c 0
 490 467 409 415 336 384 c 1
 373 312 416 243 467 178 c 1
 502 220 559 303 559 358 c 0
 559 387 544 404 495 407 c 1
 495 425 l 1
 710 425 l 1
 710 407 l 1
 647 399 631 373 604 323 c 0
 567 257 510 174 493 147 c 1
 533 101 579 58 644 58 c 0
 684 58 713 80 734 111 c 1
 750 100 l 1
438 559 m 0
 438 559 l 0
 438 604 404 644 359 644 c 0
 300 644 281 599 281 548 c 0
 281 510 304 450 321 416 c 1
 376 442 438 493 438 559 c 0
404 104 m 1
 344 177 296 260 252 343 c 1
 184 301 134 257 134 172 c 0
 134 104 195 40 263 40 c 0
 304 40 362 68 404 104 c 1
EndSplineSet
EndChar
StartChar: quotesingle
Encoding: 8 39 7
OldEncoding: 39
Width: 179
Flags: W
HStem: 444 21G<80 100>
Fore
134 641 m 1
 100 444 l 1
 80 444 l 1
 48 641 l 1
 43 662 66 684 91 684 c 0
 114 684 137 662 134 641 c 1
EndSplineSet
EndChar
StartChar: parenleft
Encoding: 9 40 8
OldEncoding: 40
Width: 333
Flags: W
VStem: 49 85<238 288>
Fore
304 -161 m 1
 292 -177 l 1
 163 -91 49 48 49 260 c 0
 49 433 138 579 295 676 c 1
 304 659 l 1
 170 567 134 424 134 269 c 0
 134 104 154 -41 304 -161 c 1
EndSplineSet
EndChar
StartChar: parenright
Encoding: 10 41 9
OldEncoding: 41
Width: 333
Flags: W
VStem: 200 84<206 256>
Fore
284 232 m 0
 284 60 184 -91 38 -177 c 1
 29 -161 l 1
 164 -68 200 74 200 229 c 0
 200 396 177 556 29 659 c 1
 41 676 l 1
 81 656 284 513 284 232 c 0
EndSplineSet
EndChar
StartChar: asterisk
Encoding: 11 42 10
OldEncoding: 42
Width: 499
Flags: W
Fore
435 559 m 0
 447 519 404 498 382 502 c 1
 359 504 310 482 266 467 c 1
 313 442 359 427 404 419 c 0
 424 416 442 382 422 359 c 0
 395 329 353 356 346 378 c 0
 338 398 293 430 257 458 c 1
 253 401 264 353 276 310 c 0
 283 292 267 260 237 266 c 0
 197 273 200 323 214 341 c 0
 227 358 233 412 241 458 c 1
 190 427 157 395 127 361 c 0
 114 346 77 346 66 375 c 0
 54 413 97 436 120 432 c 0
 141 429 190 450 232 470 c 1
 184 499 138 513 94 522 c 0
 74 525 57 559 77 582 c 0
 103 613 144 585 152 564 c 0
 160 544 204 511 241 482 c 1
 241 547 230 593 215 636 c 0
 207 654 227 687 258 682 c 0
 298 673 296 624 281 607 c 0
 267 590 263 536 258 482 c 1
 310 505 344 539 373 573 c 1
 390 585 424 587 435 559 c 0
EndSplineSet
EndChar
StartChar: plus
Encoding: 12 43 11
OldEncoding: 43
Width: 563
Flags: W
HStem: 238 65<31 250 313 533>
VStem: 250 63<17 238 303 521>
Fore
533 238 m 1
 313 238 l 1
 313 17 l 1
 250 17 l 1
 250 238 l 1
 31 238 l 1
 31 303 l 1
 250 303 l 1
 250 521 l 1
 313 521 l 1
 313 303 l 1
 533 303 l 1
 533 238 l 1
EndSplineSet
EndChar
StartChar: comma
Encoding: 13 44 12
OldEncoding: 44
Width: 250
Flags: W
VStem: 147 53<-6 17>
Fore
43 58 m 0
 43 100 68 126 111 126 c 0
 174 126 200 68 200 17 c 0
 200 -48 135 -118 74 -146 c 1
 60 -118 l 1
 100 -100 147 -41 147 -6 c 0
 147 0 149 5 143 5 c 0
 135 5 126 -5 106 -3 c 0
 72 -2 43 22 43 58 c 0
EndSplineSet
EndChar
StartChar: hyphen
Encoding: 14 45 13
OldEncoding: 45
Width: 333
Flags: W
HStem: 238 63<43 289>
Fore
289 238 m 1
 43 238 l 1
 43 301 l 1
 289 301 l 1
 289 238 l 1
EndSplineSet
EndChar
StartChar: period
Encoding: 15 46 14
OldEncoding: 46
Width: 250
Flags: W
Fore
54 60 m 0
 54 100 86 132 126 132 c 0
 166 132 198 100 198 60 c 0
 198 20 166 -12 126 -12 c 0
 86 -12 54 20 54 60 c 0
EndSplineSet
EndChar
StartChar: slash
Encoding: 16 47 15
OldEncoding: 47
Width: 278
Flags: W
DStem: 240 682 303 682 -12 -108 51 -108
Fore
303 682 m 1
 51 -108 l 1
 -12 -108 l 1
 240 682 l 1
 303 682 l 1
EndSplineSet
EndChar
StartChar: zero
Encoding: 17 48 16
OldEncoding: 48
Width: 537
Flags: W
HStem: -14 28<259 282> 650 26<259 282>
VStem: 41 97<305 355> 396 97<305 355>
Fore
493 327 m 0
 493 327 l 0
 493 190 439 -14 261 -14 c 0
 120 -14 41 138 41 333 c 0
 41 476 94 676 266 676 c 0
 416 676 493 524 493 327 c 0
396 326 m 0
 396 504 367 650 272 650 c 0
 160 650 138 481 138 313 c 0
 138 164 161 14 269 14 c 0
 382 14 396 172 396 326 c 0
EndSplineSet
EndChar
StartChar: one
Encoding: 18 49 17
OldEncoding: 49
Width: 537
Flags: W
HStem: 0 14<141 161 395 415>
VStem: 235 86<80 545>
Fore
415 0 m 1
 141 0 l 1
 141 14 l 1
 221 18 235 37 235 80 c 2
 235 528 l 2
 235 607 204 593 132 565 c 1
 132 579 l 1
 321 676 l 1
 321 80 l 2
 321 37 335 18 415 14 c 1
 415 0 l 1
EndSplineSet
EndChar
StartChar: two
Encoding: 19 50 18
OldEncoding: 50
Width: 537
Flags: W
HStem: 0 77<151 442> 604 72<218 269>
VStem: 361 86<459 501>
DStem: 223 192 310 243 54 14 151 77
Fore
498 137 m 1
 442 0 l 1
 54 0 l 1
 54 14 l 1
 223 192 l 2
 287 261 361 358 361 459 c 0
 361 547 306 604 218 604 c 0
 140 604 100 539 75 473 c 1
 54 479 l 1
 74 593 147 676 269 676 c 0
 367 676 447 599 447 501 c 0
 447 407 401 339 310 243 c 1
 151 77 l 1
 364 77 l 2
 438 77 445 80 485 143 c 1
 498 137 l 1
EndSplineSet
EndChar
StartChar: three
Encoding: 20 51 19
OldEncoding: 51
Width: 537
Flags: W
HStem: -14 36<183 247> 616 60<232 264>
VStem: 341 78<510 542> 382 71<167 214>
Fore
453 214 m 0xd0
 453 63 319 -14 183 -14 c 0
 144 -14 68 -11 68 43 c 0
 68 65 84 77 104 77 c 0
 154 77 187 22 247 22 c 0
 330 22 382 88 382 167 c 0xd0
 382 280 323 330 177 330 c 1
 175 344 l 1
 250 367 341 413 341 510 c 0
 341 574 296 616 232 616 c 0
 166 616 120 579 83 511 c 1
 68 516 l 1
 100 616 169 676 264 676 c 0
 369 676 419 621 419 542 c 0xe0
 419 476 376 433 327 402 c 1
 412 367 453 312 453 214 c 0xd0
EndSplineSet
EndChar
StartChar: four
Encoding: 21 52 20
OldEncoding: 52
Width: 537
Flags: W
HStem: 0 21G<315 392> 167 63<74 315 392 493>
VStem: 315 77<0 167 230 676>
DStem: 346 676 315 570 34 230 74 230
Fore
493 167 m 1
 392 167 l 1
 392 0 l 1
 315 0 l 1
 315 167 l 1
 34 167 l 1
 34 230 l 1
 346 676 l 1
 392 676 l 1
 392 230 l 1
 493 230 l 1
 493 167 l 1
315 230 m 1
 315 570 l 1
 74 230 l 1
 315 230 l 1
EndSplineSet
EndChar
StartChar: five
Encoding: 22 53 21
OldEncoding: 53
Width: 537
Flags: W
HStem: -14 36<180 240> 582 80<197 413>
VStem: 379 70<195 227>
DStem: 197 662 204 582 88 424 163 498
Fore
461 680 m 1
 413 582 l 1
 204 582 l 1
 163 498 l 1
 321 472 449 427 449 227 c 0
 449 78 327 -14 180 -14 c 0
 140 -14 63 -11 55 40 c 0
 51 68 71 84 100 84 c 0
 163 84 186 22 240 22 c 0
 326 22 379 100 379 195 c 0
 379 352 226 404 100 412 c 0
 91 413 86 418 88 424 c 1
 197 662 l 1
 393 662 l 2
 424 662 432 662 452 687 c 1
 461 680 l 1
EndSplineSet
EndChar
StartChar: six
Encoding: 23 54 22
OldEncoding: 54
Width: 537
Flags: W
HStem: -14 28<284 307> 382 45<267 304>
VStem: 58 93<245 275>
Fore
490 214 m 0
 490 214 l 0
 490 94 413 -14 286 -14 c 0
 160 -14 58 91 58 273 c 0
 58 490 207 645 410 674 c 0
 427 676 442 682 468 682 c 1
 470 664 l 1
 439 656 409 653 375 636 c 0
 286 594 195 518 175 382 c 1
 214 410 257 427 304 427 c 0
 421 427 490 346 490 214 c 0
398 226 m 0
 387 307 356 382 267 382 c 0
 233 382 197 370 170 350 c 0
 167 347 166 344 164 343 c 0
 152 316 151 283 151 247 c 0
 151 114 203 14 301 14 c 0
 376 14 412 108 398 226 c 0
EndSplineSet
EndChar
StartChar: seven
Encoding: 24 55 23
OldEncoding: 55
Width: 537
Flags: W
HStem: 587 75<103 393>
DStem: 393 587 472 647 194 -14 258 -14
Fore
472 647 m 1
 258 -14 l 1
 194 -14 l 1
 393 587 l 1
 187 587 l 2
 114 587 98 568 60 507 c 1
 43 515 l 1
 103 662 l 1
 472 662 l 1
 472 647 l 1
EndSplineSet
EndChar
StartChar: eight
Encoding: 25 56 24
OldEncoding: 56
Width: 537
Flags: W
HStem: -14 25<263 286> 650 26<252 281>
VStem: 77 75<145 165> 375 69<525 552> 389 76<126 154>
Fore
465 154 m 0xe8
 465 154 l 0xe8
 465 46 367 -14 266 -14 c 0
 167 -14 77 45 77 152 c 0
 77 237 146 287 206 332 c 1
 143 393 83 425 83 527 c 0
 83 596 151 676 273 676 c 0
 353 676 444 630 444 539 c 0xf0
 444 452 379 407 310 372 c 1
 381 316 465 255 465 154 c 0xe8
375 536 m 0xf0
 375 536 l 0
 375 604 330 650 264 650 c 0
 206 650 157 611 157 550 c 0
 157 478 227 424 281 390 c 1
 335 419 375 472 375 536 c 0xf0
389 126 m 0xe8
 389 214 295 267 232 312 c 1
 229 309 224 307 221 303 c 1
 180 270 152 214 152 163 c 0
 152 78 194 11 281 11 c 0
 347 11 389 60 389 126 c 0xe8
EndSplineSet
EndChar
StartChar: nine
Encoding: 26 57 25
OldEncoding: 57
Width: 537
Flags: W
HStem: 237 43<233 273> 292 21G<470 470> 650 26<245 269>
VStem: 54 92<446 476>
Fore
470 292 m 0
 470 292 l 0
 439 186 353 63 232 12 c 0
 175 -12 114 -23 83 -23 c 1
 80 -3 l 1
 141 8 233 35 300 124 c 0
 336 174 367 233 382 292 c 1
 330 257 283 237 233 237 c 0
 126 237 54 316 54 447 c 0
 54 530 106 676 267 676 c 0
 356 676 427 611 456 531 c 0
 482 459 493 373 470 292 c 0
386 413 m 0
 386 499 367 650 253 650 c 0
 166 650 146 545 146 476 c 0
 146 390 170 280 273 280 c 0
 306 280 362 303 382 330 c 1
 386 356 386 382 386 413 c 0
EndSplineSet
EndChar
StartChar: colon
Encoding: 27 58 26
OldEncoding: 58
Width: 278
Flags: W
HStem: -12 144<140 149> 324 144<140 149>
Fore
68 396 m 0
 68 396 l 0
 68 436 100 468 140 468 c 0
 180 468 212 436 212 396 c 0
 212 356 180 324 140 324 c 0
 100 324 68 356 68 396 c 0
68 60 m 0
 68 100 100 132 140 132 c 0
 180 132 212 100 212 60 c 0
 212 20 180 -12 140 -12 c 0
 100 -12 68 20 68 60 c 0
EndSplineSet
EndChar
StartChar: semicolon
Encoding: 28 59 27
OldEncoding: 59
Width: 278
Flags: W
HStem: 5 121<126 158> 324 144<127 136>
VStem: 163 52<-6 23>
Fore
58 58 m 0
 58 58 l 0
 58 100 83 126 126 126 c 0
 195 126 215 77 215 23 c 0
 215 -60 161 -112 89 -146 c 1
 75 -118 l 1
 115 -100 163 -45 163 -6 c 0
 163 0 164 5 158 5 c 0
 151 5 141 -5 121 -3 c 0
 88 -2 58 22 58 58 c 0
55 396 m 0
 55 436 88 468 127 468 c 0
 167 468 200 436 200 396 c 0
 200 356 167 324 127 324 c 0
 88 324 55 356 55 396 c 0
EndSplineSet
EndChar
StartChar: less
Encoding: 29 60 28
OldEncoding: 60
Width: 563
Flags: W
DStem: 28 233 108 261 536 0 536 63 536 522 536 459 28 287 108 261
Fore
536 0 m 1
 28 233 l 1
 28 287 l 1
 536 522 l 1
 536 459 l 1
 108 261 l 1
 536 63 l 1
 536 0 l 1
EndSplineSet
EndChar
StartChar: equal
Encoding: 30 61 29
OldEncoding: 61
Width: 563
Flags: W
HStem: 132 65<31 533> 326 64<31 533>
Fore
533 326 m 1
 31 326 l 1
 31 390 l 1
 533 390 l 1
 533 326 l 1
533 132 m 1
 31 132 l 1
 31 197 l 1
 533 197 l 1
 533 132 l 1
EndSplineSet
EndChar
StartChar: greater
Encoding: 31 62 30
OldEncoding: 62
Width: 563
Flags: W
DStem: 28 459 28 522 455 261 536 287 455 261 536 233 28 63 28 0
Fore
536 233 m 1
 28 0 l 1
 28 63 l 1
 455 261 l 1
 28 459 l 1
 28 522 l 1
 536 287 l 1
 536 233 l 1
EndSplineSet
EndChar
StartChar: question
Encoding: 32 63 31
OldEncoding: 63
Width: 443
Flags: W
HStem: -14 115<217 226> 647 29<195 217>
VStem: 49 89<510 536> 158 115<43 51> 303 92<516 531>
Fore
395 518 m 0
 395 518 l 0
 395 453 356 402 319 355 c 2
 289 316 l 2
 253 270 233 223 224 164 c 1
 207 164 l 1
 207 319 303 386 303 516 c 0
 303 582 267 647 195 647 c 0
 157 647 88 621 103 573 c 1
 109 564 117 556 123 547 c 0
 134 533 138 527 138 510 c 0
 138 485 120 470 94 470 c 0
 58 470 49 508 49 536 c 0
 49 625 135 676 217 676 c 0
 330 676 395 596 395 518 c 0
273 43 m 0
 273 11 244 -14 217 -14 c 0
 187 -14 158 12 158 43 c 0
 158 74 187 101 217 101 c 0
 244 101 273 75 273 43 c 0
EndSplineSet
EndChar
StartChar: at
Encoding: 33 64 32
OldEncoding: 64
Width: 920
Flags: W
HStem: -155 40<470 524> 41 43<401 433 657 669> 427 46<510 525> 636 38<501 526>
VStem: 55 96<228 262> 280 92<164 198> 828 40<308 346>
Fore
868 330 m 0
 868 330 l 0
 868 172 760 40 659 40 c 0
 624 40 561 49 542 123 c 1
 508 72 444 41 401 41 c 0
 330 41 280 83 280 184 c 0
 280 330 396 473 510 473 c 0
 562 473 594 436 604 410 c 1
 616 459 l 1
 702 459 l 1
 621 144 l 2
 610 104 636 83 667 83 c 0
 742 83 828 214 828 329 c 0
 828 513 660 636 501 636 c 0
 287 636 151 421 151 249 c 0
 151 98 210 -115 495 -115 c 0
 591 -115 707 -78 762 -23 c 1
 743 -88 l 1
 743 -88 650 -155 493 -155 c 0
 290 -155 55 -38 55 257 c 0
 55 424 195 674 501 674 c 0
 627 674 868 590 868 330 c 0
582 344 m 0
 582 409 554 427 525 427 c 0
 472 427 372 341 372 175 c 0
 372 111 390 84 433 84 c 0
 468 84 511 127 522 147 c 0
 536 170 582 273 582 344 c 0
EndSplineSet
EndChar
StartChar: A
Encoding: 34 65 33
OldEncoding: 65
Width: 721
Flags: W
HStem: 0 20<15 27.4 214 214 450 478.667 686.667 705> 217 40<217 461>
DStem: 330 531 367 676 447 257 610 117 347 676 330 531 144 194 217 257
Fore
705 0 m 1
 450 0 l 1
 450 20 l 1
 536 23 535 43 496 131 c 1
 461 217 l 1
 200 217 l 1
 186 178 144 98 144 61 c 0
 144 28 180 20 214 20 c 1
 214 0 l 1
 15 0 l 1
 15 20 l 1
 77 25 103 97 144 194 c 1
 347 676 l 1
 367 676 l 1
 610 117 l 1
 628 77 650 17 705 20 c 1
 705 0 l 1
447 257 m 1
 330 531 l 1
 217 257 l 1
 447 257 l 1
EndSplineSet
EndChar
StartChar: B
Encoding: 35 66 34
OldEncoding: 66
Width: 666
Flags: W
HStem: 0 20<20 43.5759> 0 37<275 335> 326 40<218 300> 642 20<20 43.1796>
VStem: 117 101<78 326 80 593> 459 103<479 497> 481 115<175 193>
Fore
596 183 m 0xba
 596 183 l 0
 596 63 492 0 335 0 c 2x7a
 20 0 l 1
 20 20 l 1
 101 20 117 51 117 80 c 2
 117 582 l 2
 117 610 101 642 20 642 c 1
 20 662 l 1
 287 662 l 2
 442 662 562 621 562 493 c 0xbc
 562 409 505 366 429 347 c 1
 515 330 596 278 596 183 c 0xba
459 490 m 0x3c
 459 490 l 0
 459 565 412 607 343 619 c 1
 250 625 218 627 218 593 c 2
 218 366 l 1
 300 366 l 2
 401 366 459 409 459 490 c 0x3c
481 184 m 0x7a
 481 304 362 326 267 326 c 2
 218 326 l 1
 218 91 l 2
 218 55 227 37 300 37 c 0
 404 37 481 68 481 184 c 0x7a
EndSplineSet
EndChar
StartChar: C
Encoding: 36 67 35
OldEncoding: 67
Width: 666
Flags: W
HStem: -14 45<369 388> 450 21G<601 624> 634 42<369 388>
VStem: 34 115<305 355>
Fore
636 111 m 1
 576 37 473 -14 376 -14 c 0
 183 -14 34 111 34 330 c 0
 34 528 174 676 375 676 c 0
 511 676 562 593 594 674 c 1
 616 674 l 1
 624 450 l 1
 601 450 l 1
 571 559 499 634 384 634 c 0
 220 634 149 502 149 323 c 0
 149 183 223 31 386 31 c 0
 484 31 550 63 619 131 c 1
 636 111 l 1
EndSplineSet
EndChar
StartChar: D
Encoding: 37 68 36
OldEncoding: 68
Width: 721
Flags: W
HStem: 0 20<20 41.4939> 624 38<20 293> 642 20<20 41.223>
VStem: 108 102<79 593> 579 109<303 353>
Fore
688 329 m 0xd8
 688 329 l 0
 688 126 553 0 286 0 c 2
 20 0 l 1
 20 20 l 1
 94 20 108 51 108 80 c 2
 108 582 l 2
 108 610 94 642 20 642 c 1xb8
 20 662 l 1
 278 662 l 2
 533 662 688 553 688 329 c 0xd8
579 327 m 0
 579 524 452 624 267 624 c 0xd8
 220 624 210 622 210 573 c 2
 210 91 l 2
 210 54 237 43 258 41 c 0
 462 32 579 143 579 327 c 0
EndSplineSet
EndChar
StartChar: E
Encoding: 38 69 37
OldEncoding: 69
Width: 609
Flags: W
HStem: 0 20<12 33.0082> 0 41<225 551> 326 41<203 365> 519 143<12 542> 621 41<12 413> 642 20<12 32.6541>
VStem: 100 103<68.0558 326 80 584> 467 20<229 246.032 462 462>
Fore
596 169 m 1x6b
 551 0 l 1x6b
 12 0 l 1
 12 20 l 1
 84 20 100 51 100 80 c 2
 100 582 l 2
 100 610 84 642 12 642 c 1xa7
 12 662 l 1
 542 662 l 1
 542 519 l 1
 521 519 l 1x33
 510 573 476 621 407 621 c 2
 246 621 l 2
 221 621 203 607 203 582 c 2
 203 367 l 1
 343 367 l 2
 410 367 467 384 467 462 c 1
 487 462 l 1
 487 229 l 1
 467 229 l 1
 467 307 410 326 343 326 c 2
 203 326 l 1
 203 80 l 2
 203 63 207 41 227 41 c 2
 359 41 l 2
 439 41 516 43 568 169 c 1
 596 169 l 1x6b
EndSplineSet
EndChar
StartChar: F
Encoding: 39 70 38
OldEncoding: 70
Width: 556
Flags: W
HStem: 0 20<12 33.0082 292 292> 326 41<203 349> 519 143<12 544> 621 41<12 429> 642 20<12 32.6541>
VStem: 100 103<68.0558 326 80 593> 458 21<229 246.032 462 462>
Fore
544 519 m 1xe6
 519 519 l 1xe6
 507 628 447 621 376 621 c 2
 244 621 l 2xd6
 210 621 203 605 203 582 c 2
 203 367 l 1
 333 367 l 2
 401 367 458 384 458 462 c 1
 479 462 l 1
 479 229 l 1
 458 229 l 1
 458 307 401 326 333 326 c 2
 203 326 l 1
 203 80 l 2
 203 51 217 20 292 20 c 1
 292 0 l 1
 12 0 l 1
 12 20 l 1
 84 20 100 51 100 80 c 2
 100 582 l 2
 100 610 84 642 12 642 c 1xce
 12 662 l 1
 544 662 l 1
 544 519 l 1xe6
EndSplineSet
EndChar
StartChar: G
Encoding: 40 71 39
OldEncoding: 71
Width: 721
Flags: W
HStem: -14 42<370 397> 336 20<449 702.905> 636 40<363 395>
VStem: 28 115<305 357> 536 97<81 275>
Fore
703 336 m 1
 639 336 633 304 633 247 c 2
 633 57 l 1
 576 25 464 -14 382 -14 c 0
 212 -14 28 94 28 329 c 0
 28 527 170 676 370 676 c 0
 492 676 570 602 594 676 c 1
 616 676 l 1
 624 464 l 1
 602 464 l 1
 564 570 498 636 379 636 c 0
 214 636 143 496 143 321 c 0
 143 167 227 28 395 28 c 0
 432 28 473 34 507 49 c 0
 536 63 536 69 536 98 c 2
 536 247 l 2
 536 304 531 336 449 336 c 1
 449 356 l 1
 703 356 l 1
 703 336 l 1
EndSplineSet
EndChar
StartChar: H
Encoding: 41 72 40
OldEncoding: 72
Width: 721
Flags: W
HStem: 0 20<20 41.4939 298 298 424 445.525 702 702> 318 41<210 513> 642 20<17 41.223 17 298 424 445.253 424 702>
VStem: 108 102<67.4697 318 80 593> 513 101<68.0558 318 359 593>
Fore
702 0 m 1
 424 0 l 1
 424 20 l 1
 498 20 513 51 513 80 c 2
 513 318 l 1
 210 318 l 1
 210 80 l 2
 210 51 224 20 298 20 c 1
 298 0 l 1
 20 0 l 1
 20 20 l 1
 94 20 108 51 108 80 c 2
 108 582 l 2
 108 610 94 642 20 642 c 1
 17 662 l 1
 298 662 l 1
 298 642 l 1
 224 642 210 610 210 582 c 2
 210 359 l 1
 513 359 l 1
 513 582 l 2
 513 610 498 642 424 642 c 1
 424 662 l 1
 702 662 l 1
 702 642 l 1
 630 642 614 610 614 582 c 2
 614 80 l 2
 614 51 630 20 702 20 c 1
 702 0 l 1
EndSplineSet
EndChar
StartChar: I
Encoding: 42 73 41
OldEncoding: 73
Width: 333
Flags: W
HStem: 0 20<18 42.1272 316 316> 642 20<18 41.7214 18 316>
VStem: 117 101<68.2233 593>
Fore
316 0 m 1
 18 0 l 1
 18 20 l 1
 101 20 117 51 117 80 c 2
 117 582 l 2
 117 610 101 642 18 642 c 1
 18 662 l 1
 316 662 l 1
 316 642 l 1
 233 642 218 610 218 582 c 2
 218 80 l 2
 218 51 233 20 316 20 c 1
 316 0 l 1
EndSplineSet
EndChar
StartChar: J
Encoding: 43 74 42
OldEncoding: 74
Width: 388
Flags: W
HStem: -14 39<112 135> 642 20<78 101.721 78 376>
VStem: 177 101<114 584>
Fore
376 642 m 1
 293 642 278 610 278 582 c 2
 278 198 l 2
 278 57 204 -14 112 -14 c 0
 83 -14 23 -3 14 45 c 2
 11 60 l 1
 11 83 31 108 58 108 c 0
 88 108 108 86 104 77 c 0
 98 57 114 25 135 25 c 0
 164 25 177 72 177 114 c 2
 177 582 l 2
 177 610 161 642 78 642 c 1
 78 662 l 1
 376 662 l 1
 376 642 l 1
EndSplineSet
EndChar
StartChar: K
Encoding: 44 75 43
OldEncoding: 75
Width: 721
Flags: W
HStem: 0 20<20 41.8316 303 303 404 431.351 692.189 707.937> 642 20<20 41.5556 20 304 399 660>
VStem: 111 101<68.0976 296 80 593>
Fore
708 0 m 1
 404 0 l 1
 404 20 l 1
 478 20 484 37 467 65 c 0
 439 112 373 183 335 221 c 2
 238 316 l 1
 212 296 l 1
 212 80 l 2
 212 51 227 20 303 20 c 1
 303 0 l 1
 20 0 l 1
 20 20 l 1
 95 20 111 51 111 80 c 2
 111 582 l 2
 111 610 95 642 20 642 c 1
 20 662 l 1
 304 662 l 1
 304 642 l 1
 227 642 212 610 212 582 c 2
 212 347 l 1
 253 387 467 562 467 608 c 0
 467 645 424 641 399 642 c 1
 399 662 l 1
 660 662 l 1
 660 642 l 1
 587 642 548 604 499 556 c 2
 319 376 l 1
 476 210 l 1
 544 137 l 2
 596 78 637 20 708 20 c 1
 708 0 l 1
EndSplineSet
EndChar
StartChar: L
Encoding: 45 76 44
OldEncoding: 76
Width: 609
Flags: W
HStem: 0 20<12 33.0082> 0 41<283 550> 642 20<12 32.6541 12 290>
VStem: 100 103<80 593>
Fore
598 174 m 1x70
 550 0 l 1x70
 12 0 l 1
 12 20 l 1xb0
 84 20 100 51 100 80 c 2
 100 582 l 2
 100 610 84 642 12 642 c 1
 12 662 l 1
 290 662 l 1
 290 642 l 1
 217 642 203 610 203 582 c 2
 203 80 l 2
 203 52 240 41 303 41 c 0
 429 41 518 37 573 174 c 1
 598 174 l 1x70
EndSplineSet
EndChar
StartChar: M
Encoding: 46 77 45
OldEncoding: 77
Width: 887
Flags: W
HStem: 0 20<20 43.5759 257 257 593 613.977 869 869> 642 20<22 44.6383 670 869>
VStem: 117 43<68.1814 545> 680 102<67.7626 568>
DStem: 160 545 220 662 410 0 450 157 670 662 680 568 450 157 424 0
Fore
869 0 m 1
 593 0 l 1
 593 20 l 1
 665 20 680 51 680 80 c 2
 680 568 l 1
 424 0 l 1
 410 0 l 1
 160 545 l 1
 160 80 l 2
 160 51 175 20 257 20 c 1
 257 0 l 1
 20 0 l 1
 20 20 l 1
 101 20 117 51 117 80 c 2
 117 582 l 2
 117 610 101 642 22 642 c 1
 22 662 l 1
 220 662 l 1
 450 157 l 1
 670 662 l 1
 869 662 l 1
 869 642 l 1
 796 642 782 610 782 582 c 2
 782 80 l 2
 782 51 797 20 869 20 c 1
 869 0 l 1
EndSplineSet
EndChar
StartChar: N
Encoding: 47 78 46
OldEncoding: 78
Width: 721
Flags: W
HStem: 0 20<12 35.8212 250 250> 642 20<12 35.2232 470 493.661 470 708>
VStem: 109 45<67.9301 536> 567 44<181 589>
DStem: 154 536 183 662 596 -14 567 181
Fore
708 642 m 1
 627 642 611 610 611 582 c 2
 611 -14 l 1
 596 -14 l 1
 154 536 l 1
 154 80 l 2
 154 51 167 20 250 20 c 1
 250 0 l 1
 12 0 l 1
 12 20 l 1
 94 20 109 51 109 80 c 2
 109 587 l 1
 101 598 l 1
 71 633 61 642 12 642 c 1
 12 662 l 1
 183 662 l 1
 567 181 l 1
 567 582 l 2
 567 610 553 642 470 642 c 1
 470 662 l 1
 708 662 l 1
 708 642 l 1
EndSplineSet
EndChar
StartChar: O
Encoding: 48 79 47
OldEncoding: 79
Width: 721
Flags: W
VStem: 34 113<330 355> 574 113<330 359.31>
Fore
687 330 m 0
 687 330 l 0
 687 138 561 -14 361 -14 c 0
 184 -14 34 120 34 330 c 0
 34 530 166 679 361 676 c 1
 533 684 687 544 687 330 c 0
574 330 m 1
 574 487 516 642 361 639 c 1
 212 630 147 522 147 330 c 0
 147 124 243 14 361 23 c 0
 539 37 579 224 574 330 c 1
EndSplineSet
EndChar
StartChar: P
Encoding: 49 80 48
OldEncoding: 80
Width: 556
Flags: W
HStem: 0 20<11 32.2829 289 289> 289 38<250 287> 624 38<17 269> 642 20<17 36.3059>
VStem: 100 101<68.0558 293 80 593> 433 109<477 497>
Fore
542 487 m 0xec
 542 487 l 0
 542 339 416 289 287 289 c 0
 260 289 230 290 201 293 c 1
 201 80 l 2
 201 51 217 20 289 20 c 1
 289 0 l 1
 11 0 l 1
 11 20 l 1
 84 20 100 51 100 80 c 2
 100 582 l 2
 100 610 84 642 17 642 c 1xdc
 17 662 l 1
 267 662 l 2
 422 662 542 605 542 487 c 0xec
433 479 m 0
 433 593 341 624 244 624 c 0xec
 203 624 201 619 201 579 c 2
 201 330 l 1
 217 330 233 327 250 327 c 0
 358 327 433 364 433 479 c 0
EndSplineSet
EndChar
StartChar: Q
Encoding: 50 81 49
OldEncoding: 81
Width: 721
Flags: W
HStem: -177 200<361 700> 639 37<361 371>
VStem: 34 113<330 352> 574 113<330 352>
Fore
700 -177 m 1
 700 -177 l 0
 527 -177 407 -147 323 -65 c 0
 304 -48 284 -20 267 -8 c 1
 257 3 243 8 233 9 c 0
 103 45 34 194 34 330 c 0
 34 525 157 676 361 676 c 0
 562 676 687 524 687 330 c 0
 687 138 556 -3 424 -8 c 1
 496 -100 581 -157 700 -160 c 1
 700 -177 l 1
574 330 m 0
 574 528 490 639 361 639 c 0
 224 637 147 530 147 330 c 0
 147 134 230 23 361 23 c 0
 499 23 574 147 574 330 c 0
EndSplineSet
EndChar
StartChar: R
Encoding: 51 82 50
OldEncoding: 82
Width: 666
Flags: W
HStem: 0 20<12 32.672 287 287 638 653> 624 38<12 289> 642 20<12 32.3248>
VStem: 97 103<80 307 80 593> 433 109<479 497>
DStem: 255 307 361 319 493 0 559 75
Fore
653 0 m 1xd8
 493 0 l 1
 255 307 l 1
 200 306 l 1
 200 80 l 2
 200 51 214 20 287 20 c 1
 287 0 l 1
 12 0 l 1
 12 20 l 1
 83 20 97 51 97 80 c 2
 97 582 l 2
 97 610 83 642 12 642 c 1xb8
 12 662 l 1
 276 662 l 2
 442 662 542 604 542 487 c 0
 542 381 455 332 361 319 c 1
 559 75 l 2
 585 43 608 23 653 20 c 1
 653 0 l 1xd8
433 485 m 0
 433 584 362 624 273 624 c 0xd8
 207 624 200 624 200 576 c 2
 200 343 l 1
 344 347 433 378 433 485 c 0
EndSplineSet
EndChar
StartChar: S
Encoding: 52 83 51
OldEncoding: 83
Width: 556
Flags: W
HStem: -14 39<261 284> 634 42<245 268>
VStem: 71 86<508 539>
Fore
490 169 m 0
 490 80 416 -14 280 -14 c 0
 177 -14 104 60 94 -14 c 1
 72 -14 l 1
 43 201 l 1
 65 201 l 1
 97 108 166 25 272 25 c 0
 353 25 407 94 384 172 c 0
 344 312 71 318 71 508 c 0
 71 607 151 676 247 676 c 0
 353 676 402 602 425 676 c 1
 447 676 l 1
 468 462 l 1
 444 462 l 1
 421 556 355 634 263 634 c 0
 203 634 157 602 157 539 c 0
 157 481 220 439 263 413 c 0
 399 332 490 289 490 169 c 0
EndSplineSet
EndChar
StartChar: T
Encoding: 53 84 52
OldEncoding: 84
Width: 609
Flags: W
HStem: 0 20<166 187.464 444 444> 619 43<25 253 25 467>
VStem: 253 103<67.4697 619>
Fore
593 492 m 1
 570 492 l 1
 547 622 498 619 427 619 c 2
 356 619 l 1
 356 80 l 2
 356 51 370 20 444 20 c 1
 444 0 l 1
 166 0 l 1
 166 20 l 1
 240 20 253 51 253 80 c 2
 253 619 l 1
 183 619 104 624 75 582 c 1
 54 556 49 522 43 492 c 1
 18 492 l 1
 25 662 l 1
 587 662 l 1
 593 492 l 1
EndSplineSet
EndChar
StartChar: U
Encoding: 54 85 53
OldEncoding: 85
Width: 721
Flags: W
HStem: -14 45<352 381> 642 20<17 37.624 17 293 473 495.367 473 703>
VStem: 104 102<225 584> 567 43<267 584>
Fore
703 642 m 1
 625 642 610 610 610 582 c 2
 610 267 l 2
 610 154 601 66 487 12 c 0
 456 -3 402 -14 359 -14 c 0
 178 -14 104 71 104 253 c 2
 104 582 l 2
 104 610 89 642 17 642 c 1
 17 662 l 1
 293 662 l 1
 293 642 l 1
 221 642 206 610 206 582 c 2
 206 246 l 2
 206 91 253 31 379 31 c 0
 565 31 567 172 567 267 c 2
 567 582 l 2
 567 610 551 642 473 642 c 1
 473 662 l 1
 703 662 l 1
 703 642 l 1
EndSplineSet
EndChar
StartChar: V
Encoding: 55 86 54
OldEncoding: 86
Width: 721
Flags: W
HStem: 642 20<20 33.0974 20 286 496 515.958 496 700>
DStem: 131 527 257 487 373 -14 402 161 544 516 617 570 402 161 386 -14
Fore
700 642 m 1
 653 642 633 610 617 570 c 0
 544 393 441 131 386 -14 c 1
 373 -14 l 1
 131 527 l 1
 104 587 78 642 20 642 c 1
 20 662 l 1
 286 662 l 1
 286 642 l 1
 223 642 210 630 210 605 c 0
 210 584 247 507 257 487 c 2
 402 161 l 1
 544 516 l 1
 553 538 568 576 568 599 c 0
 568 637 524 642 496 642 c 1
 496 662 l 1
 700 662 l 1
 700 642 l 1
EndSplineSet
EndChar
StartChar: W
Encoding: 56 87 55
OldEncoding: 87
Width: 943
Flags: W
HStem: 642 20<9 253 316 583.973 737 759 911 935>
DStem: 450 470 473 412 344 189 319 -14 473 412 516 570 634 -14 665 186
Fore
935 642 m 1
 911 641 889 633 872 614 c 1
 863 601 857 585 852 570 c 1
 647 -14 l 1
 634 -14 l 1
 473 412 l 1
 319 -14 l 1
 306 -14 l 1
 152 419 l 1
 134 468 101 561 75 604 c 0
 60 630 38 639 9 642 c 1
 9 662 l 1
 253 662 l 1
 253 642 l 1
 240 642 l 2
 207 637 189 637 189 602 c 0
 189 593 201 562 204 553 c 2
 344 189 l 1
 450 470 l 1
 435 513 419 556 399 596 c 0
 382 633 356 642 316 642 c 1
 316 662 l 1
 584 662 l 1
 584 642 l 1
 556 642 507 642 507 611 c 0
 507 596 515 576 516 570 c 1
 665 186 l 1
 786 513 l 1
 803 562 809 604 800 619 c 0
 786 641 759 641 737 642 c 1
 737 662 l 1
 935 662 l 1
 935 642 l 1
EndSplineSet
EndChar
StartChar: X
Encoding: 57 88 56
OldEncoding: 88
Width: 721
Flags: W
HStem: 0 20<12 24.9641 244 244 409 437.288 705 705> 642 20<25 326 459 485.41 459 697>
DStem: 313 326 339 287 164 143 229 149 339 287 402 367 427 158 587 103 482 533 541 539 378 404 402 367
Fore
705 0 m 1
 409 0 l 1
 409 20 l 1
 479 20 495 34 481 69 c 0
 473 92 442 137 427 158 c 2
 339 287 l 1
 229 149 l 2
 210 127 187 100 174 75 c 0
 160 48 184 20 244 20 c 1
 244 0 l 1
 12 0 l 1
 12 20 l 1
 69 20 112 77 164 143 c 2
 313 326 l 1
 212 476 l 2
 129 598 97 639 25 642 c 1
 25 662 l 1
 326 662 l 1
 326 642 l 1
 263 642 250 634 250 611 c 0
 250 581 324 478 343 453 c 2
 378 404 l 1
 482 533 l 2
 496 550 530 584 530 610 c 0
 530 642 481 642 459 642 c 1
 459 662 l 1
 697 662 l 5
 697 642 l 1
 625 642 570 576 541 539 c 2
 402 367 l 1
 587 103 l 1
 633 40 659 20 705 20 c 1
 705 0 l 1
EndSplineSet
EndChar
StartChar: Y
Encoding: 58 89 57
OldEncoding: 89
Width: 721
Flags: W
HStem: 0 20<214 238.924 518 518> 642 20<23 36.2325 23 303 484 513.958 694.333 702>
VStem: 315 101<68.2653 293>
DStem: 190 476 255 559 315 293 396 347 533 562 558 519 396 347 416 303
Fore
702 642 m 1
 633 633 587 564 558 519 c 2
 416 303 l 1
 416 80 l 2
 416 51 432 20 518 20 c 1
 518 0 l 1
 214 0 l 1
 214 20 l 1
 300 20 315 51 315 80 c 2
 315 293 l 1
 190 476 l 2
 123 574 94 641 23 642 c 1
 23 662 l 1
 303 662 l 1
 303 642 l 1
 249 642 230 636 230 614 c 0
 230 593 243 576 255 559 c 2
 396 347 l 1
 533 562 l 2
 544 581 559 602 550 624 c 0
 544 636 536 642 484 642 c 1
 484 662 l 1
 702 662 l 1
 702 642 l 1
EndSplineSet
EndChar
StartChar: Z
Encoding: 59 90 58
OldEncoding: 90
Width: 609
Flags: W
HStem: 0 38<144 573> 624 38<51 445>
DStem: 445 624 579 650 8 12 144 38
Fore
596 177 m 1
 573 0 l 1
 8 0 l 1
 8 12 l 1
 445 624 l 1
 237 624 l 2
 134 624 75 605 57 490 c 1
 31 490 l 1
 51 662 l 1
 579 662 l 1
 579 650 l 1
 144 38 l 1
 390 38 l 2
 499 38 544 66 573 177 c 1
 596 177 l 1
EndSplineSet
EndChar
StartChar: bracketleft
Encoding: 60 91 59
OldEncoding: 91
Width: 333
Flags: W
HStem: -157 26<215 300> 636 26<88 300>
VStem: 88 76<-157 596>
Fore
300 -157 m 1
 88 -157 l 1
 88 662 l 1
 300 662 l 1
 300 636 l 1
 221 636 l 2
 175 636 164 625 164 581 c 2
 164 -68 l 2
 164 -120 177 -131 224 -131 c 2
 300 -131 l 1
 300 -157 l 1
EndSplineSet
EndChar
StartChar: backslash
Encoding: 61 92 60
OldEncoding: 92
Width: 278
Flags: W
HStem: 0 21G<289 361>
DStem: -83 682 -11 682 289 0 361 0
Fore
361 0 m 1
 289 0 l 1
 -83 682 l 1
 -11 682 l 1
 361 0 l 1
EndSplineSet
EndChar
StartChar: bracketright
Encoding: 62 93 61
OldEncoding: 93
Width: 333
Flags: W
HStem: -157 26<34 244> 636 26<34 131>
VStem: 169 75<-78 662>
Fore
244 -157 m 1
 34 -157 l 1
 34 -131 l 1
 103 -131 l 2
 163 -129 169 -121 169 -63 c 2
 169 556 l 2
 169 610 170 636 123 636 c 2
 34 636 l 1
 34 662 l 1
 244 662 l 1
 244 -157 l 1
EndSplineSet
EndChar
StartChar: asciicircum
Encoding: 63 94 62
OldEncoding: 94
Width: 468
Flags: W
DStem: 203 662 235 593 14 257 86 257
Fore
456 257 m 1
 382 257 l 1
 235 593 l 1
 86 257 l 1
 14 257 l 1
 203 662 l 1
 267 662 l 1
 456 257 l 1
EndSplineSet
EndChar
StartChar: underscore
Encoding: 64 95 63
OldEncoding: 95
Width: 499
Flags: W
HStem: -174 59<0 499>
Fore
499 -174 m 1
 0 -174 l 1
 0 -115 l 1
 499 -115 l 1
 499 -174 l 1
EndSplineSet
EndChar
StartChar: grave
Encoding: 65 96 64
OldEncoding: 96
Width: 333
Flags: W
Fore
243 507 m 1
 203 507 l 1
 60 598 l 2
 43 607 17 624 17 641 c 0
 17 664 28 677 48 677 c 0
 65 677 92 664 104 645 c 1
 243 507 l 1
EndSplineSet
EndChar
StartChar: a
Encoding: 66 97 65
OldEncoding: 97
Width: 443
Flags: W
HStem: -11 60<143 195> 435 23<208 226>
VStem: 37 87<95 131> 283 84<93 321.603>
Fore
442 43 m 1
 442 43 l 0
 427 25 387 -11 359 -11 c 0
 307 -11 289 28 287 66 c 1
 243 25 186 -11 143 -11 c 0
 83 -11 37 37 37 95 c 0
 37 215 198 257 283 290 c 1
 283 396 273 435 210 435 c 0
 190 435 155 425 144 407 c 1
 140 395 144 375 144 349 c 0
 144 326 123 304 100 304 c 0
 54 304 45 344 66 382 c 0
 100 442 163 458 224 458 c 0
 335 458 367 410 367 287 c 2
 367 77 l 2
 367 40 393 35 442 69 c 1
 442 43 l 1
283 94 m 1
 283 264 l 1
 220 238 124 221 124 131 c 0
 124 88 147 49 195 49 c 0
 215 49 273 71 283 94 c 1
EndSplineSet
EndChar
StartChar: b
Encoding: 67 98 66
OldEncoding: 98
Width: 499
Flags: W
HStem: -11 34<241 261> 396 62<258 301>
VStem: 74 86<68 311 68 682> 386 87<200 243>
Fore
473 243 m 0
 473 243 l 0
 473 112 379 -11 243 -11 c 0
 186 -11 127 5 86 37 c 0
 78 43 74 54 74 68 c 2
 74 559 l 2
 74 628 63 619 9 619 c 1
 9 637 l 1
 45 647 71 651 97 660 c 2
 160 682 l 1
 160 378 l 1
 187 430 243 458 301 458 c 0
 416 458 473 344 473 243 c 0
386 200 m 0
 386 280 359 396 258 396 c 0
 184 396 160 353 160 309 c 2
 160 84 l 1
 157 51 167 49 197 35 c 0
 214 28 240 23 257 23 c 0
 356 23 386 117 386 200 c 0
EndSplineSet
EndChar
StartChar: c
Encoding: 68 99 67
OldEncoding: 99
Width: 443
Flags: W
HStem: -11 71<212 257> 429 29<228 249>
VStem: 25 78<214 255>
Fore
412 149 m 1
 370 63 315 -11 212 -11 c 0
 104 -11 25 91 25 214 c 0
 25 344 100 458 249 458 c 0
 306 458 393 427 398 359 c 0
 398 336 376 316 353 316 c 0
 330 316 307 338 307 359 c 0
 307 399 284 429 230 429 c 0
 144 429 103 338 103 255 c 0
 103 163 154 60 257 60 c 0
 323 60 364 106 398 157 c 1
 412 149 l 1
EndSplineSet
EndChar
StartChar: d
Encoding: 69 100 68
OldEncoding: 100
Width: 499
Flags: W
HStem: -11 49<212 250> 427 31<220.534 252>
VStem: 26 86<210 241> 339 85<113 682>
Fore
490 45 m 1
 490 45 l 0
 442 31 392 12 339 -14 c 1
 339 60 l 1
 313 20 263 -11 212 -11 c 0
 88 -11 26 98 26 210 c 0
 26 327 108 458 237 458 c 0
 287 458 326 433 339 418 c 1
 339 559 l 2
 339 627 333 619 273 619 c 1
 273 637 l 1
 310 647 336 651 361 660 c 2
 424 682 l 1
 424 91 l 2
 424 54 459 60 490 60 c 1
 490 45 l 1
339 117 m 2
 339 300 l 2
 339 372 307 427 235 427 c 0
 152 427 112 333 112 241 c 0
 112 111 170 38 250 38 c 0
 307 38 339 83 339 117 c 2
EndSplineSet
EndChar
StartChar: e
Encoding: 70 101 69
OldEncoding: 101
Width: 443
Flags: W
HStem: -11 68<212 253> 276 31<94 402> 422 36<204 226>
VStem: 23 68<214 276>
Fore
421 158 m 1
 421 158 l 0
 390 68 312 -11 212 -11 c 0
 97 -11 23 95 23 214 c 0
 23 356 103 458 226 458 c 0
 333 458 399 379 402 276 c 1
 91 276 l 1
 92 181 140 57 253 57 c 0
 319 57 373 109 404 164 c 1
 421 158 l 1
300 307 m 1
 296 366 270 422 204 422 c 0
 134 422 103 370 94 307 c 1
 300 307 l 1
EndSplineSet
EndChar
StartChar: f
Encoding: 71 102 70
OldEncoding: 102
Width: 333
Flags: W
HStem: 0 14<20 37 260.75 280> 416 31<22 103 187 309> 579 103<273 344>
VStem: 103 84<80 416 447 491.074>
Fore
382 624 m 1
 382 602 367 579 344 579 c 0
 290 579 303 630 266 648 c 0
 253 654 238 656 226 650 c 1
 184 639 187 587 187 553 c 2
 187 447 l 1
 309 447 l 1
 309 416 l 1
 187 416 l 1
 187 80 l 2
 187 37 203 18 280 14 c 1
 280 0 l 1
 20 0 l 1
 20 14 l 1
 88 18 103 37 103 80 c 2
 103 416 l 1
 22 416 l 1
 22 447 l 1
 103 447 l 1
 103 482 104 513 111 544 c 0
 127 622 190 682 273 682 c 0
 313 682 359 674 382 624 c 1
EndSplineSet
EndChar
StartChar: g
Encoding: 72 103 71
OldEncoding: 103
Width: 499
Flags: W
HStem: -217 56<200 240> 147 27<241 257> 386 38<462.294 470> 386 72<244 470> 430 28<223 244>
VStem: 28 70<-114 -91> 69 83<296 335> 329 77<272 300> 433 28<-68 -49>
Fore
470 386 m 1xe380
 387 386 l 0
 401 356 406 323 406 300 c 0
 406 204 332 147 244 147 c 0
 227 147 210 151 190 154 c 1
 170 149 127 108 134 84 c 1
 147 65 203 65 223 63 c 0
 356 57 461 68 461 -49 c 0
 461 -163 293 -217 200 -217 c 0
 84 -217 28 -154 28 -114 c 0xd580
 28 -74 74 -46 126 2 c 1
 104 11 74 25 74 54 c 0
 74 94 123 134 163 163 c 1
 104 187 69 230 69 296 c 0
 69 395 149 458 244 458 c 0xd380
 330 458 339 407 470 424 c 1
 470 386 l 1xe380
329 272 m 0
 329 272 l 0
 329 327 298 430 230 430 c 0
 170 430 152 384 152 335 c 0xcb80
 152 272 174 174 255 174 c 0
 312 174 329 223 329 272 c 0
433 -68 m 0
 433 -17 364 -15 298 -14 c 0
 253 -14 194 -12 147 -3 c 1
 127 -25 98 -58 98 -91 c 0xc580
 98 -126 137 -161 240 -161 c 0
 358 -161 433 -124 433 -68 c 0
EndSplineSet
EndChar
StartChar: h
Encoding: 73 104 72
OldEncoding: 104
Width: 499
Flags: W
HStem: 0 14<9 21 208 220 280 291.75 478 490> 404 54<266 301>
VStem: 72 85<80 344 80 682> 343 84<80 321>
Fore
490 0 m 1
 280 0 l 1
 280 14 l 1
 327 18 343 37 343 80 c 2
 343 287 l 2
 343 346 338 404 266 404 c 0
 210 404 186 376 157 344 c 1
 157 80 l 2
 157 37 172 18 220 14 c 1
 220 0 l 1
 9 0 l 1
 9 14 l 1
 57 18 72 37 72 80 c 2
 72 559 l 2
 72 624 63 621 9 619 c 1
 9 637 l 1
 43 647 69 651 94 660 c 2
 157 682 l 1
 157 378 l 1
 190 422 241 458 301 458 c 0
 402 458 427 399 427 289 c 2
 427 80 l 2
 427 37 442 18 490 14 c 1
 490 0 l 1
EndSplineSet
EndChar
StartChar: i
Encoding: 74 105 73
OldEncoding: 105
Width: 278
Flags: W
HStem: 0 14<23 38 244.5 260> 579 103<123.388 137>
VStem: 98 85<80 353>
Fore
184 630 m 0
 184 630 l 0
 184 602 161 579 134 579 c 0
 104 579 83 602 83 630 c 0
 83 659 104 682 134 682 c 0
 161 682 184 659 184 630 c 0
260 0 m 1
 23 0 l 1
 23 14 l 1
 83 18 98 37 98 80 c 2
 98 323 l 2
 98 401 86 407 23 390 c 1
 23 404 l 1
 183 458 l 1
 183 80 l 2
 183 37 198 18 260 14 c 1
 260 0 l 1
EndSplineSet
EndChar
StartChar: j
Encoding: 75 106 74
OldEncoding: 106
Width: 278
Flags: W
HStem: 579 103<161 169>
VStem: 121 85<-94 360>
Fore
212 630 m 0
 212 630 l 0
 212 602 189 579 161 579 c 0
 134 579 111 602 111 630 c 0
 111 659 134 682 161 682 c 0
 189 682 212 659 212 630 c 0
206 12 m 2
 206 -140 147 -217 35 -217 c 0
 8 -217 -25 -207 -43 -190 c 1
 -63 -167 -57 -134 -35 -124 c 0
 -15 -114 5 -118 17 -132 c 0
 28 -147 40 -167 69 -181 c 0
 111 -200 121 -134 121 -94 c 2
 121 343 l 2
 121 396 108 399 48 390 c 1
 48 404 l 1
 206 458 l 1
 206 12 l 2
EndSplineSet
EndChar
StartChar: k
Encoding: 76 107 75
OldEncoding: 107
Width: 499
Flags: W
HStem: 0 14<2 16.75 222 237 283 297.222 481.667 499> 433 14<270 294.26 270 475>
VStem: 77 84<80 247 80 682>
DStem: 161 247 230 283 310 51 375 98
Fore
499 0 m 1
 283 0 l 1
 283 14 l 1
 330 14 319 40 310 51 c 2
 161 247 l 1
 161 80 l 2
 161 37 177 18 237 14 c 1
 237 0 l 1
 2 0 l 1
 2 14 l 1
 61 18 77 37 77 80 c 2
 77 579 l 2
 77 625 66 622 11 619 c 1
 11 637 l 1
 48 647 74 651 98 660 c 2
 161 682 l 1
 161 263 l 1
 287 373 l 2
 300 384 312 396 321 410 c 1
 324 427 312 433 270 433 c 1
 270 447 l 1
 475 447 l 1
 475 433 l 1
 372 433 321 362 230 283 c 1
 375 98 l 2
 406 58 447 17 499 14 c 1
 499 0 l 1
EndSplineSet
MinimumDistance: x2,25 
EndChar
StartChar: l
Encoding: 77 108 76
OldEncoding: 108
Width: 278
Flags: W
HStem: 0 14<20 35.75 244.25 260>
VStem: 97 86<80 577>
Fore
260 0 m 1
 20 0 l 1
 20 14 l 1
 83 18 97 37 97 80 c 2
 97 559 l 2
 97 633 89 624 20 624 c 1
 20 637 l 1
 68 647 138 665 183 682 c 1
 183 80 l 2
 183 37 197 18 260 14 c 1
 260 0 l 1
EndSplineSet
EndChar
StartChar: m
Encoding: 78 109 77
OldEncoding: 109
Width: 777
Flags: W
HStem: 0 14<14 25.75 212.25 224 283 294.75 481 493 553 565 751.25 763> 404 54<276 316 538 574>
VStem: 77 84<80 323> 346 84<80 325> 616 84<80 305>
Fore
763 0 m 1
 553 0 l 1
 553 14 l 1
 601 18 616 37 616 80 c 2
 616 283 l 2
 616 379 601 404 538 404 c 0
 492 404 453 381 430 344 c 1
 430 80 l 2
 430 37 445 18 493 14 c 1
 493 0 l 1
 283 0 l 1
 283 14 l 1
 330 18 346 37 346 80 c 2
 346 287 l 1
 347 339 343 404 276 404 c 0
 235 404 184 381 161 346 c 1
 161 80 l 2
 161 37 177 18 224 14 c 1
 224 0 l 1
 14 0 l 1
 14 14 l 1
 61 18 77 37 77 80 c 2
 77 323 l 1
 80 378 65 389 14 389 c 1
 14 406 l 1
 161 458 l 1
 161 392 l 2
 161 367 181 399 197 410 c 0
 230 436 272 458 316 458 c 0
 367 458 407 421 419 373 c 1
 456 415 518 458 574 458 c 0
 693 458 700 356 700 267 c 2
 700 80 l 2
 700 37 716 18 763 14 c 1
 763 0 l 1
EndSplineSet
EndChar
StartChar: n
Encoding: 79 110 78
OldEncoding: 110
Width: 499
Flags: W
HStem: 0 14<9 21 208 220 280 291.75 478 490> 404 54<266 310>
VStem: 72 85<80 347> 343 84<80 324>
Fore
490 0 m 1
 280 0 l 1
 280 14 l 1
 327 18 343 37 343 80 c 2
 343 295 l 2
 343 353 336 404 266 404 c 0
 218 404 183 373 157 347 c 1
 157 80 l 2
 157 37 172 18 220 14 c 1
 220 0 l 1
 9 0 l 1
 9 14 l 1
 57 18 72 37 72 80 c 2
 72 324 l 2
 72 401 63 399 9 396 c 1
 9 410 l 1
 157 458 l 1
 157 378 l 1
 194 416 240 458 310 458 c 0
 387 458 427 404 427 296 c 2
 427 80 l 2
 427 37 442 18 490 14 c 1
 490 0 l 1
EndSplineSet
EndChar
StartChar: o
Encoding: 80 111 79
OldEncoding: 111
Width: 499
Flags: W
HStem: -11 31<246 266> 427 31<231 248>
VStem: 31 92<218 272> 378 92<190 238>
Fore
470 238 m 0
 470 238 l 0
 470 108 384 -11 246 -11 c 0
 118 -11 31 97 31 218 c 0
 31 350 108 458 246 458 c 0
 378 458 470 369 470 238 c 0
378 190 m 0
 378 281 347 427 233 427 c 0
 160 427 123 359 123 272 c 0
 121 131 169 20 264 20 c 0
 343 20 378 104 378 190 c 0
EndSplineSet
EndChar
StartChar: p
Encoding: 81 112 80
OldEncoding: 112
Width: 499
Flags: W
HStem: -217 14<3 22 220.333 243> -11 34<251 265> 402 56<258 306>
VStem: 75 85<-137 344> 384 86<203 243>
Fore
470 243 m 0
 470 243 l 0
 470 109 382 -11 253 -11 c 0
 218 -11 183 9 160 35 c 1
 160 -137 l 2
 160 -181 175 -200 243 -203 c 1
 243 -217 l 1
 3 -217 l 1
 3 -203 l 1
 60 -200 75 -181 75 -137 c 2
 75 327 l 2
 75 384 75 404 3 396 c 1
 3 410 l 1
 160 458 l 1
 160 396 l 1
 158 373 163 392 186 413 c 0
 214 439 247 458 306 458 c 0
 416 458 470 359 470 243 c 0
384 203 m 0
 384 284 362 402 258 402 c 0
 229 402 200 389 180 369 c 1
 160 352 160 347 160 324 c 2
 160 103 l 2
 160 74 174 60 198 43 c 0
 217 31 240 23 263 23 c 0
 335 23 384 103 384 203 c 0
EndSplineSet
EndChar
StartChar: q
Encoding: 82 113 81
OldEncoding: 113
Width: 499
Flags: W
HStem: -217 14<257 279.333 478.333 498> -11 62<194 233> 433 25<231 266>
VStem: 25 86<214 244> 339 85<-137 60 102 439>
Fore
498 -217 m 1
 257 -217 l 1
 257 -203 l 1
 324 -200 339 -181 339 -137 c 2
 339 60 l 1
 296 23 249 -11 194 -11 c 0
 63 -11 25 111 25 214 c 0
 25 343 114 458 250 458 c 0
 290 458 327 447 359 425 c 1
 407 456 l 2
 424 465 424 450 424 439 c 2
 424 -137 l 2
 424 -181 439 -200 498 -203 c 1
 498 -217 l 1
339 140 m 2
 339 323 l 2
 339 370 343 399 293 424 c 0
 275 432 264 433 244 433 c 0
 146 433 111 327 111 244 c 0
 111 134 154 51 233 51 c 0
 264 51 300 61 324 81 c 0
 344 100 339 114 339 140 c 2
EndSplineSet
EndChar
StartChar: r
Encoding: 83 114 82
OldEncoding: 114
Width: 333
Flags: W
HStem: 0 14<5 20 225 240> 396 62<226 278>
VStem: 80 84<80 320>
Fore
333 392 m 0
 330 370 313 361 293 361 c 0
 258 361 250 396 226 396 c 0
 206 396 164 347 164 318 c 2
 164 80 l 2
 164 37 180 18 240 14 c 1
 240 0 l 1
 5 0 l 1
 5 14 l 1
 65 18 80 37 80 80 c 2
 80 298 l 2
 80 393 65 406 5 389 c 1
 5 404 l 1
 164 458 l 1
 164 367 l 1
 184 402 227 458 278 458 c 0
 316 458 339 435 333 392 c 0
EndSplineSet
EndChar
StartChar: s
Encoding: 84 115 83
OldEncoding: 115
Width: 388
Flags: W
HStem: -11 25<187 212> 435 23<178 202>
VStem: 51 63<335 370> 278 69<84 124>
Fore
347 124 m 0
 347 38 280 -11 200 -11 c 0
 170 -11 154 -3 127 5 c 0
 69 23 68 6 65 -3 c 1
 51 -3 l 1
 51 154 l 1
 68 154 l 1
 80 81 115 14 198 14 c 0
 241 14 278 40 278 84 c 0
 278 190 51 194 51 335 c 0
 51 413 117 458 190 458 c 0
 214 458 232 452 264 439 c 0
 298 429 300 444 303 449 c 1
 315 449 l 1
 315 313 l 1
 300 313 l 1
 281 382 257 435 189 435 c 0
 151 435 114 410 114 370 c 0
 114 270 347 250 347 124 c 0
EndSplineSet
EndChar
StartChar: t
Encoding: 85 116 84
OldEncoding: 116
Width: 278
Flags: W
HStem: 416 31<157 255>
VStem: 71 86<116 416>
Fore
280 68 m 1
 243 20 198 -11 151 -11 c 0
 84 -11 69 31 71 129 c 1
 71 416 l 1
 41 416 l 2
 29 416 6 410 15 430 c 1
 71 468 109 524 157 579 c 1
 157 447 l 1
 255 447 l 1
 255 416 l 1
 157 416 l 1
 157 146 l 2
 157 72 166 25 229 49 c 0
 244 55 257 68 266 80 c 1
 280 68 l 1
EndSplineSet
EndChar
StartChar: u
Encoding: 86 117 85
OldEncoding: 117
Width: 499
Flags: W
HStem: -11 59<189 232> 433 14<9 31.6631 260 286.452>
VStem: 72 85<118 390> 332 84<116 374>
Fore
479 37 m 1
 439 25 386 6 338 -11 c 1
 338 77 l 1
 316 54 l 2
 295 29 253 -11 189 -11 c 0
 109 -11 72 46 72 132 c 2
 72 361 l 2
 72 421 65 433 9 433 c 1
 9 447 l 1
 157 447 l 1
 157 137 l 2
 157 86 177 48 232 48 c 0
 260 48 289 63 310 80 c 0
 338 103 332 115 332 151 c 2
 332 359 l 2
 332 421 326 433 260 433 c 1
 260 447 l 1
 416 447 l 1
 416 120 l 2
 416 68 421 48 479 51 c 1
 479 37 l 1
EndSplineSet
EndChar
StartChar: v
Encoding: 87 118 86
OldEncoding: 118
Width: 499
Flags: W
HStem: 433 14<11 205.952 329 344.79 329 467>
DStem: 74 379 174 358 230 17 270 120 347 323 399 343 270 120 266 17
Fore
467 433 m 1
 430 433 418 390 399 343 c 1
 266 17 l 2
 263 9 253 -11 247 -11 c 0
 243 -11 233 9 230 17 c 2
 74 379 l 2
 58 416 34 433 11 433 c 1
 11 447 l 1
 206 447 l 1
 206 433 l 1
 143 433 160 395 174 358 c 1
 270 120 l 1
 347 323 l 2
 378 402 387 433 329 433 c 1
 329 447 l 1
 467 447 l 1
 467 433 l 1
EndSplineSet
MinimumDistance: x13,0 x6,9 
EndChar
StartChar: w
Encoding: 88 119 87
OldEncoding: 119
Width: 721
Flags: W
HStem: 433 14<22 32.8616 188 201 263 275.957 430 464 570 585.896>
DStem: 88 343 210 244 227 -3 260 117 350 310 372 267 260 117 244 -3 372 267 422 343 479 -3 507 123 590 323 647 370 507 123 496 -3
Fore
693 433 m 1
 667 424 656 387 647 370 c 1
 496 -3 l 2
 495 -6 492 -11 488 -11 c 0
 485 -11 482 -6 479 -3 c 1
 372 267 l 1
 244 -3 l 2
 243 -6 238 -11 235 -11 c 0
 232 -11 229 -6 227 -3 c 2
 88 343 l 1
 63 406 58 433 22 433 c 1
 22 447 l 1
 201 447 l 1
 201 433 l 1
 175 435 155 430 155 399 c 0
 155 375 200 270 210 244 c 2
 260 117 l 1
 350 310 l 1
 324 396 312 433 263 433 c 1
 263 447 l 1
 464 447 l 1
 464 433 l 1
 396 435 396 413 422 343 c 1
 507 123 l 1
 590 323 l 1
 622 402 628 433 570 433 c 1
 570 447 l 1
 693 447 l 1
 693 433 l 1
EndSplineSet
MinimumDistance: x25,0 
EndChar
StartChar: x
Encoding: 89 120 88
OldEncoding: 120
Width: 499
Flags: W
HStem: 0 14<17 28.9694 163 163 278 290.333 468.171 478.969> 433 14<25 232 276 432.969>
DStem: 204 230 221 197 97 77 149 84 221 197 269 270 324 49 390 84
Fore
479 0 m 1
 278 0 l 1
 278 14 l 1
 315 17 341 26 324 49 c 2
 221 197 l 1
 149 84 l 2
 111 25 111 14 163 14 c 1
 163 0 l 1
 17 0 l 1
 17 14 l 1
 54 14 71 40 97 77 c 2
 204 230 l 1
 118 362 l 1
 94 398 89 430 25 433 c 1
 25 447 l 1
 232 447 l 1
 232 433 l 1
 197 433 189 419 189 407 c 0
 189 392 238 318 249 301 c 1
 263 323 316 384 316 410 c 0
 316 430 290 433 276 433 c 1
 276 447 l 1
 433 447 l 1
 433 433 l 1
 396 433 366 407 346 379 c 2
 269 270 l 1
 390 84 l 2
 416 45 444 14 479 14 c 1
 479 0 l 1
EndSplineSet
MinimumDistance: x9,6 x2,27 
EndChar
StartChar: y
Encoding: 90 121 89
OldEncoding: 121
Width: 499
Flags: W
HStem: -217 100<83 103> 433 14<15 221 341 476>
DStem: 71 390 174 367 241 25 287 114
Fore
476 433 m 1
 456 433 433 399 424 376 c 2
 276 -8 l 2
 247 -83 203 -217 103 -217 c 0
 77 -217 51 -207 37 -184 c 1
 31 -169 28 -155 35 -140 c 0
 43 -123 65 -117 83 -117 c 0
 98 -117 120 -127 143 -134 c 0
 170 -140 194 -117 230 -23 c 0
 237 -8 246 14 241 25 c 2
 71 390 l 1
 60 416 45 430 15 433 c 1
 15 447 l 1
 221 447 l 1
 221 433 l 1
 154 433 154 410 174 367 c 2
 287 114 l 1
 386 392 l 1
 393 410 390 430 341 433 c 1
 341 447 l 1
 476 447 l 1
 476 433 l 1
EndSplineSet
MinimumDistance: x11,14 
EndChar
StartChar: z
Encoding: 91 122 90
OldEncoding: 122
Width: 443
Flags: W
HStem: 0 31<134 404> 416 31<57 293>
DStem: 293 416 404 433 25 14 134 31
Fore
418 135 m 1
 404 0 l 1
 25 0 l 1
 25 14 l 1
 293 416 l 1
 167 416 l 2
 81 416 77 384 71 330 c 1
 54 330 l 1
 57 447 l 1
 404 447 l 1
 404 433 l 1
 134 31 l 1
 260 31 l 2
 289 31 319 31 347 43 c 1
 387 54 390 106 399 140 c 1
 418 135 l 1
EndSplineSet
EndChar
StartChar: braceleft
Encoding: 92 123 91
OldEncoding: 123
Width: 479
Flags: W
VStem: 186 72<-45 145 363 561>
Fore
341 -164 m 1
 227 -167 186 -140 186 -17 c 2
 186 143 l 2
 186 209 177 240 111 257 c 1
 172 275 186 307 186 370 c 2
 186 544 l 2
 186 662 241 682 341 682 c 1
 276 665 258 627 258 559 c 2
 258 384 l 2
 258 313 246 275 177 257 c 1
 249 238 258 194 258 121 c 2
 258 -43 l 2
 258 -111 278 -152 341 -164 c 1
EndSplineSet
EndChar
StartChar: bar
Encoding: 93 124 92
OldEncoding: 124
Width: 199
Flags: W
HStem: 0 21G<68 132>
VStem: 68 64<0 682>
Fore
132 0 m 1
 68 0 l 1
 68 682 l 1
 132 682 l 1
 132 0 l 1
EndSplineSet
EndChar
StartChar: braceright
Encoding: 94 125 93
OldEncoding: 125
Width: 479
Flags: W
VStem: 223 70<-45 157 363 561>
Fore
370 257 m 1
 304 240 293 209 293 143 c 2
 293 -17 l 2
 293 -140 252 -167 140 -164 c 1
 203 -152 223 -111 223 -43 c 2
 223 121 l 2
 223 194 230 238 303 257 c 1
 233 275 223 313 223 384 c 2
 223 559 l 2
 223 627 204 665 140 682 c 1
 240 682 293 662 293 544 c 2
 293 370 l 2
 293 307 307 275 370 257 c 1
EndSplineSet
EndChar
StartChar: asciitilde
Encoding: 95 126 94
OldEncoding: 126
Width: 540
Flags: W
HStem: 198 63<381 393.352> 267 65<146.62 161>
Fore
522 307 m 1
 493 253 445 198 381 198 c 0
 304 198 229 267 160 267 c 0
 104 267 77 217 54 177 c 1
 18 217 l 1
 49 270 89 332 160 332 c 0
 229 332 329 261 382 261 c 0
 427 261 467 309 487 347 c 1
 522 307 l 1
EndSplineSet
EndChar
StartChar: uni0E10.descless
Encoding: 96 63232 95
OldEncoding: 128
Width: 484
Flags: HW
HStem: -8 43<278 287> 190 39<122 134> 319 39<122 134>
VStem: 170 72<91 198> 315 73<77 334>
DStem: 28 439 81 472 301 370 358 401
Fore
431 571 m 0
 431 571 l 0
 400 461 295 490 277 496 c 0
 144 541 103 536 77 472 c 1
 341 401 l 1
 356 393 388 392 388 332 c 2
 388 106 l 2
 388 41 353 -8 278 -8 c 0
 216 -8 170 45 170 106 c 2
 170 198 l 1
 158 192 147 190 132 190 c 0
 80 190 50 232 52 280 c 1
 55 324 85 358 132 358 c 0
 208 359 241 319 241 270 c 2
 241 78 l 2
 241 58 254 35 278 35 c 0
 303 35 315 58 315 77 c 2
 315 321 l 2
 315 353 309 364 287 370 c 2
 27 439 l 1
 38 478 71 598 175 594 c 0
 240 594 368 527 418 582 c 0
 426 591 435 587 431 571 c 0
132 229 m 0
 189 229 189 319 132 319 c 0
 76 319 76 229 132 229 c 0
EndSplineSet
KernsSLIF: 177 44 0 0 181 44 0 0 182 44 0 0 183 44 0 0 180 44 0 0
EndChar
StartChar: uni0E34.left
Encoding: 97 63233 96
OldEncoding: 129
Width: 0
Flags: HW
Fore
-243 654 m 4
 -243 654 l 0
 -267 667 -383 722 -453 731 c 0
 -546 746 -628 733 -646 728 c 1
 -620 834 -538 900 -440 892 c 0
 -331 885 -251 796 -243 654 c 4
-293 719 m 1
 -323 803 -372 834 -443 843 c 0
 -503 851 -555 820 -577 779 c 1
 -577 779 -508 785 -443 773 c 0
 -353 756 -293 719 -293 719 c 1
EndSplineSet
EndChar
StartChar: uni0E35.left
Encoding: 98 63234 97
OldEncoding: 130
Width: 0
Flags: HW
VStem: -331 64<852 951>
Fore
-243 654 m 0
 -243 654 l 0
 -267 667 -383 720 -453 731 c 0
 -549 746 -628 733 -646 728 c 1
 -626 820 -546 900 -448 892 c 0
 -415 891 -371 883 -331 852 c 1
 -331 951 l 1
 -267 951 l 5
 -267 762 l 1
 -267 762 -248 720 -243 654 c 0
-293 719 m 1
 -323 803 -372 834 -443 843 c 0
 -503 851 -555 820 -577 779 c 1
 -577 779 -508 785 -443 773 c 0
 -353 756 -293 719 -293 719 c 1
EndSplineSet
EndChar
StartChar: uni0E36.left
Encoding: 99 63235 98
OldEncoding: 131
Width: 0
Flags: HW
HStem: 905 41<-311 -294>
Fore
-303 822 m 0
 -303 822 l 0
 -252 822 -252 905 -303 905 c 0
 -353 905 -353 822 -303 822 c 0
-293 719 m 1
 -293 719 l 0
 -323 803 -372 834 -443 843 c 0
 -503 851 -555 820 -577 779 c 1
 -577 779 -508 785 -443 773 c 0
 -353 756 -293 719 -293 719 c 1
-243 654 m 1
 -267 667 -383 720 -453 731 c 0
 -549 746 -628 733 -646 728 c 1
 -626 822 -542 900 -445 892 c 0
 -405 889 -378 877 -378 877 c 1
 -380 908 -352 946 -300 946 c 0
 -255 946 -222 908 -222 865 c 0
 -222 829 -241 791 -277 783 c 1
 -277 783 -246 733 -243 654 c 1
EndSplineSet
EndChar
StartChar: uni0E37.left
Encoding: 100 63236 99
OldEncoding: 132
Width: 0
Flags: HW
VStem: -327 56<845 951>
Fore
-243 654 m 0
 -243 654 l 0
 -267 667 -383 720 -453 731 c 0
 -549 746 -628 733 -646 728 c 1
 -617 851 -516 902 -443 889 c 1
 -441 951 l 1
 -388 951 l 1
 -387 877 l 1
 -355 869 -327 845 -327 845 c 1
 -327 951 l 1
 -271 951 l 1
 -268 763 l 5
 -268 763 -246 723 -243 654 c 0
-293 719 m 1
 -323 803 -372 834 -443 843 c 0
 -503 851 -555 820 -577 779 c 1
 -577 779 -508 785 -443 773 c 0
 -353 756 -293 719 -293 719 c 1
EndSplineSet
EndChar
StartChar: ellipsis
Encoding: 101 8230 100
OldEncoding: 133
Width: 951
Flags: HW
VStem: 106 108<34 51> 422 111<34 51> 740 108<34 51>
CounterMasks: 1 00
Fore
848 45 m 0
 848 45 l 0
 848 12 823 -14 793 -14 c 0
 763 -14 740 14 740 45 c 0
 740 74 765 101 793 101 c 0
 822 101 848 75 848 45 c 0
532 45 m 0
 532 45 l 0
 532 12 505 -14 476 -14 c 0
 445 -14 422 14 422 45 c 0
 422 74 446 101 476 101 c 0
 505 101 532 75 532 45 c 0
214 45 m 0
 214 12 189 -14 158 -14 c 0
 129 -14 106 14 106 45 c 0
 106 74 131 101 158 101 c 0
 188 101 214 75 214 45 c 0
EndSplineSet
EndChar
StartChar: uni0E48.low_left
Encoding: 102 63237 101
OldEncoding: 134
Width: 0
Flags: W
VStem: -337 72<685 926>
Fore
-265 926 m 1
 -265 685 l 1
 -337 685 l 5
 -337 926 l 1
 -265 926 l 1
EndSplineSet
EndChar
StartChar: uni0E49.low_left
Encoding: 103 63238 102
OldEncoding: 135
Width: 0
Flags: HW
HStem: 776 35<-523 -515> 902 35<-523 -515>
Fore
-218 931 m 1
 -218 931 l 0
 -262 637 -545 667 -574 670 c 1
 -574 703 l 1
 -566 707 -513 734 -495 780 c 1
 -495 780 -504 776 -519 776 c 0
 -624 776 -624 937 -519 937 c 0
 -437 937 -434 857 -434 857 c 1
 -434 765 -492 716 -492 716 c 1
 -491 714 l 1
 -431 723 -304 766 -296 931 c 1
 -218 931 l 1
-517 811 m 0
 -460 811 -460 902 -517 902 c 0
 -576 902 -576 811 -517 811 c 0
EndSplineSet
EndChar
StartChar: uni0E4A.low_left
Encoding: 104 63239 103
OldEncoding: 136
Width: 0
Flags: HW
VStem: -620 59<733 793> -489 30<726 739>
Fore
-235 906 m 1
 -235 906 l 0
 -227 768 -295 684 -416 670 c 1
 -416 694 l 1
 -363 728 -369 836 -418 849 c 1
 -472 811 l 1
 -523 849 l 1
 -558 849 -585 806 -579 768 c 1
 -579 768 -570 800 -523 800 c 0
 -486 800 -460 770 -460 737 c 0
 -460 697 -482 667 -523 667 c 0
 -583 667 -620 720 -620 793 c 0
 -620 843 -573 903 -523 903 c 1
 -523 903 -472 857 -470 857 c 2
 -419 902 l 1
 -309 872 -328 771 -349 728 c 1
 -295 766 -279 834 -296 906 c 1
 -235 906 l 1
-489 733 m 0
 -489 783 -561 783 -561 733 c 0
 -561 684 -489 684 -489 733 c 0
EndSplineSet
EndChar
StartChar: uni0E4B.low_left
Encoding: 105 63240 104
OldEncoding: 137
Width: 0
Flags: HW
HStem: 776 58<-498 -388 -330 -222>
VStem: -391 61<836 935>
DStem: -409 836 -346 836 -522 834 -233 834
Fore
-222 777 m 1
 -331 776 l 1
 -333 676 l 1
 -387 676 l 1
 -388 776 l 1
 -498 777 l 1
 -498 834 l 1
 -390 836 l 1
 -391 935 l 1
 -328 935 l 1
 -330 836 l 1
 -222 834 l 1
 -222 777 l 1
EndSplineSet
MinimumDistance: x8,9 
EndChar
StartChar: uni0E4C.low_left
Encoding: 106 63241 105
OldEncoding: 138
Width: 0
Flags: HW
HStem: 670 33<-413 -411>
Fore
-216 954 m 1
 -216 954 l 0
 -226 846 -349 823 -380 817 c 2
 -381 816 l 1
 -353 811 -337 777 -337 748 c 0
 -337 707 -366 670 -413 670 c 0
 -460 670 -491 707 -491 748 c 0
 -491 786 -479 831 -381 860 c 0
 -334 876 -281 906 -284 968 c 1
 -216 954 l 1
-413 703 m 0
 -358 703 -358 788 -413 788 c 0
 -469 788 -469 703 -413 703 c 0
EndSplineSet
EndChar
StartChar: uni0E48.low
Encoding: 107 63242 106
OldEncoding: 139
Width: 0
Flags: W
HStem: 670 21G<-171 -99>
VStem: -171 72<670 914>
AnchorPoint: "AboveBase" -101.077 645.12 mark 0
Fore
-99 914 m 1
 -99 670 l 1
 -171 670 l 5
 -171 914 l 1
 -99 914 l 1
EndSplineSet
Substitution: 0 65534 'amni' uni0E4D
EndChar
StartChar: uni0E49.low
Encoding: 108 63243 107
OldEncoding: 140
Width: 0
Flags: HW
HStem: 776 37<-293 -289> 919 36<-293 -289>
AnchorPoint: "AboveBase" -101.077 645.12 mark 0
Fore
19 952 m 1
 19 952 l 0
 -10 636 -315 667 -347 670 c 1
 -347 705 l 1
 -339 708 -284 733 -265 780 c 1
 -265 780 l 1
 -265 780 -277 776 -293 776 c 0
 -410 776 -410 955 -293 955 c 0
 -202 955 -200 868 -200 866 c 0
 -200 765 -265 716 -265 716 c 1
 -263 716 l 1
 -263 716 -66 722 -58 952 c 1
 19 952 l 1
-293 813 m 0
 -224 813 -224 919 -293 919 c 0
 -359 919 -359 813 -293 813 c 0
EndSplineSet
Substitution: 0 65534 'amni' uni0E4D
EndChar
StartChar: uni0E4A.low
Encoding: 109 63244 108
OldEncoding: 141
Width: 0
Flags: HW
HStem: 876 56<-340 -333>
VStem: -440 63<739 809> -298 32<731 749>
AnchorPoint: "AboveBase" -101.077 645.12 mark 0
Fore
8 926 m 1
 8 926 l 0
 9 799 -62 691 -213 670 c 1
 -213 699 l 1
 -153 737 -158 859 -214 876 c 1
 -276 831 l 1
 -282 836 -336 876 -336 876 c 1
 -374 876 -407 816 -397 777 c 1
 -396 777 l 1
 -396 777 -385 814 -336 814 c 0
 -298 814 -265 782 -265 745 c 0
 -265 702 -290 668 -336 668 c 0
 -402 668 -440 733 -440 809 c 0
 -440 862 -390 931 -333 932 c 1
 -331 931 -276 883 -274 883 c 2
 -216 932 l 1
 -69 888 -136 739 -136 739 c 1
 -134 739 l 2
 -87 770 -47 852 -65 926 c 1
 8 926 l 1
-298 739 m 0
 -298 796 -377 796 -377 739 c 0
 -377 685 -298 685 -298 739 c 0
EndSplineSet
Substitution: 0 65534 'amni' uni0E4D
EndChar
StartChar: uni0E4B.low
Encoding: 110 63245 109
OldEncoding: 142
Width: 0
Flags: HW
HStem: 777 62<-276 -167 -106 0>
VStem: -170 64<840 942>
DStem: -177 840 -111 840 -289 839 0 839
AnchorPoint: "AboveBase" -101.077 645.12 mark 0
Fore
0 779 m 1
 -107 777 l 1
 -109 677 l 1
 -166 677 l 1
 -167 777 l 1
 -276 779 l 1
 -276 839 l 1
 -169 840 l 1
 -170 942 l 1
 -104 942 l 1
 -106 840 l 1
 0 839 l 1
 0 779 l 1
EndSplineSet
MinimumDistance: x8,9 
Substitution: 0 65534 'amni' uni0E4D
EndChar
StartChar: uni0E4C.low
Encoding: 111 63246 110
OldEncoding: 143
Width: 0
Flags: HW
HStem: 668 39<-197 -189>
AnchorPoint: "AboveBase" -101.077 645.12 mark 0
Fore
0 949 m 1
 0 949 l 0
 -22 854 -131 833 -164 826 c 2
 -167 825 l 1
 -132 819 -117 782 -117 751 c 0
 -117 707 -150 668 -197 668 c 0
 -254 668 -281 707 -281 754 c 0
 -281 793 -270 837 -170 871 c 0
 -120 888 -79 917 -69 971 c 1
 0 949 l 1
-197 707 m 0
 -144 707 -144 794 -197 794 c 0
 -257 794 -257 707 -197 707 c 0
EndSplineSet
EndChar
StartChar: uni0E0D.descless
Encoding: 112 63247 111
OldEncoding: 144
Width: 762
Flags: W
HStem: -8 37<506 524> 392 44<93 123 93 255> 574 20G<588 662>
VStem: 91 76<109 329> 377 73<98 413> 588 74<98 594>
Fore
662 594 m 1
 662 104 l 1
 662 104 l 0
 662 54 602 -8 517 -8 c 0
 435 -8 377 48 377 112 c 2
 377 407 l 1
 375 605 126 573 93 436 c 1
 255 436 l 1
 255 392 l 1
 245 392 210 392 208 392 c 0
 166 392 167 341 167 341 c 1
 167 338 167 154 167 154 c 1
 303 204 327 -2 202 -8 c 0
 110 -12 91 69 91 109 c 2
 91 324 l 2
 91 375 123 392 123 392 c 1
 43 392 l 1
 50 650 434 676 450 413 c 1
 450 101 l 2
 450 61 478 29 519 29 c 0
 561 29 588 60 588 100 c 2
 588 594 l 1
 662 594 l 1
202 32 m 0
 202 32 l 0
 262 32 262 121 202 121 c 0
 145 121 145 32 202 32 c 0
EndSplineSet
EndChar
StartChar: quoteleft
Encoding: 113 8216 112
OldEncoding: 145
Width: 317
Flags: HW
VStem: 82 50<565 588>
Fore
232 524 m 0
 232 482 208 456 167 456 c 0
 107 456 82 515 82 565 c 0
 82 630 144 700 202 728 c 1
 216 700 l 1
 180 679 132 624 132 588 c 0
 132 582 131 578 136 578 c 0
 144 578 153 587 172 585 c 0
 204 584 232 561 232 524 c 0
EndSplineSet
EndChar
StartChar: quoteright
Encoding: 114 8217 113
OldEncoding: 146
Width: 317
Flags: HW
VStem: 185 50<594 617>
Fore
85 659 m 0
 85 700 109 727 150 727 c 0
 210 727 235 668 235 617 c 0
 235 553 173 482 114 455 c 1
 101 482 l 1
 136 504 185 559 185 594 c 0
 185 601 186 605 180 605 c 0
 173 605 164 596 145 598 c 0
 113 599 85 622 85 659 c 0
EndSplineSet
EndChar
StartChar: quotedblleft
Encoding: 115 8220 114
OldEncoding: 147
Width: 451
Flags: HW
VStem: 24 50<565 588> 259 50<565 588>
Fore
409 524 m 0
 409 524 l 0
 409 482 385 456 344 456 c 0
 284 456 259 515 259 565 c 0
 259 630 320 700 380 728 c 1
 393 700 l 1
 358 679 309 624 309 588 c 0
 309 582 308 578 314 578 c 0
 320 578 330 587 349 585 c 0
 381 584 409 561 409 524 c 0
173 524 m 0
 173 482 150 456 109 456 c 0
 49 456 24 515 24 565 c 0
 24 630 85 700 144 728 c 1
 156 700 l 1
 121 679 73 624 73 588 c 0
 73 582 72 578 77 578 c 0
 85 578 93 587 113 585 c 0
 145 584 173 561 173 524 c 0
EndSplineSet
EndChar
StartChar: quotedblright
Encoding: 116 8221 115
OldEncoding: 148
Width: 451
Flags: HW
VStem: 41 150<617 659> 140 51<594 617> 277 150<617 659> 377 50<594 617>
Fore
41 659 m 0x80
 41 659 l 0
 41 700 65 727 106 727 c 0
 166 727 191 668 191 617 c 0x80
 191 553 129 482 71 455 c 1
 57 482 l 1
 93 504 140 559 140 594 c 0x40
 140 601 142 605 136 605 c 0
 129 605 120 596 101 598 c 0
 69 599 41 622 41 659 c 0x80
277 659 m 0x20
 277 700 300 727 341 727 c 0
 402 727 426 668 426 617 c 0x20
 426 553 364 482 306 455 c 1
 293 482 l 1
 328 504 377 559 377 594 c 0x10
 377 601 378 605 372 605 c 0
 364 605 356 596 337 598 c 0
 304 599 277 622 277 659 c 0x20
EndSplineSet
EndChar
StartChar: bullet
Encoding: 117 8226 116
OldEncoding: 149
Width: 367
Flags: HW
HStem: 430 20G<149 218>
Fore
308 319 m 0
 308 247 254 189 183 189 c 0
 115 189 60 247 60 319 c 0
 58 392 114 450 183 450 c 0
 254 450 308 392 308 319 c 0
EndSplineSet
EndChar
StartChar: endash
Encoding: 118 8211 117
OldEncoding: 150
Width: 732
Flags: HW
HStem: 214 47<32 700>
Fore
700 214 m 1
 32 214 l 1
 32 261 l 1
 700 261 l 1
 700 214 l 1
EndSplineSet
EndChar
StartChar: emdash
Encoding: 119 8212 118
OldEncoding: 151
Width: 1464
Flags: HW
HStem: 214 47<21 1444>
Fore
1444 214 m 1
 21 214 l 1
 21 261 l 1
 1444 261 l 1
 1444 214 l 1
EndSplineSet
EndChar
StartChar: uni0E31.left
Encoding: 120 63248 119
OldEncoding: 152
Width: 0
Flags: HW
HStem: 871 41<-387 -383>
Fore
63 908 m 1
 63 908 l 0
 -3 628 -415 616 -467 800 c 0
 -482 854 -450 911 -385 912 c 0
 -347 914 -314 892 -303 851 c 0
 -284 774 -345 745 -345 745 c 1
 -162 682 -30 816 -21 908 c 1
 63 908 l 1
-383 780 m 0
 -327 780 -327 871 -383 871 c 0
 -443 871 -443 780 -383 780 c 0
EndSplineSet
EndChar
StartChar: uni0E4D.left
Encoding: 121 63249 120
OldEncoding: 153
Width: 0
Flags: HW
HStem: 676 41<-345 -331> 820 43<-345 -331>
Fore
-334 676 m 0
 -334 676 l 0
 -453 676 -453 863 -334 863 c 0
 -216 863 -214 676 -334 676 c 0
-334 717 m 0
 -268 717 -268 820 -334 820 c 0
 -402 820 -402 717 -334 717 c 0
EndSplineSet
EndChar
StartChar: uni0E47.left
Encoding: 122 63250 121
OldEncoding: 154
Width: 0
Flags: HW
HStem: 745 55<-471 -462>
VStem: -375 32<743 755> -270 34<745 755>
Fore
-224 995 m 1
 -224 995 l 0
 -224 895 -271 837 -422 868 c 0
 -484 880 -527 882 -538 822 c 0
 -544 794 -535 763 -527 753 c 1
 -527 753 -519 800 -469 800 c 0
 -419 800 -397 746 -372 734 c 1
 -372 734 -375 740 -375 748 c 0
 -375 845 -236 843 -236 745 c 0
 -236 693 -274 668 -304 668 c 0
 -400 668 -413 745 -462 745 c 0
 -511 745 -504 684 -491 668 c 1
 -525 668 l 1
 -566 702 -598 773 -580 846 c 0
 -570 891 -527 952 -407 923 c 0
 -328 905 -287 911 -292 995 c 1
 -224 995 l 1
-270 745 m 0
 -270 797 -342 797 -342 745 c 0
 -342 696 -270 696 -270 745 c 0
EndSplineSet
EndChar
StartChar: uni0E48.left
Encoding: 123 63251 122
OldEncoding: 155
Width: 0
Flags: W
VStem: -337 72<1006 1226>
Fore
-265 1226 m 5
 -265 1006 l 1
 -337 1006 l 1
 -337 1226 l 1
 -265 1226 l 5
EndSplineSet
EndChar
StartChar: uni0E49.left
Encoding: 124 63252 123
OldEncoding: 156
Width: 0
Flags: HW
HStem: 1078 33<-358 -356> 1195 34<-358 -356>
Fore
-73 1229 m 1
 -73 1229 l 0
 -99 1052 -240 975 -416 997 c 1
 -416 1026 l 1
 -391 1034 -361 1049 -345 1081 c 1
 -345 1081 -353 1078 -358 1078 c 0
 -459 1078 -459 1229 -358 1229 c 0
 -282 1229 -281 1154 -281 1154 c 1
 -281 1072 -336 1035 -336 1035 c 1
 -336 1032 l 1
 -233 1038 -154 1098 -145 1229 c 1
 -73 1229 l 1
-358 1111 m 0
 -304 1111 -304 1195 -358 1195 c 0
 -415 1195 -415 1111 -358 1111 c 0
EndSplineSet
EndChar
StartChar: uni0E4A.left
Encoding: 125 63253 124
OldEncoding: 157
Width: 0
Flags: HW
VStem: -462 59<1058 1118> -331 30<1052 1065>
Fore
-76 1229 m 1
 -76 1229 l 0
 -69 1091 -142 1012 -257 995 c 1
 -257 1020 l 1
 -205 1054 -211 1161 -259 1175 c 1
 -314 1137 l 1
 -364 1175 l 1
 -400 1175 -426 1132 -421 1094 c 1
 -421 1094 -412 1126 -364 1126 c 0
 -328 1126 -301 1095 -301 1063 c 0
 -301 1023 -323 994 -364 994 c 0
 -424 994 -462 1046 -462 1118 c 0
 -462 1169 -415 1229 -364 1229 c 1
 -364 1229 -314 1183 -312 1183 c 2
 -260 1229 l 1
 -151 1200 -170 1097 -191 1054 c 1
 -136 1092 -121 1157 -137 1229 c 1
 -76 1229 l 1
-331 1058 m 0
 -331 1109 -402 1109 -402 1058 c 0
 -402 1011 -331 1011 -331 1058 c 0
EndSplineSet
EndChar
StartChar: uni0E4B.left
Encoding: 126 63254 125
OldEncoding: 158
Width: 0
Flags: HW
HStem: 1080 58<-431 -328 -270 -172>
VStem: -331 61<1140 1229>
DStem: -346 1140 -283 1140 -452 1138 -180 1138
Fore
-172 1081 m 1
 -271 1080 l 1
 -273 992 l 1
 -327 992 l 1
 -328 1080 l 1
 -431 1081 l 1
 -431 1138 l 1
 -330 1140 l 1
 -331 1229 l 1
 -268 1229 l 1
 -270 1140 l 1
 -172 1138 l 1
 -172 1081 l 1
EndSplineSet
MinimumDistance: x8,9 
EndChar
StartChar: uni0E4C.left
Encoding: 127 63255 126
OldEncoding: 159
Width: 0
Flags: HW
HStem: 923 29<-311 -299>
Fore
-95 1164 m 1
 -95 1164 l 0
 -128 1064 -276 1063 -268 1060 c 0
 -205 1031 -222 923 -300 923 c 0
 -347 923 -375 954 -375 997 c 0
 -375 1057 -330 1091 -262 1103 c 0
 -237 1107 -158 1140 -155 1193 c 1
 -95 1164 l 1
-301 952 m 0
 -248 952 -248 1035 -301 1035 c 0
 -355 1035 -355 952 -301 952 c 0
EndSplineSet
EndChar
StartChar: uni0E01
Encoding: 129 3585 128
OldEncoding: 161
Width: 574
Flags: HW
HStem: 0 21G<91 167 402 476> 392 44<93 255>
VStem: 91 76<0 341> 402 73<0 413>
Fore
476 0 m 1
 402 0 l 1
 402 407 l 2
 402 601 134 584 93 436 c 1
 255 436 l 1
 255 392 l 1
 245 392 210 392 208 392 c 0
 167 392 167 341 167 341 c 5
 167 0 l 1
 91 0 l 1
 91 324 l 2
 91 373 123 392 123 392 c 1
 43 392 l 1
 43 650 462 677 476 413 c 1
 476 0 l 1
EndSplineSet
EndChar
StartChar: uni0E02
Encoding: 130 3586 129
OldEncoding: 162
Width: 557
Flags: HW
HStem: -8 43<333 348> 319 33<113 119> 438 34<106 120> 547 51<148 164>
VStem: 224 76<90 468> 385 74<77 594>
Fore
460 594 m 4
 460 106 l 1
 460 106 l 0
 460 40 419 -8 342 -8 c 0
 274 -8 224 41 224 106 c 2
 224 453 l 2
 224 505 199 547 153 547 c 0
 103 547 69 513 68 453 c 1
 85 468 93 472 115 472 c 0
 216 470 211 319 117 319 c 0
 41 319 22 407 27 468 c 0
 32 539 79 598 162 598 c 0
 251 598 300 531 300 449 c 2
 300 78 l 2
 300 57 318 35 342 35 c 0
 366 35 385 58 385 77 c 2
 385 594 l 1
 460 594 l 4
115 352 m 0
 170 352 170 438 115 438 c 0
 62 438 62 352 115 352 c 0
EndSplineSet
EndChar
StartChar: uni0E03
Encoding: 131 3587 130
OldEncoding: 163
Width: 604
Flags: HW
HStem: -8 43<388 390> 280 32<107 113> 399 34<112 113>
VStem: 270 75<91 472> 431 74<77 530>
DStem: 114 524 114 593 184 452 184 515 258 591 257 524 184 515 184 452
Fore
505 594 m 5
 505 106 l 1
 505 106 l 0
 505 40 464 -8 388 -8 c 0
 319 -8 270 45 270 106 c 1
 272 461 l 1
 272 495 265 524 245 524 c 1
 175 452 l 1
 109 524 l 1
 79 524 57 482 65 413 c 1
 65 413 77 433 112 433 c 0
 211 433 210 280 110 280 c 0
 27 280 10 390 21 470 c 0
 31 545 71 581 109 593 c 1
 175 515 l 1
 246 591 l 1
 309 587 345 536 345 461 c 1
 345 78 l 1
 345 57 360 35 388 35 c 0
 415 35 431 58 431 77 c 2
 431 594 l 1
 505 594 l 5
112 312 m 0
 169 312 169 399 112 399 c 0
 55 399 58 312 112 312 c 0
EndSplineSet
EndChar
StartChar: uni0E04
Encoding: 132 3588 131
OldEncoding: 164
Width: 561
Flags: HW
HStem: 0 21G<96 172 393 465> 273 36<233 248> 407 37<233 248> 553 46<216 248>
VStem: 33 44<413 427> 96 -19<224 413> 96 75<0 231> 393 72<0 417>
Fore
243 309 m 0
 243 309 l 0
 308 309 308 407 243 407 c 0
 180 407 180 309 243 309 c 0
118 321 m 1
 129 376 161 444 240 444 c 0
 352 444 352 273 238 273 c 0
 202 273 181 301 181 301 c 1
 173 280 172 246 172 229 c 2
 172 0 l 1
 96 0 l 1
 96 224 l 2
 96 266 33 310 33 413 c 0
 33 519 123 599 236 599 c 4
 355 599 465 554 465 401 c 2
 465 0 l 1
 393 0 l 1
 393 401 l 2
 393 521 320 553 235 553 c 0
 142 553 77 479 77 413 c 0
 77 369 91 335 118 321 c 1
EndSplineSet
EndChar
StartChar: uni0E05
Encoding: 133 3589 132
OldEncoding: 165
Width: 560
Flags: HW
HStem: 0 21G<96 172 391 464> 273 36<237 249> 407 37<237 249>
VStem: 33 46<413 429> 96 -17<229 413> 96 75<0 240> 391 73<0 417>
DStem: 166 538 170 594 258 468 258 524 344 594 347 538 258 524 258 468
Fore
464 0 m 1
 391 0 l 1
 391 399 l 2
 391 458 394 504 331 538 c 1
 246 468 l 1
 158 538 l 1
 125 528 79 479 79 413 c 0
 79 366 95 335 120 321 c 1
 132 390 161 444 240 444 c 0
 352 444 352 273 238 273 c 0
 205 273 186 295 186 295 c 1
 175 287 172 267 172 240 c 2
 172 0 l 1
 96 0 l 1
 96 229 l 2
 96 272 33 316 33 413 c 0
 33 530 121 581 162 594 c 1
 246 524 l 1
 328 594 l 1
 363 588 464 551 464 399 c 2
 464 0 l 1
243 309 m 0
 308 309 308 407 243 407 c 0
 180 407 180 309 243 309 c 0
EndSplineSet
EndChar
StartChar: uni0E06
Encoding: 134 3590 133
OldEncoding: 166
Width: 721
Flags: HW
HStem: 0 21G<544 621> 280 32<111 117> 399 34<115 117> 574 20G<547 621>
VStem: 274 78<68 141 198 472> 547 73<77 594>
DStem: 118 524 118 593 189 452 189 515 263 591 261 524 189 515 189 452
Fore
274 68 m 0
 274 144 l 0
 216 149 207 75 235 51 c 1
 245 45 277 40 274 68 c 0
621 594 m 1
 621 0 l 1
 544 0 l 1
 469 134 352 141 352 141 c 1
 353 57 353 -8 271 -8 c 0
 139 -9 148 200 274 198 c 1
 276 461 l 1
 276 461 l 0
 276 495 270 524 249 524 c 1
 180 452 l 1
 113 524 l 1
 84 524 62 482 69 413 c 1
 69 413 82 433 115 433 c 0
 216 433 214 280 114 280 c 0
 31 280 14 390 25 470 c 0
 35 545 74 581 113 593 c 1
 180 515 l 1
 251 591 l 1
 314 587 352 536 352 461 c 1
 350 190 l 1
 350 190 476 170 547 77 c 1
 547 594 l 1
 621 594 l 1
115 312 m 0
 173 312 173 399 115 399 c 0
 60 399 63 312 115 312 c 0
EndSplineSet
EndChar
StartChar: uni0E07
Encoding: 135 3591 134
OldEncoding: 167
Width: 456
Flags: HW
HStem: 0 21G<281 360> 418 37<239 252> 556 38<239 252>
VStem: 284 76<98 432>
Fore
360 0 m 1
 281 0 l 1
 44 269 l 1
 46 326 l 1
 284 98 l 1
 284 432 l 1
 274 419 257 418 245 418 c 0
 125 418 125 594 252 594 c 0
 368 594 360 501 360 488 c 0
 360 487 360 0 360 0 c 1
241 455 m 0
 308 455 308 556 241 556 c 0
 175 556 175 455 241 455 c 0
EndSplineSet
EndChar
StartChar: uni0E08
Encoding: 136 3592 135
OldEncoding: 168
Width: 538
Flags: HW
HStem: -5 43<322 324> 276 40<170 177> 406 41<167 177> 544 54<232 245>
VStem: 205 74<95 286> 364 76<80 428>
Fore
441 109 m 1
 441 109 l 0
 441 43 399 -5 322 -5 c 0
 259 -5 205 48 205 109 c 2
 205 286 l 1
 194 280 183 276 170 276 c 0
 117 276 88 321 90 367 c 0
 93 413 125 447 175 447 c 0
 257 449 279 402 279 355 c 2
 279 81 l 2
 279 60 296 38 322 38 c 0
 350 38 364 61 364 80 c 2
 364 419 l 2
 364 495 309 544 232 544 c 0
 128 544 72 464 62 439 c 1
 31 453 l 1
 52 508 125 598 232 598 c 0
 358 598 441 533 441 413 c 2
 441 109 l 1
170 316 m 0
 227 316 227 406 170 406 c 0
 113 406 113 316 170 316 c 0
EndSplineSet
EndChar
StartChar: uni0E09
Encoding: 137 3593 136
OldEncoding: 169
Width: 586
Flags: HW
HStem: -8 40<445 447>
VStem: 169 72<0 292> 412 74<172 425>
Fore
486 181 m 0
 486 181 l 0
 486 169 472 164 472 164 c 1
 472 161 l 1
 551 141 551 -8 445 -8 c 0
 407 -8 381 15 369 54 c 0
 358 94 382 127 382 127 c 1
 278 106 245 14 240 0 c 1
 169 0 l 1
 169 240 l 1
 32 194 2 395 129 404 c 0
 216 410 241 361 241 292 c 2
 241 91 l 1
 248 89 l 1
 248 89 286 166 412 172 c 1
 412 415 l 2
 412 490 349 544 257 544 c 0
 156 544 88 464 76 439 c 1
 46 453 l 1
 151 677 486 622 486 416 c 2
 486 416 486 183 486 181 c 0
131 272 m 0
 131 272 l 0
 188 272 188 364 131 364 c 0
 73 364 73 272 131 272 c 0
445 32 m 0
 505 32 505 121 445 121 c 0
 388 121 388 32 445 32 c 0
EndSplineSet
EndChar
StartChar: uni0E0A
Encoding: 138 3594 137
OldEncoding: 170
Width: 556
Flags: HW
HStem: 0 49<161 352> 319 33<113 119> 438 34<105 118> 547 49<143 159>
VStem: 222 76<49 398 450 453> 222 158<421 421>
Fore
513 591 m 1xf8
 513 591 l 0
 481 447 381 421 381 421 c 1xf4
 500 387 504 -2 352 0 c 2
 161 0 l 1
 161 49 l 1
 222 49 l 1
 222 453 l 2
 222 502 204 547 145 547 c 0
 91 547 62 493 68 450 c 1
 79 467 96 472 117 472 c 0
 214 468 210 319 117 319 c 0
 47 319 19 393 25 465 c 0
 31 539 77 596 159 596 c 4
 301 596 299 450 299 450 c 1
 387 445 429 531 431 591 c 1
 513 591 l 1xf8
115 352 m 0
 115 352 l 0
 169 352 169 438 115 438 c 0
 58 438 58 352 115 352 c 0
350 387 m 1
 334 396 314 399 299 398 c 1
 299 49 l 1xf8
 339 49 l 2
 421 49 421 335 350 387 c 1
EndSplineSet
EndChar
StartChar: uni0E0B
Encoding: 139 3595 138
OldEncoding: 171
Width: 618
Flags: HW
HStem: 0 49<213 402> 280 32<111 117> 399 34<115 117>
VStem: 273 76<49 399> 273 158<422 422> 277 76<461 481>
DStem: 118 524 118 593 189 452 189 515 263 591 261 524 189 515 189 452 290 461 370 399 286 49 366 49
Fore
402 386 m 0xf0
 402 386 l 0
 383 395 372 399 353 399 c 1xe4
 349 49 l 1
 388 49 l 2
 467 51 473 333 402 386 c 0xf0
277 461 m 1
 277 461 l 0
 277 495 270 524 249 524 c 1
 180 452 l 1
 113 524 l 1
 84 524 62 482 69 413 c 1
 69 413 82 433 115 433 c 0
 216 433 214 280 114 280 c 0
 31 280 14 390 25 470 c 0
 35 545 74 581 113 593 c 1
 180 515 l 1
 251 591 l 1
 314 587 353 536 353 461 c 2
 353 450 l 1xe4
 445 445 479 531 481 591 c 1
 563 591 l 1
 536 456 431 422 431 422 c 1xe8
 547 379 554 -2 402 0 c 2
 213 0 l 1
 213 49 l 1
 273 49 l 1xf0
 277 461 l 1
115 312 m 0
 173 312 173 399 115 399 c 0
 60 399 63 312 115 312 c 0
EndSplineSet
EndChar
StartChar: uni0E0C
Encoding: 140 3596 139
OldEncoding: 172
Width: 777
Flags: HW
HStem: -8 39<179 196> 392 44<93 255> 574 20G<604 677>
VStem: 43 212<392 413> 91 76<109 329> 402 73<61 120 165 413> 604 73<94 594>
Fore
677 594 m 1xf6
 677 0 l 0
 602 0 l 0
 582 111 476 120 476 120 c 1
 476 52 470 -8 399 -8 c 0
 286 -8 293 170 402 166 c 1
 402 407 l 1
 402 604 134 582 93 436 c 1
 255 436 l 1
 255 392 l 1xf6
 245 392 210 392 208 392 c 0
 166 392 167 341 167 341 c 1
 167 338 167 154 167 154 c 1
 289 190 312 -8 189 -8 c 0
 112 -8 91 69 91 109 c 2
 91 324 l 2xee
 91 375 123 392 123 392 c 1
 43 392 l 1
 44 650 462 677 476 413 c 1
 476 163 l 1
 476 163 568 149 604 94 c 1
 604 594 l 1
 677 594 l 1xf6
402 61 m 0
 402 126 l 0
 356 131 336 71 366 41 c 1
 378 34 404 28 402 61 c 0
188 31 m 0
 248 31 248 121 188 121 c 0
 131 121 131 31 188 31 c 0
EndSplineSet
EndChar
StartChar: uni0E0D
Encoding: 141 3597 140
OldEncoding: 173
Width: 762
Flags: HW
HStem: -230 32<508 521> -8 37<506 532> 392 44<93 123 93 255> 574 20G<588 662>
VStem: 91 76<109 331> 377 73<98 413> 494 28<-113 -101> 588 73<98 594> 595 67<-119 -53>
Fore
662 594 m 1xff
 662 104 l 1
 662 104 l 0
 662 54 602 -8 517 -8 c 0
 435 -8 377 48 377 112 c 2
 377 407 l 1
 375 605 126 573 93 436 c 1
 255 436 l 1
 255 392 l 1
 245 392 210 392 208 392 c 0
 166 392 167 341 167 341 c 1
 167 338 167 154 167 154 c 1
 303 204 327 -2 202 -8 c 0
 110 -12 91 69 91 109 c 2
 91 324 l 2
 91 375 123 392 123 392 c 1
 43 392 l 1
 50 650 434 676 450 413 c 1
 450 101 l 2
 450 61 478 29 519 29 c 0
 561 29 588 60 588 100 c 2
 588 594 l 1
 662 594 l 1xff
662 -108 m 1xfe80
 662 -108 l 0
 662 -155 623 -230 508 -230 c 0
 396 -230 381 -140 382 -112 c 0
 383 -84 400 -38 460 -38 c 0
 500 -38 522 -68 522 -108 c 0
 522 -140 494 -169 460 -169 c 0
 443 -169 434 -163 424 -157 c 1
 437 -180 464 -198 508 -198 c 0
 560 -198 595 -152 595 -106 c 2
 595 -52 l 1
 662 -52 l 1
 662 -108 l 1xfe80
202 32 m 0
 202 32 l 0
 262 32 262 121 202 121 c 0
 145 121 145 32 202 32 c 0
494 -103 m 0
 494 -54 422 -54 422 -103 c 0
 422 -154 494 -154 494 -103 c 0
EndSplineSet
Substitution: 0 65534 'nds0' uni0E0D.descless
Substitution: 0 65534 'ndsc' uni0E0D.descless
EndChar
StartChar: uni0E0E
Encoding: 142 3598 141
OldEncoding: 174
Width: 583
Flags: HW
HStem: -212 43<175 186> -8 40<95 103> 392 44<101 132 101 265>
VStem: 77 43<-126 -124> 101 74<162 341> 412 74<-160 416>
AnchorPoint: "BelowBase" 486.341 -245.76 basechar 0
Fore
486 -241 m 5xec
 412 -241 l 0
 407 -217 356 -141 290 -111 c 1
 290 -111 259 -212 175 -212 c 0xec
 120 -212 77 -183 77 -126 c 0xf4
 77 -61 159 -14 260 -55 c 1
 260 -55 276 -3 311 12 c 1
 345 -5 l 1
 306 -34 300 -69 300 -69 c 1
 377 -97 412 -160 412 -160 c 1
 412 407 l 2
 412 601 142 585 101 436 c 1
 265 436 l 1
 265 392 l 1
 219 392 l 2
 175 392 175 341 175 341 c 1
 175 80 l 2
 175 25 140 -8 95 -8 c 0
 -13 -8 -11 169 101 163 c 1
 101 332 l 2
 101 378 132 392 132 392 c 1
 52 392 l 1
 58 664 486 667 486 407 c 2
 486 -241 l 5xec
95 32 m 0
 95 32 l 0
 153 32 153 121 95 121 c 0
 38 121 38 32 95 32 c 0
251 -95 m 1
 226 -86 200 -83 180 -83 c 0
 150 -83 120 -94 120 -126 c 0xf4
 120 -163 154 -169 175 -169 c 0
 221 -169 243 -121 251 -95 c 1
EndSplineSet
EndChar
StartChar: uni0E0F
Encoding: 143 3599 142
OldEncoding: 175
Width: 583
Flags: HW
HStem: -111 43<77 87> -8 40<95 103> 392 44<101 134 101 265>
VStem: -21 42<-164 -144> 101 74<162 341> 412 74<-155 416>
AnchorPoint: "BelowBase" 486.341 -245.76 basechar 0
Fore
95 32 m 0
 95 32 l 0
 153 32 153 121 95 121 c 0
 38 121 38 32 95 32 c 0
131 -129 m 0
 131 -129 l 0
 113 -117 93 -111 77 -111 c 0
 30 -111 21 -135 21 -154 c 0
 21 -174 33 -201 73 -198 c 0
 104 -195 115 -164 131 -129 c 0
148 -89 m 1
 161 -63 180 -40 213 -26 c 1
 240 -54 l 1
 213 -66 195 -89 183 -115 c 1
 208 -137 229 -164 237 -187 c 1
 271 -103 361 -92 412 -155 c 1
 412 407 l 2
 412 601 142 585 101 436 c 1
 265 436 l 1
 265 392 l 1
 219 392 l 2
 175 392 175 341 175 341 c 1
 175 80 l 2
 175 25 140 -8 95 -8 c 0
 -13 -8 -13 169 101 163 c 1
 101 332 l 2
 101 381 134 392 134 392 c 1
 52 392 l 1
 58 664 486 667 486 407 c 2
 486 -241 l 5
 416 -241 l 1
 381 -137 284 -137 257 -240 c 1
 214 -240 l 1
 210 -210 189 -180 164 -157 c 1
 145 -197 126 -233 74 -240 c 0
 2 -247 -21 -186 -21 -155 c 0
 -21 -95 27 -68 77 -68 c 0
 101 -68 125 -75 148 -89 c 1
EndSplineSet
EndChar
StartChar: uni0E10
Encoding: 144 3600 143
OldEncoding: 176
Width: 484
Flags: HW
HStem: -276 53<204 339> -233 35<76 84> -186 29<289 311> -83 37<289 291> -8 43<278 286> 190 39<122 141> 319 39<122 141>
VStem: 170 72<91 270> 311 77<-203 -131>
DStem: 28 439 81 472 301 370 358 401
Fore
431 571 m 0x3f80
 431 571 l 0
 400 461 295 490 277 496 c 0
 144 541 103 536 77 472 c 1
 341 401 l 1
 356 393 388 392 388 332 c 2
 388 106 l 2
 388 41 353 -8 278 -8 c 0
 216 -8 170 45 170 106 c 2
 170 198 l 1
 158 192 147 190 132 190 c 0
 80 190 50 232 52 280 c 1
 55 324 85 358 132 358 c 0
 208 359 241 319 241 270 c 2
 241 78 l 2
 241 58 254 35 278 35 c 0
 303 35 315 58 315 77 c 2
 315 321 l 2
 315 353 309 364 287 370 c 2
 27 439 l 1
 38 478 71 598 175 594 c 0
 240 594 368 527 418 582 c 0
 426 591 435 587 431 571 c 0x3f80
388 -218 m 1
 388 -218 l 0
 388 -243 378 -276 339 -276 c 2
 166 -276 l 1xbf80
 166 -226 l 2
 166 -198 162 -175 142 -149 c 1
 144 -161 145 -233 76 -233 c 0x7f80
 46 -233 24 -214 14 -178 c 0
 5 -134 39 -81 109 -97 c 1
 109 -97 107 -72 117 -57 c 1
 151 -61 l 1
 134 -81 145 -111 145 -111 c 1
 207 -135 205 -223 205 -223 c 1
 284 -223 l 2xbf80
 295 -223 311 -215 311 -201 c 2
 311 -186 l 1
 308 -186 300 -194 279 -192 c 0
 196 -184 200 -45 289 -46 c 0
 347 -46 382 -75 388 -131 c 1
 388 -218 l 1
132 229 m 0
 132 229 l 0
 189 229 189 319 132 319 c 0
 76 319 76 229 132 229 c 0
289 -157 m 0
 289 -157 l 0
 334 -157 334 -83 289 -83 c 0
 240 -83 240 -157 289 -157 c 0
109 -132 m 1
 109 -132 88 -127 73 -127 c 0
 32 -132 33 -198 76 -198 c 0x7f80
 98 -198 115 -170 109 -132 c 1
EndSplineSet
KernsSLIF: 177 44 1 0 181 44 1 0 182 44 1 0 183 44 1 0 180 44 1 0
Substitution: 0 65534 'nds0' uni0E10.descless
Substitution: 0 65534 'ndsc' uni0E10.descless
EndChar
StartChar: uni0E11
Encoding: 145 3601 144
OldEncoding: 177
Width: 743
Flags: HW
HStem: 0 21G<274 345 568 643> 280 32<111 117> 399 34<115 117>
VStem: 274 76<184 462> 568 74<0 464>
DStem: 118 524 118 593 189 452 189 515 263 591 261 524 189 515 189 452 290 461 370 461 287 0 367 184 450 498 484 482 367 184 362 0
Fore
276 461 m 1
 276 461 l 0
 276 495 270 524 249 524 c 1
 180 452 l 1
 113 524 l 1
 84 524 62 482 69 413 c 1
 69 413 82 433 115 433 c 0
 216 433 214 280 114 280 c 0
 31 280 14 390 25 470 c 0
 35 545 74 581 113 593 c 1
 180 515 l 1
 251 591 l 1
 314 587 352 536 352 461 c 1
 350 347 l 1
 429 498 l 2
 497 627 652 617 643 464 c 1
 643 0 l 1
 568 0 l 1
 568 468 l 1
 574 550 493 544 462 482 c 2
 375 312 l 2
 359 275 349 223 349 216 c 2
 349 0 l 5
 274 0 l 1
 276 461 l 1
115 312 m 0
 173 312 173 399 115 399 c 0
 60 399 63 312 115 312 c 0
EndSplineSet
EndChar
StartChar: uni0E12
Encoding: 146 3602 145
OldEncoding: 178
Width: 763
Flags: HW
HStem: 0 21G<96 172 586 662> 257 36<233 240> 395 40<236 246> 574 20G<587 662>
VStem: 35 45<384 408> 96 -16<94 384> 96 75<0 86> 387 74<62 151 196 409> 587 74<88 594>
DStem: 167 538 172 594 260 468 260 524 346 594 349 538 260 524 260 468
Fore
236 293 m 0
 236 293 l 0
 301 293 301 395 236 395 c 0
 175 395 175 293 236 293 c 0
387 63 m 0
 387 151 l 0
 347 152 330 72 358 49 c 0
 366 43 390 37 387 63 c 0
662 594 m 1
 662 0 l 1
 586 0 l 1
 579 58 506 131 462 151 c 1
 462 127 462 86 462 81 c 0
 462 32 448 -8 383 -8 c 0
 262 -8 271 190 387 197 c 1
 387 401 l 2
 387 482 377 515 333 538 c 1
 248 468 l 1
 159 538 l 1
 120 519 80 475 80 384 c 0
 80 359 98 301 115 272 c 1
 158 192 153 175 156 166 c 1
 172 200 254 257 240 257 c 0
 181 257 153 298 153 346 c 0
 153 358 161 433 236 435 c 0
 308 435 356 372 317 283 c 0
 279 206 180 169 172 86 c 1
 172 0 l 1
 96 0 l 1
 96 94 l 2
 96 220 35 298 35 384 c 0
 35 531 117 578 164 594 c 1
 248 524 l 1
 330 594 l 1
 381 582 462 547 462 396 c 2
 462 194 l 1
 462 194 557 158 587 88 c 1
 587 594 l 1
 662 594 l 1
EndSplineSet
EndChar
StartChar: uni0E13
Encoding: 147 3603 146
OldEncoding: 179
Width: 762
Flags: HW
HStem: -8 40<626 628> 0 101<450 451> 392 44<93 125 93 255> 574 20G<587 662>
VStem: 43 212<392 409> 91 76<109 335> 374 76<0 416> 587 74<169 594>
Fore
662 594 m 1x7b
 662 181 l 0
 662 181 l 0
 662 169 650 160 650 160 c 1
 728 140 727 -8 626 -8 c 0xbb
 585 -8 557 14 547 52 c 1
 535 94 563 132 563 132 c 1
 482 118 456 18 451 0 c 1
 374 0 l 1
 374 410 l 2
 374 607 121 570 93 436 c 1
 255 436 l 1
 255 392 l 1x7b
 245 392 210 392 208 392 c 0
 166 392 167 335 167 335 c 1
 167 332 167 155 167 155 c 1
 303 203 327 -2 202 -8 c 0
 110 -12 91 69 91 109 c 2
 91 326 l 2xb7
 91 376 125 392 125 392 c 1
 43 392 l 1
 49 645 434 679 450 416 c 1
 450 101 l 1
 450 101 491 177 587 169 c 1
 587 594 l 1
 662 594 l 1x7b
626 32 m 0
 626 32 l 0
 683 32 683 121 626 121 c 0
 566 121 566 32 626 32 c 0
202 32 m 0
 262 32 262 121 202 121 c 0
 145 121 145 32 202 32 c 0
EndSplineSet
KernsSLIF: 186 -44 1 0 185 -44 1 0 184 -44 1 0 177 -44 1 0 181 -44 1 0 182 -44 1 0 183 -44 1 0 180 -44 1 0
EndChar
StartChar: uni0E14
Encoding: 148 3604 147
OldEncoding: 180
Width: 580
Flags: HW
HStem: 0 21G<109 181 410 484> 273 36<246 260> 409 40<257 267> 551 47<257 278>
VStem: 49 45<384 405> 109 -15<94 384> 109 72<0 86> 410 73<0 417>
Fore
484 0 m 1
 410 0 l 1
 410 396 l 2
 410 476 369 551 257 551 c 0
 200 551 93 516 93 384 c 0
 93 307 155 244 170 166 c 1
 185 203 273 273 260 273 c 0
 180 272 172 343 172 361 c 0
 172 378 180 447 257 449 c 0
 325 450 375 384 334 296 c 0
 299 220 192 169 181 86 c 1
 181 0 l 1
 109 0 l 1
 109 94 l 2
 109 220 49 298 49 384 c 0
 49 533 170 598 257 598 c 4
 295 598 484 594 484 396 c 2
 484 0 l 1
257 309 m 0
 320 309 320 409 257 409 c 0
 191 409 191 309 257 309 c 0
EndSplineSet
EndChar
StartChar: uni0E15
Encoding: 149 3605 148
OldEncoding: 181
Width: 580
Flags: HW
HStem: 0 21G<109 181 410 484> 293 21G<217 281> 395 40<249 260>
VStem: 49 45<384 405> 109 -15<94 385> 410 73<0 418>
DStem: 186 538 190 594 278 468 278 524 364 594 367 538 278 524 278 468
Fore
484 0 m 1
 410 0 l 1
 410 416 l 2
 410 496 390 515 350 538 c 1
 265 468 l 1
 177 538 l 1
 144 528 93 475 93 384 c 0
 93 359 110 301 128 272 c 0
 172 192 172 166 175 174 c 0
 189 203 260 258 249 258 c 0
 173 258 161 326 161 347 c 0
 161 370 175 433 249 435 c 0
 318 435 366 372 327 283 c 0
 292 206 192 157 181 74 c 1
 181 0 l 1
 109 0 l 1
 109 94 l 2
 109 220 49 298 49 384 c 0
 49 527 131 574 181 594 c 1
 265 524 l 1
 347 594 l 1
 397 584 484 542 484 396 c 2
 484 0 l 1
249 293 m 0
 314 293 314 395 249 395 c 0
 185 395 185 293 249 293 c 0
EndSplineSet
EndChar
StartChar: uni0E16
Encoding: 150 3606 149
OldEncoding: 182
Width: 574
Flags: HW
HStem: 0 21G<402 475> 392 44<91 121 91 254>
VStem: 90 76<109 335> 402 73<0 416>
Fore
475 0 m 1
 402 0 l 1
 402 410 l 1
 399 607 126 579 91 436 c 1
 254 436 l 1
 254 392 l 1
 243 392 208 392 207 392 c 0
 164 392 166 335 166 335 c 1
 166 332 166 155 166 155 c 1
 304 203 325 -2 202 -8 c 0
 109 -12 90 69 90 109 c 2
 90 326 l 2
 90 375 121 392 121 392 c 1
 41 392 l 1
 43 650 459 676 475 416 c 1
 475 0 l 1
202 32 m 0
 260 32 260 121 202 121 c 0
 144 121 144 32 202 32 c 0
EndSplineSet
EndChar
StartChar: uni0E17
Encoding: 151 3607 150
OldEncoding: 183
Width: 624
Flags: W
HStem: 0 21G<158 232 453 525> 418 37<112 127> 556 38<112 127>
VStem: 158 74<0 225 0 492> 453 72<0 467>
DStem: 322 498 357 476 232 347 263 312
Fore
525 0 m 1
 453 0 l 1
 453 472 l 1
 457 551 388 537 357 476 c 2
 263 312 l 6
 245 275 233 240 233 216 c 2
 232 0 l 1
 158 0 l 1
 158 425 l 1
 147 418 131 418 118 418 c 0
 6 418 2 594 125 594 c 0
 238 594 232 502 232 492 c 2
 232 347 l 1
 322 498 l 2
 390 628 536 621 525 467 c 1
 525 0 l 1
117 455 m 0
 181 455 181 556 117 556 c 0
 52 556 52 455 117 455 c 0
EndSplineSet
EndChar
StartChar: uni0E18
Encoding: 152 3608 151
OldEncoding: 184
Width: 484
Flags: HW
HStem: 0 45<50 292>
VStem: 93 74<45 364> 315 73<106 337>
DStem: 28 439 81 472 301 370 358 401
Fore
315 321 m 2
 315 353 309 364 287 370 c 2
 27 439 l 1
 38 478 71 598 175 594 c 0
 240 594 368 527 418 582 c 0
 426 591 435 587 431 571 c 0
 400 461 295 490 277 496 c 0
 144 541 103 536 77 472 c 1
 341 401 l 1
 356 393 388 392 388 332 c 2
 388 108 l 2
 388 35 353 0 292 0 c 2
 50 0 l 1
 50 45 l 1
 93 45 l 1
 93 364 l 1
 167 364 l 1
 167 45 l 1
 238 45 l 2
 290 45 315 66 315 114 c 2
 315 321 l 2
EndSplineSet
EndChar
StartChar: uni0E19
Encoding: 153 3609 152
OldEncoding: 185
Width: 632
Flags: HW
HStem: -8 40<473 490> 131 41<412 446> 418 38<105 115 115 117 115 125> 558 40<107 125>
VStem: 158 73<0 427> 446 75<172 594>
Fore
522 594 m 1
 522 186 l 0
 522 186 l 0
 522 172 505 163 505 163 c 1
 586 138 582 -8 479 -8 c 0
 441 -8 413 15 402 54 c 0
 390 97 416 131 416 131 c 1
 289 132 235 15 227 0 c 1
 158 0 l 1
 158 427 l 1
 147 418 131 418 117 418 c 0
 5 415 0 598 123 598 c 0
 238 598 232 504 232 493 c 0
 232 492 232 77 232 77 c 1
 232 77 279 175 446 172 c 1
 446 594 l 1
 522 594 l 1
115 456 m 0
 115 456 l 0
 180 456 180 558 115 558 c 0
 50 558 50 456 115 456 c 0
481 32 m 0
 541 32 541 121 481 121 c 0
 423 121 423 32 481 32 c 0
EndSplineSet
KernsSLIF: 186 -44 1 0 185 -44 1 0 184 -44 1 0 177 -44 1 0 181 -44 1 0 182 -44 1 0 183 -44 1 0 180 -44 1 0
EndChar
StartChar: uni0E1A
Encoding: 154 3610 153
OldEncoding: 186
Width: 618
Flags: HW
HStem: 0 45<106 421> 418 38<104 127> 558 38<113 127>
VStem: 158 73<45 425> 445 73<117 594>
Fore
519 594 m 1
 520 106 l 0
 520 106 l 0
 523 66 498 0 421 0 c 2
 106 0 l 1
 106 45 l 1
 158 45 l 1
 158 425 l 1
 151 421 131 418 118 418 c 0
 -2 418 -2 596 125 596 c 0
 238 596 232 504 232 493 c 0
 232 492 232 45 232 45 c 1
 381 45 l 2
 413 45 448 66 445 118 c 1
 445 594 l 1
 519 594 l 1
115 456 m 0
 180 456 180 558 115 558 c 0
 50 558 50 456 115 456 c 0
EndSplineSet
EndChar
StartChar: uni0E1B
Encoding: 155 3611 154
OldEncoding: 187
Width: 634
Flags: HW
HStem: 0 45<106 435> 418 38<104 127> 558 38<113 127>
VStem: 158 73<45 425> 460 75<117 974>
AnchorPoint: "AboveBase" 367.686 645.12 basechar 0
Fore
535 974 m 1
 535 106 l 0
 535 106 l 0
 538 66 513 0 435 0 c 2
 106 0 l 1
 106 45 l 1
 158 45 l 1
 158 425 l 1
 151 421 131 418 118 418 c 0
 -2 418 -2 596 125 596 c 0
 238 596 232 504 232 493 c 0
 232 492 232 45 232 45 c 1
 396 45 l 2
 428 45 463 66 460 118 c 1
 460 974 l 1
 535 974 l 1
115 456 m 0
 180 456 180 558 115 558 c 0
 50 558 50 456 115 456 c 0
EndSplineSet
EndChar
StartChar: uni0E1C
Encoding: 156 3612 155
OldEncoding: 188
Width: 618
Flags: HW
HStem: 0 21G<88 164 445 520> 574 20G<445 520>
VStem: 88 76<0 33 0 433> 445 74<0 594>
DStem: 319 316 319 401 455 58 467 118 319 401 319 316 172 115 183 58 319 316 319 401 455 58 467 118 319 401 319 316 172 115 183 58 319 316 319 401 455 58 467 118 319 401 319 316 172 115 183 58 319 316 319 401 455 58 467 118 319 401 319 316 172 115 183 58 319 316 319 401 455 58 467 118 319 401 319 316 172 115 183 58 319 316 319 401 455 58 467 118 319 401 319 316 172 115 183 58 319 316 319 401 455 58 467 118 319 401 319 316 172 115 183 58 319 316 319 401 455 58 467 118 319 401 319 316 172 115 183 58 319 316 319 401 455 58 467 118 319 401 319 316 172 115 183 58 319 316 319 401 455 58 467 118 319 401 319 316 172 115 183 58 319 316 319 401 455 58 467 118 319 401 319 316 172 115 183 58 319 316 319 401 455 58 467 118 319 401 319 316 172 115 183 58 319 316 319 401 455 58 467 118 319 401 319 316 172 115 183 58 319 316 319 401 455 58 467 118 319 401 319 316 172 115 183 58 319 316 319 401 455 58 467 118 319 401 319 316 172 115 183 58
Fore
520 594 m 1
 520 0 l 1
 445 0 l 1
 445 22 l 2
 445 43 437 51 434 58 c 1
 304 316 l 1
 175 58 l 1
 172 51 164 45 164 22 c 6
 164 0 l 1
 88 0 l 1
 88 490 l 2
 88 535 114 598 208 594 c 0
 328 590 304 379 164 433 c 1
 164 115 l 1
 304 401 l 1
 445 118 l 1
 445 594 l 1
 520 594 l 1
208 462 m 0
 270 462 270 559 208 559 c 0
 144 559 144 462 208 462 c 0
EndSplineSet
EndChar
StartChar: uni0E1D
Encoding: 157 3613 156
OldEncoding: 189
Width: 634
Flags: HW
HStem: 0 21G<88 164 460 535>
VStem: 88 76<0 19 0 433> 460 75<0 974>
DStem: 327 326 327 407 470 54 482 118 327 407 327 326 172 117 183 54 327 326 327 407 470 54 482 118 327 407 327 326 172 117 183 54 327 326 327 407 470 54 482 118 327 407 327 326 172 117 183 54 327 326 327 407 470 54 482 118 327 407 327 326 172 117 183 54 327 326 327 407 470 54 482 118 327 407 327 326 172 117 183 54 327 326 327 407 470 54 482 118 327 407 327 326 172 117 183 54 327 326 327 407 470 54 482 118 327 407 327 326 172 117 183 54 327 326 327 407 470 54 482 118 327 407 327 326 172 117 183 54 327 326 327 407 470 54 482 118 327 407 327 326 172 117 183 54 327 326 327 407 470 54 482 118 327 407 327 326 172 117 183 54 327 326 327 407 470 54 482 118 327 407 327 326 172 117 183 54 327 326 327 407 470 54 482 118 327 407 327 326 172 117 183 54 327 326 327 407 470 54 482 118 327 407 327 326 172 117 183 54 327 326 327 407 470 54 482 118 327 407 327 326 172 117 183 54 327 326 327 407 470 54 482 118 327 407 327 326 172 117 183 54 327 326 327 407 470 54 482 118 327 407 327 326 172 117 183 54
AnchorPoint: "AboveBase" 367.686 645.12 basechar 0
Fore
535 974 m 1
 535 0 l 1
 460 0 l 1
 460 17 l 2
 460 38 451 46 448 54 c 1
 312 326 l 1
 175 54 l 1
 172 46 164 40 164 17 c 2
 164 0 l 1
 88 0 l 1
 88 490 l 2
 88 535 114 598 208 594 c 0
 328 590 304 379 164 433 c 1
 164 117 l 1
 312 407 l 1
 460 118 l 1
 460 974 l 1
 535 974 l 1
208 462 m 0
 270 462 270 559 208 559 c 0
 144 559 144 462 208 462 c 0
EndSplineSet
EndChar
StartChar: uni0E1E
Encoding: 158 3614 157
OldEncoding: 190
Width: 689
Flags: HW
HStem: 0 21G<159 237 511 590> 416 39<109 128> 556 38<115 128>
VStem: 159 73<0 424> 517 73<115 594>
DStem: 379 588 393 490 244 115 249 0 393 490 407 588 536 0 542 115
Fore
590 594 m 1
 590 0 l 1
 511 0 l 1
 375 490 l 1
 237 0 l 1
 159 0 l 1
 159 424 l 1
 153 419 132 416 120 416 c 0
 6 416 3 594 126 594 c 0
 240 594 233 502 233 492 c 0
 233 490 233 115 233 115 c 1
 361 588 l 1
 388 588 l 1
 517 115 l 1
 517 594 l 1
 590 594 l 1
117 455 m 0
 181 455 181 556 117 556 c 0
 52 556 52 455 117 455 c 0
EndSplineSet
EndChar
StartChar: uni0E1F
Encoding: 159 3615 158
OldEncoding: 191
Width: 689
Flags: HW
HStem: 0 21G<159 237 511 590> 416 39<109 128> 556 38<115 128>
VStem: 159 73<0 424> 517 73<111 974>
DStem: 379 591 393 490 244 111 249 0 393 490 407 591 536 0 542 111
AnchorPoint: "AboveBase" 423.352 645.12 basechar 0
Fore
591 974 m 0
 590 0 l 1
 511 0 l 1
 375 490 l 1
 237 0 l 1
 159 0 l 1
 159 424 l 1
 153 419 132 416 120 416 c 0
 6 416 3 594 126 594 c 0
 240 594 233 502 233 492 c 0
 233 490 233 111 233 111 c 1
 361 591 l 1
 388 591 l 1
 517 111 l 1
 517 974 l 1
 591 974 l 0
117 455 m 0
 181 455 181 556 117 556 c 0
 52 556 52 455 117 455 c 0
EndSplineSet
EndChar
StartChar: uni0E20
Encoding: 160 3616 159
OldEncoding: 192
Width: 590
Flags: HW
HStem: -5 40<117 128> 392 44<107 154 107 274>
VStem: 123 73<165 341> 418 74<0 416>
Fore
492 0 m 0
 418 0 l 1
 418 410 l 2
 418 602 144 581 107 436 c 1
 274 436 l 1
 274 392 l 1
 238 392 l 2
 195 392 196 341 196 341 c 1
 196 83 l 2
 196 28 161 -5 117 -5 c 0
 9 -5 8 172 123 166 c 1
 123 332 l 2
 123 379 154 392 154 392 c 1
 57 392 l 1
 58 651 478 676 492 416 c 1
 492 416 492 37 492 0 c 0
117 35 m 0
 175 35 175 124 117 124 c 0
 57 124 57 35 117 35 c 0
EndSplineSet
EndChar
StartChar: uni0E21
Encoding: 161 3617 160
OldEncoding: 193
Width: 616
Flags: HW
HStem: 0 21G<441 517> 416 39<108 127> 556 38<113 127>
VStem: 158 73<209 424> 443 73<80 594>
Fore
517 594 m 1
 517 0 l 0
 441 0 l 0
 369 127 233 147 233 147 c 1
 236 51 233 -5 153 -5 c 0
 16 -6 24 210 158 209 c 1
 158 424 l 1
 150 418 131 416 118 416 c 0
 6 416 2 594 125 594 c 0
 238 594 232 502 232 492 c 0
 232 490 232 203 232 203 c 1
 232 203 359 174 443 80 c 1
 443 594 l 5
 517 594 l 1
517 551 m 0
115 455 m 0
 115 455 l 0
 180 455 180 556 115 556 c 0
 50 556 50 455 115 455 c 0
158 68 m 1
 158 157 l 1
 87 167 84 72 118 49 c 1
 129 45 159 38 158 68 c 1
EndSplineSet
EndChar
StartChar: uni0E22
Encoding: 162 3618 161
OldEncoding: 194
Width: 553
Flags: HW
HStem: -8 54<254 286> 309 41<223 254> 562 36<202 210>
VStem: 82 74<144 229> 381 73<135 594>
Fore
454 594 m 1
 454 154 l 1
 454 154 l 0
 454 52 381 -8 271 -8 c 0
 162 -8 82 52 82 158 c 2
 82 158 82 227 82 229 c 0
 87 287 120 313 153 324 c 1
 120 327 91 358 84 379 c 0
 69 422 68 470 82 510 c 0
 103 567 136 598 202 598 c 0
 311 598 312 425 202 422 c 0
 167 422 153 436 153 436 c 1
 151 389 177 350 226 350 c 2
 254 350 l 1
 254 309 l 1
 227 309 l 2
 186 309 156 276 156 232 c 2
 156 152 l 2
 156 86 204 46 273 46 c 0
 344 46 381 83 381 146 c 0
 381 151 381 605 381 594 c 1
 454 594 l 1
202 461 m 0
 268 461 268 562 202 562 c 0
 137 562 137 461 202 461 c 0
EndSplineSet
EndChar
StartChar: uni0E23
Encoding: 163 3619 162
OldEncoding: 195
Width: 440
Flags: HW
HStem: -3 38<212 221> 138 37<216 221>
VStem: 255 73<163 367>
DStem: 31 442 80 472 241 387 295 416
Fore
402 576 m 0
 402 576 l 0
 375 468 277 501 274 502 c 0
 145 544 104 542 76 472 c 1
 281 416 l 2
 295 413 328 399 328 367 c 2
 328 101 l 2
 328 89 337 -3 219 -3 c 0
 96 -3 104 177 216 175 c 0
 227 175 243 174 255 163 c 1
 255 344 l 1
 257 364 255 381 230 387 c 2
 30 442 l 1
 39 476 76 594 175 594 c 0
 246 594 341 531 387 588 c 0
 394 596 405 594 402 576 c 0
216 35 m 0
 279 35 279 138 216 138 c 0
 150 138 150 35 216 35 c 0
EndSplineSet
KernsSLIF: 177 44 1 0 181 44 1 0 182 44 1 0 183 44 1 0 180 44 1 0
EndChar
StartChar: uni0E24
Encoding: 164 3620 163
OldEncoding: 196
Width: 569
Flags: HW
HStem: 392 44<91 120 91 252>
VStem: 88 76<112 333> 399 74<-240 417>
Fore
399 -240 m 0
 399 410 l 2
 399 601 131 582 91 436 c 1
 252 436 l 1
 252 392 l 1
 241 392 207 392 205 392 c 0
 162 392 164 333 164 333 c 1
 164 330 164 158 164 158 c 1
 301 204 323 2 199 -5 c 0
 107 -9 88 72 88 112 c 2
 88 324 l 2
 88 373 120 392 120 392 c 1
 41 392 l 1
 47 660 473 670 473 410 c 2
 473 -240 l 5
 399 -240 l 0
199 35 m 0
 259 35 259 124 199 124 c 0
 142 124 142 35 199 35 c 0
EndSplineSet
EndChar
StartChar: uni0E25
Encoding: 165 3621 164
OldEncoding: 197
Width: 552
Flags: HW
HStem: 0 21G<381 454> 401 49<245 265>
VStem: 80 75<108 300> 381 73<0 433>
Fore
454 0 m 1
 381 0 l 1
 381 289 l 2
 381 353 330 401 265 401 c 0
 196 401 155 347 155 289 c 2
 155 158 l 1
 293 206 315 2 192 -5 c 0
 109 -8 80 66 80 108 c 2
 80 293 l 2
 80 372 147 450 245 450 c 0
 334 450 382 395 382 395 c 1
 391 521 293 539 241 539 c 0
 167 539 98 505 57 444 c 1
 31 467 l 1
 167 685 454 602 454 433 c 2
 454 0 l 1
188 32 m 0
 251 32 251 129 188 129 c 0
 125 129 125 32 188 32 c 0
EndSplineSet
EndChar
StartChar: uni0E26
Encoding: 166 3622 165
OldEncoding: 198
Width: 582
Flags: HW
HStem: -5 40<95 105> 392 44<103 265>
VStem: 101 74<165 335> 412 74<-240 417>
Fore
412 -240 m 0
 412 410 l 2
 412 604 137 579 103 436 c 1
 265 436 l 1
 265 392 l 1
 219 392 l 2
 175 392 175 335 175 335 c 1
 175 83 l 2
 175 28 140 -5 95 -5 c 0
 -19 -5 -19 172 101 166 c 1
 101 326 l 2
 101 375 134 392 134 392 c 1
 52 392 l 1
 57 659 486 670 486 410 c 2
 486 -240 l 5
 412 -240 l 0
95 35 m 0
 153 35 153 124 95 124 c 0
 38 124 38 35 95 35 c 0
EndSplineSet
EndChar
StartChar: uni0E27
Encoding: 167 3623 166
OldEncoding: 199
Width: 481
Flags: HW
HStem: -5 36<260 278> 131 35<263 278> 545 53<184 207>
VStem: 308 74<155 444>
Fore
382 118 m 1
 382 118 l 0
 382 41 353 -5 263 -5 c 0
 219 -5 186 32 185 77 c 0
 183 124 213 164 263 166 c 0
 284 166 293 163 308 155 c 1
 308 438 l 2
 308 502 252 545 189 545 c 0
 106 545 62 484 52 470 c 1
 17 479 l 1
 22 502 77 598 207 598 c 0
 298 598 382 531 382 438 c 2
 382 118 l 1
267 31 m 0
 331 31 331 131 267 131 c 0
 204 131 204 31 267 31 c 0
EndSplineSet
EndChar
StartChar: uni0E28
Encoding: 168 3624 167
OldEncoding: 200
Width: 561
Flags: HW
HStem: 0 21G<96 172 393 465> 273 36<233 248> 407 37<233 248> 553 46<216 248>
VStem: 33 44<413 427> 96 -19<224 413> 96 75<0 231> 393 72<0 417>
Fore
243 309 m 0
 243 309 l 0
 308 309 308 407 243 407 c 0
 180 407 180 309 243 309 c 0
380 473 m 0
 380 473 l 0
 356 535 299 553 235 553 c 0
 142 553 77 479 77 413 c 0
 77 369 91 335 118 321 c 1
 129 376 161 444 240 444 c 0
 270 444 292 432 304 415 c 1
 330 427 356 447 380 473 c 0
453 482 m 1
 462 461 465 433 465 401 c 2
 465 0 l 1
 393 0 l 1
 393 401 l 2
 393 409 393 415 391 422 c 1
 369 404 345 390 322 378 c 1
 333 330 304 273 238 273 c 0
 202 273 181 301 181 301 c 1
 173 280 172 246 172 229 c 2
 172 0 l 1
 96 0 l 1
 96 224 l 2
 96 266 33 310 33 413 c 0
 33 519 123 599 236 599 c 0
 308 599 375 584 419 536 c 1
 432 565 440 601 440 641 c 1
 440 641 511 642 511 641 c 0
 511 582 487 528 453 482 c 1
EndSplineSet
EndChar
StartChar: uni0E29
Encoding: 169 3625 168
OldEncoding: 201
Width: 634
Flags: HW
HStem: 0 45<106 451> 346 41<260 267> 418 37<118 127> 556 38<116 127>
VStem: 156 75<45 425> 463 72<101 594>
Fore
118 455 m 0
 118 455 l 0
 183 455 183 556 118 556 c 0
 52 556 52 455 118 455 c 0
267 255 m 0
 267 255 l 0
 323 255 323 346 267 346 c 0
 208 346 208 255 267 255 c 0
232 212 m 0
 232 45 l 1
 402 45 l 2
 435 45 463 69 463 101 c 2
 463 240 l 1
 434 169 298 129 232 212 c 0
535 594 m 0
 535 103 l 0
 539 51 510 0 451 0 c 2
 106 0 l 1
 106 45 l 1
 156 45 l 1
 156 425 l 1
 145 418 131 418 118 418 c 0
 6 418 2 594 125 594 c 0
 238 594 232 502 232 492 c 2
 232 492 232 379 232 378 c 1
 241 384 252 387 265 387 c 0
 303 389 341 367 349 329 c 0
 363 257 325 224 292 221 c 1
 383 178 463 273 463 344 c 2
 463 594 l 1
 535 594 l 0
EndSplineSet
EndChar
StartChar: uni0E2A
Encoding: 170 3626 169
OldEncoding: 202
Width: 552
Flags: HW
HStem: 0 21G<381 454>
VStem: 80 75<108 272> 381 73<0 431>
Fore
188 32 m 0
 188 32 l 0
 251 32 251 129 188 129 c 0
 125 129 125 32 188 32 c 0
349 501 m 0
 349 501 l 0
 273 570 113 538 57 444 c 1
 31 467 l 1
 137 639 320 613 397 551 c 1
 416 576 432 607 440 641 c 1
 511 641 l 1
 503 588 470 545 432 510 c 1
 448 482 454 456 454 429 c 2
 454 0 l 1
 381 0 l 1
 381 250 l 2
 381 315 330 378 265 378 c 0
 196 378 155 324 155 266 c 2
 155 158 l 1
 293 206 315 2 192 -5 c 0
 109 -8 80 66 80 108 c 2
 80 270 l 2
 80 335 131 413 219 425 c 1
 260 442 308 467 349 501 c 0
278 424 m 1
 353 409 382 356 382 356 c 1
 382 369 382 418 382 422 c 0
 382 436 380 452 375 465 c 1
 340 445 304 430 278 424 c 1
EndSplineSet
EndChar
StartChar: uni0E2B
Encoding: 171 3627 170
OldEncoding: 203
Width: 623
Flags: HW
HStem: 0 21G<150 224 450 525> 418 37<99 116> 556 38<104 117>
VStem: 150 74<0 113 0 492> 450 74<0 386>
Fore
525 0 m 1
 450 0 l 1
 450 376 l 2
 450 406 431 422 431 422 c 1
 320 352 243 190 236 172 c 0
 229 147 224 127 224 109 c 2
 224 0 l 1
 150 0 l 1
 150 432 l 1
 139 419 123 418 109 418 c 0
 -2 418 -9 594 117 594 c 0
 230 594 222 502 222 492 c 2
 222 244 l 1
 290 379 409 456 409 456 c 1
 364 508 396 594 465 594 c 0
 561 594 563 468 500 441 c 1
 500 441 525 418 525 384 c 2
 525 0 l 1
465 472 m 0
 465 472 l 0
 523 472 523 561 465 561 c 0
 410 561 410 472 465 472 c 0
106 455 m 0
 172 455 172 556 106 556 c 0
 41 556 41 455 106 455 c 0
EndSplineSet
EndChar
StartChar: uni0E2C
Encoding: 172 3628 171
OldEncoding: 204
Width: 681
Flags: HW
HStem: 0 21G<151 226 506 583> 418 37<100 117> 475 41<497 506> 556 38<105 118> 607 38<504 514>
VStem: 151 75<0 492> 506 76<126 502>
DStem: 375 425 375 556 531 0 531 126 375 556 375 425 237 121 237 0 375 425 375 556 531 0 531 126 375 556 375 425 237 121 237 0 375 425 375 556 531 0 531 126 375 556 375 425 237 121 237 0 375 425 375 556 531 0 531 126 375 556 375 425 237 121 237 0 375 425 375 556 531 0 531 126 375 556 375 425 237 121 237 0 375 425 375 556 531 0 531 126 375 556 375 425 237 121 237 0 375 425 375 556 531 0 531 126 375 556 375 425 237 121 237 0 375 425 375 556 531 0 531 126 375 556 375 425 237 121 237 0 375 425 375 556 531 0 531 126 375 556 375 425 237 121 237 0 375 425 375 556 531 0 531 126 375 556 375 425 237 121 237 0 375 425 375 556 531 0 531 126 375 556 375 425 237 121 237 0 375 425 375 556 531 0 531 126 375 556 375 425 237 121 237 0 375 425 375 556 531 0 531 126 375 556 375 425 237 121 237 0 375 425 375 556 531 0 531 126 375 556 375 425 237 121 237 0 375 425 375 556 531 0 531 126 375 556 375 425 237 121 237 0 375 425 375 556 531 0 531 126 375 556 375 425 237 121 237 0 375 425 375 556 531 0 531 126 375 556 375 425 237 121 237 0 375 425 375 556 531 0 531 126 375 556 375 425 237 121 237 0 375 425 375 556 531 0 531 126 375 556 375 425 237 121 237 0 375 425 375 556 531 0 531 126 375 556 375 425 237 121 237 0 375 425 375 556 531 0 531 126 375 556 375 425 237 121 237 0 375 425 375 556 531 0 531 126 375 556 375 425 237 121 237 0 375 425 375 556 531 0 531 126 375 556 375 425 237 121 237 0 375 425 375 556 531 0 531 126 375 556 375 425 237 121 237 0
Fore
667 659 m 1
 667 659 l 0
 664 536 583 502 583 502 c 1
 583 0 l 1
 506 0 l 1
 358 425 l 1
 226 0 l 1
 151 0 l 1
 151 432 l 1
 140 419 121 418 110 418 c 0
 0 418 -8 594 118 594 c 0
 232 594 226 502 226 492 c 2
 226 121 l 1
 358 556 l 1
 506 126 l 1
 506 475 l 1
 394 475 393 645 504 645 c 0
 592 645 585 562 585 562 c 1
 611 607 607 639 604 659 c 1
 667 659 l 1
504 516 m 0
 504 516 l 0
 560 516 560 607 504 607 c 0
 446 607 446 516 504 516 c 0
107 455 m 0
 173 455 173 556 107 556 c 0
 43 556 43 455 107 455 c 0
EndSplineSet
EndChar
StartChar: uni0E2D
Encoding: 173 3629 172
OldEncoding: 205
Width: 553
Flags: HW
HStem: -8 21G<229 288> 548 46<221 254>
VStem: 79 74<130 280> 380 76<130 431>
Fore
456 146 m 1
 456 146 l 0
 456 18 315 -8 262 -8 c 0
 196 -8 79 15 79 147 c 2
 79 327 l 2
 79 367 106 450 191 445 c 0
 315 439 295 230 154 280 c 1
 154 132 l 1
 155 5 378 2 380 132 c 1
 380 421 l 2
 380 484 330 548 238 548 c 0
 134 548 95 496 68 464 c 1
 39 485 l 1
 72 527 128 594 243 594 c 0
 369 594 456 519 456 429 c 2
 456 146 l 1
191 309 m 0
 257 309 257 409 191 409 c 0
 125 409 125 309 191 309 c 0
EndSplineSet
EndChar
StartChar: uni0E2E
Encoding: 174 3630 173
OldEncoding: 206
Width: 553
Flags: HW
HStem: -8 21G<229 288> 553 43<216 248>
VStem: 79 74<130 195> 380 76<130 441>
Fore
464 602 m 1
 464 602 l 0
 457 567 446 542 429 516 c 1
 446 495 456 458 456 429 c 2
 456 146 l 2
 456 18 315 -8 262 -8 c 0
 196 -8 79 15 79 147 c 2
 79 243 l 2
 79 283 106 366 191 361 c 0
 315 355 295 146 154 195 c 1
 154 132 l 1
 155 5 378 2 380 132 c 1
 380 421 l 2
 380 432 381 450 377 461 c 1
 277 370 87 384 66 476 c 0
 52 544 151 596 235 596 c 0
 314 596 364 565 378 559 c 1
 383 571 387 584 387 602 c 1
 464 602 l 1
350 508 m 0
 350 508 l 0
 333 531 296 553 233 553 c 0
 188 553 98 530 110 481 c 0
 123 425 287 418 350 508 c 0
191 224 m 0
 257 224 257 324 191 324 c 0
 125 324 125 224 191 224 c 0
EndSplineSet
EndChar
StartChar: uni0E2F
Encoding: 175 3631 174
OldEncoding: 207
Width: 514
Flags: HW
HStem: 556 38<104 121>
VStem: 331 74<3 591>
Fore
405 3 m 1
 331 3 l 1
 331 465 l 1
 248 389 106 410 68 438 c 0
 -3 490 31 594 112 594 c 0
 154 594 183 571 194 533 c 0
 205 492 181 462 181 462 c 1
 319 452 331 571 331 591 c 1
 405 591 l 1
 405 3 l 1
114 465 m 0
 172 465 172 556 114 556 c 0
 55 556 55 465 114 465 c 0
EndSplineSet
EndChar
StartChar: uni0E30
Encoding: 176 3632 175
OldEncoding: 208
Width: 438
Flags: HW
HStem: 141 33<115 128> 551 33<115 128>
Fore
364 579 m 1
 364 579 l 0
 347 445 246 406 148 418 c 1
 148 418 65 424 52 492 c 0
 46 521 57 584 126 584 c 0
 161 584 189 564 196 527 c 0
 204 487 185 461 185 461 c 1
 262 455 303 499 306 579 c 1
 364 579 l 1
364 169 m 1
 364 169 l 0
 347 35 246 -3 148 8 c 1
 148 8 65 14 52 81 c 0
 46 111 57 174 126 174 c 0
 161 174 189 154 196 117 c 0
 204 77 185 51 185 51 c 1
 262 45 303 89 306 169 c 1
 364 169 l 1
125 468 m 0
 125 468 l 0
 177 468 177 551 125 551 c 0
 71 551 71 468 125 468 c 0
125 58 m 0
 177 58 177 141 125 141 c 0
 71 141 71 58 125 58 c 0
EndSplineSet
EndChar
StartChar: uni0E31
Encoding: 177 3633 176
OldEncoding: 209
Width: 0
Flags: HW
HStem: 874 41<-261 -256>
AnchorPoint: "AboveMark" -101.077 967.68 basemark 0
AnchorPoint: "AboveBase" -101.077 645.12 mark 0
Fore
134 911 m 1
 134 911 l 0
 79 657 -194 625 -306 737 c 0
 -387 817 -337 917 -259 915 c 0
 -221 915 -186 895 -175 852 c 0
 -156 774 -219 745 -219 745 c 1
 -79 691 30 770 50 911 c 1
 134 911 l 1
-257 782 m 0
 -200 782 -200 874 -257 874 c 0
 -318 874 -318 782 -257 782 c 0
EndSplineSet
EndChar
StartChar: uni0E32
Encoding: 178 3634 177
OldEncoding: 210
Width: 407
Flags: HW
HStem: 558 44<138 155>
VStem: 235 76<3 468>
Fore
311 3 m 1
 235 3 l 1
 235 459 l 2
 235 515 202 558 144 558 c 0
 79 558 32 516 17 499 c 1
 17 542 l 1
 35 562 79 602 154 602 c 0
 254 602 311 558 311 464 c 2
 311 3 l 1
EndSplineSet
EndChar
StartChar: uni0E33
Encoding: 179 3635 178
OldEncoding: 211
Width: 407
Flags: HW
HStem: 558 44<133 155> 685 43<-136 -123> 829 47<-136 -123>
VStem: 235 76<3 468>
Fore
-126 685 m 0
 -126 685 l 0
 -248 685 -248 876 -126 876 c 0
 -6 876 -6 685 -126 685 c 0
311 3 m 1
 235 3 l 1
 235 459 l 2
 235 515 202 558 144 558 c 0
 79 558 32 516 17 499 c 1
 17 542 l 1
 35 562 79 602 154 602 c 0
 254 602 311 558 311 464 c 2
 311 3 l 1
-77 779 m 0
 -77 808 -99 829 -126 829 c 0
 -154 829 -175 808 -175 779 c 0
 -175 751 -154 728 -126 728 c 0
 -99 728 -77 751 -77 779 c 0
EndSplineSet
MultipleSubs: 0 1 'ccmp' uni0E4D uni0E32
EndChar
StartChar: uni0E34
Encoding: 180 3636 179
OldEncoding: 212
Width: 0
Flags: HW
AnchorPoint: "AboveMark" -137.699 967.68 basemark 0
AnchorPoint: "AboveBase" -101.077 645.12 mark 0
Fore
-80 651 m 0
 -80 651 l 0
 -120 671 -200 713 -298 730 c 0
 -399 748 -459 737 -510 728 c 1
 -484 823 -399 900 -293 892 c 0
 -169 883 -90 796 -80 651 c 0
-134 717 m 1
 -170 808 -227 837 -296 843 c 0
 -361 849 -410 820 -437 777 c 1
 -396 782 -350 780 -298 773 c 0
 -213 760 -134 717 -134 717 c 1
EndSplineSet
EndChar
StartChar: uni0E35
Encoding: 181 3637 180
OldEncoding: 213
Width: 0
Flags: HW
VStem: -173 72<849 951>
AnchorPoint: "AboveMark" -137.699 967.68 basemark 0
AnchorPoint: "AboveBase" -101.077 645.12 mark 0
Fore
-173 849 m 0
 -173 951 l 1
 -101 951 l 1
 -101 951 -101 753 -101 751 c 0
 -90 722 -84 688 -80 651 c 1
 -120 671 -200 713 -298 730 c 0
 -399 748 -459 737 -510 728 c 1
 -484 823 -399 900 -293 892 c 0
 -246 889 -205 874 -173 849 c 0
-134 717 m 1
 -170 808 -227 837 -296 843 c 0
 -361 849 -410 820 -437 777 c 1
 -396 782 -350 780 -298 773 c 0
 -213 760 -134 717 -134 717 c 1
EndSplineSet
EndChar
StartChar: uni0E36
Encoding: 182 3638 181
OldEncoding: 214
Width: 0
Flags: HW
HStem: 906 45<-136 -126>
AnchorPoint: "AboveMark" -136.234 967.68 basemark 0
AnchorPoint: "AboveBase" -101.077 645.12 mark 0
Fore
-80 651 m 0
 -80 651 l 0
 -139 684 -235 722 -309 731 c 1
 -410 748 -470 736 -508 728 c 1
 -487 822 -400 899 -296 894 c 1
 -252 889 -219 874 -219 874 c 1
 -221 892 -208 951 -136 951 c 4
 -31 951 -27 802 -114 780 c 1
 -114 780 -85 731 -80 651 c 0
-136 820 m 0
 -136 820 l 0
 -80 820 -80 906 -136 906 c 0
 -194 906 -194 820 -136 820 c 0
-134 717 m 1
 -170 808 -227 837 -296 843 c 0
 -361 849 -410 820 -437 777 c 1
 -396 782 -350 780 -298 773 c 0
 -213 760 -134 717 -134 717 c 1
EndSplineSet
EndChar
StartChar: uni0E37
Encoding: 183 3639 182
OldEncoding: 215
Width: 0
Flags: HW
VStem: -296 67<876 951> -167 66<831 951>
AnchorPoint: "AboveMark" -197.759 967.68 basemark 0
AnchorPoint: "AboveBase" -101.077 645.12 mark 0
Fore
-79 648 m 0
 -79 648 l 0
 -145 684 -222 714 -308 728 c 0
 -393 742 -450 737 -506 725 c 1
 -463 888 -296 876 -296 876 c 1
 -295 951 l 1
 -229 951 l 1
 -227 863 l 1
 -191 852 -167 831 -167 831 c 1
 -166 951 l 1
 -101 951 l 5
 -99 743 l 1
 -99 743 -84 714 -79 648 c 0
-134 714 m 1
 -161 788 -214 823 -296 829 c 0
 -350 834 -405 816 -440 773 c 1
 -400 779 -355 776 -295 768 c 0
 -216 757 -134 714 -134 714 c 1
EndSplineSet
EndChar
StartChar: uni0E38
Encoding: 184 3640 183
OldEncoding: 216
Width: 0
Flags: HW
HStem: -220 36<-208 -202>
VStem: -175 75<-307 -155>
AnchorPoint: "BelowBase" -99.6123 -69.1201 mark 0
Fore
-99 -307 m 5
 -175 -307 l 1
 -175 -214 l 1
 -178 -215 -188 -220 -208 -220 c 0
 -303 -218 -303 -77 -208 -69 c 0
 -148 -66 -104 -95 -99 -155 c 1
 -99 -307 l 5
-208 -184 m 0
 -156 -184 -156 -104 -208 -104 c 0
 -259 -104 -259 -184 -208 -184 c 0
EndSplineSet
EndChar
StartChar: uni0E39
Encoding: 185 3641 184
OldEncoding: 217
Width: 0
Flags: HW
HStem: -307 34<-207 -189> -206 28<-326 -315> -101 32<-326 -309>
VStem: -286 49<-239 -157> -175 75<-238 -69>
AnchorPoint: "BelowBase" -99.6123 -69.1201 mark 0
Fore
-99 -212 m 1
 -99 -212 l 0
 -99 -264 -131 -307 -189 -307 c 0
 -248 -307 -286 -275 -286 -226 c 2
 -286 -201 l 1
 -290 -203 -296 -206 -317 -206 c 0
 -409 -204 -409 -69 -317 -69 c 0
 -259 -69 -236 -106 -237 -157 c 1
 -237 -238 l 1
 -240 -257 -226 -273 -207 -273 c 0
 -186 -273 -175 -261 -175 -238 c 2
 -175 -69 l 1
 -99 -69 l 5
 -99 -212 l 1
-282 -140 m 0
 -282 -117 -299 -101 -318 -101 c 0
 -339 -101 -356 -117 -356 -140 c 0
 -356 -158 -339 -178 -318 -178 c 0
 -299 -178 -282 -158 -282 -140 c 0
EndSplineSet
EndChar
StartChar: uni0E3A
Encoding: 186 3642 185
OldEncoding: 218
Width: 0
Flags: HW
AnchorPoint: "BelowBase" -99.6123 -58.3682 mark 0
Fore
-134 -161 m 0
 -204 -161 -204 -55 -134 -55 c 0
 -71 -55 -72 -161 -134 -161 c 0
EndSplineSet
EndChar
StartChar: zerospace
Encoding: 188 8203 186
OldEncoding: 220
Width: 798
Flags: HW
HStem: 0 60<98 611>
VStem: 98 66<-183 -38> 667 66<-183 60>
Fore
733 -183 m 1
 667 -183 l 1
 667 -52 l 2
 667 -17 647 0 605 0 c 2
 215 0 l 2
 181 0 164 -15 164 -48 c 2
 164 -183 l 1
 98 -183 l 1
 98 60 l 1
 733 60 l 1
 733 -183 l 1
EndSplineSet
EndChar
StartChar: dottedcircle
Encoding: 189 9676 187
OldEncoding: 221
Width: 618
Flags: HW
HStem: 5 36<327 329> 41 39<185 190> 52 39<450 452> 134 36<90 96> 146 37<528 530> 276 37<563 565> 283 36<54 56> 412 37<528 530> 501 38<438 440> 508 37<194 196> 544 37<325 329>
VStem: 36 35<301 303> 72 35<152 154> 79 35<436 438> 166 36<61 63> 175 37<527 529> 309 35<23 25 562 566> 421 36<519 521> 432 35<71 73> 511 35<164 170 430 436> 545 37<295 301>
Fore
87 453 m 6
183 544 m 6
173 78 m 6
79 169 m 6
440 88 m 6
517 181 m 6
517 447 m 6
428 536 m 6
552 312 m 6
44 318 m 6
315 579 m 6
96 455 m 4,11,12
 107 455 114 445 114 436 c 4,13,14
 114 425 107 416 96 416 c 4,15,16
 87 416 79 425 79 436 c 4,17,18
 79 445 87 455 96 455 c 4,11,12
194 545 m 4,19,20
 204 545 213 538 213 527 c 4,21,22
 213 518 204 508 194 508 c 4,23,24
 185 508 175 518 175 527 c 4,25,26
 175 538 185 545 194 545 c 4,19,20
185 80 m 4,27,28
 194 80 202 71 202 61 c 4,29,30
 202 51 194 41 185 41 c 4,31,32
 175 41 166 51 166 61 c 4,33,34
 166 71 175 80 185 80 c 4,27,28
90 170 m 4,35,36
 99 170 107 163 107 152 c 4,37,38
 107 141 99 134 90 134 c 4,39,40
 79 134 72 141 72 152 c 4,41,42
 72 163 79 170 90 170 c 4,35,36
450 91 m 4,43,44
 460 91 467 81 467 71 c 4,45,46
 467 61 460 52 450 52 c 4,47,48
 441 52 432 61 432 71 c 4,49,50
 432 81 441 91 450 91 c 4,43,44
528 183 m 4,51,52
 539 183 546 175 546 164 c 4,53,54
 546 154 539 146 528 146 c 4,55,56
 519 146 511 154 511 164 c 4,57,58
 511 175 519 183 528 183 c 4,51,52
528 449 m 4,59,60
 539 449 546 441 546 430 c 4,61,62
 546 419 539 412 528 412 c 4,63,64
 519 412 511 419 511 430 c 4,65,66
 511 441 519 449 528 449 c 4,59,60
438 539 m 4,67,68
 448 539 457 530 457 519 c 4,69,70
 457 510 448 501 438 501 c 4,71,72
 429 501 421 510 421 519 c 4,73,74
 421 530 429 539 438 539 c 4,67,68
563 313 m 4,75,76
 573 313 582 306 582 295 c 4,77,78
 582 284 573 276 563 276 c 4,79,80
 554 276 545 284 545 295 c 4,81,82
 545 306 554 313 563 313 c 4,75,76
54 319 m 4,83,84
 65 319 72 312 72 301 c 4,85,86
 72 292 65 283 54 283 c 4,87,88
 44 283 36 292 36 301 c 4,89,90
 36 312 44 319 54 319 c 4,83,84
327 41 m 4,91,92
 337 41 344 34 344 23 c 4,93,94
 344 12 337 5 327 5 c 4,95,96
 318 5 309 12 309 23 c 4,97,98
 309 34 318 41 327 41 c 4,91,92
325 581 m 4,99,100
 336 581 342 571 342 562 c 4,101,102
 342 551 336 544 325 544 c 4,103,104
 317 544 308 551 308 562 c 4,105,106
 308 571 317 581 325 581 c 4,99,100
EndSplineSet
EndChar
StartChar: uni0E3F
Encoding: 190 3647 188
OldEncoding: 223
Width: 717
Flags: HW
HStem: 3 17<33 33 33 320> 359 40<235 320> 707 15<33 52 33 77>
VStem: 134 100<85 359 88 650> 320 65<-106 3 38 349 399 674 723 822> 494 102<533 551> 516 113<181 215>
Fore
629 200 m 0xfa
 629 200 l 0xfa
 629 77 535 11 387 3 c 1
 385 -106 l 1
 322 -106 l 1
 320 2 l 1
 33 3 l 1
 33 20 l 1
 120 20 134 54 134 88 c 2
 134 637 l 2
 134 670 120 705 33 707 c 1
 33 722 l 1
 65 722 318 723 320 723 c 1
 322 822 l 1
 385 822 l 1
 387 720 l 1
 506 708 596 656 596 541 c 0xfc
 596 450 538 404 459 382 c 1
 459 376 l 1
 547 359 629 304 629 200 c 0xfa
494 536 m 0xfc
 494 536 l 0
 494 614 451 659 387 674 c 1
 387 406 l 1
 453 422 494 467 494 536 c 0xfc
320 399 m 1
 320 684 l 0
 259 687 235 682 235 650 c 2
 235 399 l 1
 320 399 l 1
320 38 m 0
 320 359 l 0
 312 359 235 359 235 359 c 1
 235 100 l 2
 235 60 246 38 320 38 c 0
516 203 m 0xfa
 516 292 456 333 387 349 c 1
 387 45 l 1
 463 58 516 100 516 203 c 0xfa
EndSplineSet
EndChar
StartChar: uni0E40
Encoding: 191 3648 189
OldEncoding: 224
Width: 321
Flags: HW
HStem: -5 40<191 200> 127 39<191 200> 574 20G<93 169>
VStem: 93 76<109 594>
Fore
169 594 m 1
 169 164 l 1
 169 164 181 166 191 166 c 0
 296 166 299 -5 191 -5 c 0
 191 -5 l 0
 126 -5 93 54 93 109 c 2
 93 594 l 1
 169 594 l 1
191 35 m 0
 251 35 251 127 191 127 c 0
 132 127 132 35 191 35 c 0
EndSplineSet
EndChar
StartChar: uni0E41
Encoding: 192 3649 190
OldEncoding: 225
Width: 580
Flags: HW
HStem: -5 40<191 200 448 450> 127 39<191 200 448 450> 574 20G<93 169>
VStem: 93 76<109 594> 350 76<109 593>
Fore
426 594 m 1
 426 164 l 1
 426 164 440 166 448 166 c 0
 554 166 557 -5 448 -5 c 0
 448 -5 l 0
 383 -5 350 54 350 109 c 2
 350 594 l 1
 426 594 l 1
169 594 m 1
 169 164 l 1
 169 164 181 166 191 166 c 0
 296 166 299 -5 191 -5 c 0
 191 -5 l 0
 126 -5 93 54 93 109 c 2
 93 594 l 1
 169 594 l 1
448 35 m 0
 448 35 l 0
 508 35 508 127 448 127 c 0
 390 127 390 35 448 35 c 0
191 35 m 0
 251 35 251 127 191 127 c 0
 132 127 132 35 191 35 c 0
EndSplineSet
EndChar
StartChar: uni0E42
Encoding: 193 3650 191
OldEncoding: 226
Width: 315
Flags: HW
HStem: -5 40<216 226> 127 39<216 226>
VStem: 128 74<106 694>
DStem: -52 836 3 860 98 757 167 770
Fore
318 909 m 0
 318 909 l 0
 279 777 178 845 177 845 c 0
 54 914 27 895 3 860 c 1
 159 770 l 2
 175 760 205 743 202 694 c 1
 202 164 l 1
 208 167 213 166 216 166 c 0
 319 166 320 -5 216 -5 c 0
 147 -5 128 51 128 106 c 2
 128 700 l 1
 129 719 128 739 93 757 c 2
 -50 836 l 1
 -38 862 2 955 76 958 c 0
 140 962 265 865 306 919 c 0
 314 926 322 923 318 909 c 0
216 35 m 0
 273 35 273 127 216 127 c 0
 156 127 156 35 216 35 c 0
EndSplineSet
EndChar
StartChar: uni0E43
Encoding: 194 3651 192
OldEncoding: 227
Width: 345
Flags: HW
HStem: -5 40<224 239> 127 37<222 239> 679 40<27 41> 793 36<38 40> 908 50<70 84>
VStem: 148 74<106 828>
Fore
235 -5 m 0
 235 -5 l 0
 169 -5 148 51 148 106 c 2
 148 811 l 2
 148 862 121 906 74 908 c 0
 19 908 -10 868 -11 803 c 1
 2 826 30 829 38 829 c 0
 134 829 134 679 36 679 c 0
 -35 679 -54 768 -52 828 c 1
 -44 900 2 958 84 958 c 0
 173 958 222 892 222 808 c 2
 222 164 l 1
 224 164 230 166 235 166 c 0
 339 166 342 -5 235 -5 c 0
38 793 m 0
 38 793 l 0
 14 793 2 777 2 756 c 0
 2 740 11 719 36 719 c 0
 85 719 84 793 38 793 c 0
235 35 m 0
 295 35 295 127 235 127 c 0
 175 127 175 35 235 35 c 0
EndSplineSet
EndChar
StartChar: uni0E44
Encoding: 195 3652 193
OldEncoding: 228
Width: 384
Flags: HW
HStem: -5 40<268 281> 127 37<265 280> 654 37<66 82> 919 39<167 186>
VStem: -9 55<720 931> 103 34<714 883> 194 72<106 885>
Fore
278 -5 m 0
 278 -5 l 0
 213 -5 194 51 194 106 c 2
 194 883 l 2
 194 905 183 919 167 919 c 0
 147 919 137 900 137 883 c 2
 137 730 l 2
 137 688 117 654 68 654 c 0
 19 653 -9 690 -9 734 c 2
 -9 909 l 2
 -9 919 -8 929 -22 945 c 0
 -33 957 -39 958 -52 971 c 1
 -63 983 -50 992 -36 983 c 1
 28 962 l 1
 49 949 47 942 47 931 c 2
 47 720 l 2
 47 703 57 691 74 691 c 0
 90 691 103 702 103 720 c 2
 103 866 l 2
 103 917 128 958 186 958 c 0
 243 958 265 914 265 871 c 2
 265 164 l 1
 270 164 276 166 278 166 c 0
 383 166 387 -5 278 -5 c 0
278 35 m 0
 340 35 340 127 278 127 c 0
 219 127 219 35 278 35 c 0
EndSplineSet
EndChar
StartChar: uni0E45
Encoding: 196 3653 194
OldEncoding: 229
Width: 289
Flags: HW
HStem: 558 44<22 38>
VStem: 117 76<-240 466>
Fore
117 -240 m 1
 117 459 l 2
 117 515 85 558 27 558 c 0
 -38 558 -85 516 -99 499 c 1
 -99 542 l 1
 -82 562 -38 602 36 602 c 0
 136 602 194 558 194 464 c 2
 194 -240 l 1
 117 -240 l 1
EndSplineSet
EndChar
StartChar: uni0E46
Encoding: 197 3654 195
OldEncoding: 230
Width: 670
Flags: HW
HStem: 263 32<323 325>
VStem: 492 73<-240 481>
Fore
492 -240 m 0
 492 464 l 2
 492 504 479 518 457 524 c 1
 387 455 l 1
 374 468 318 524 318 524 c 1
 274 499 263 429 270 399 c 1
 270 399 296 416 323 416 c 0
 422 413 421 263 323 263 c 0
 240 263 218 350 218 424 c 0
 218 479 251 565 318 598 c 1
 387 528 l 1
 457 599 l 1
 545 598 566 527 566 464 c 2
 566 -240 l 1
 492 -240 l 0
323 295 m 0
 380 295 380 382 323 382 c 0
 268 382 268 295 323 295 c 0
EndSplineSet
EndChar
StartChar: uni0E47
Encoding: 198 3655 196
OldEncoding: 231
Width: 0
Flags: HW
HStem: 668 94<-397 -397> 757 57<-342 -336>
VStem: -238 33<751 764> -125 37<753 764>
AnchorPoint: "AboveMark" -276.863 645.12 mark 0
AnchorPoint: "AboveBase" -124.515 645.12 mark 0
Fore
-72 1028 m 1xb0
 -72 1028 l 0
 -72 919 -140 868 -286 892 c 0
 -356 905 -397 903 -409 837 c 0
 -415 806 -405 773 -397 762 c 1xb0
 -397 762 -396 814 -339 814 c 0x70
 -279 814 -262 753 -235 739 c 1
 -235 739 -238 748 -238 756 c 0
 -238 862 -88 860 -88 753 c 0
 -88 696 -131 667 -164 668 c 0xb0
 -277 671 -281 759 -336 757 c 0x70
 -381 756 -378 685 -363 668 c 1
 -402 668 l 1
 -445 705 -482 785 -462 865 c 0
 -450 911 -416 963 -273 943 c 0
 -185 931 -140 935 -147 1028 c 1
 -72 1028 l 1xb0
-125 753 m 0
 -125 809 -205 809 -205 753 c 0
 -205 699 -125 699 -125 753 c 0
EndSplineSet
EndChar
StartChar: uni0E48
Encoding: 199 3656 197
OldEncoding: 232
Width: 0
Flags: W
VStem: -169 72<1009 1210>
AnchorPoint: "AboveMark" -133.305 967.68 mark 0
Fore
-97 1210 m 1
 -97 1009 l 5
 -169 1009 l 1
 -169 1210 l 1
 -97 1210 l 1
EndSplineSet
Substitution: 0 65534 'loww' uni0E48.low
Substitution: 0 65534 'amni' uni0E4D
EndChar
StartChar: uni0E49
Encoding: 200 3657 198
OldEncoding: 233
Width: 0
Flags: HW
HStem: 1063 37<-198 -185> 1184 34<-198 -185>
AnchorPoint: "AboveMark" -52.7354 967.68 mark 0
Fore
128 1213 m 1
 128 1213 l 0
 107 1040 -62 951 -232 978 c 1
 -232 1008 l 1
 -222 1011 -186 1032 -173 1066 c 1
 -173 1066 l 1
 -173 1066 -178 1063 -188 1063 c 0
 -290 1063 -289 1218 -188 1218 c 0
 -115 1218 -112 1143 -112 1143 c 1
 -112 1061 -155 1021 -155 1021 c 1
 -159 1017 l 1
 -71 1025 47 1087 52 1213 c 1
 128 1213 l 1
-188 1100 m 0
 -134 1100 -134 1184 -188 1184 c 0
 -245 1184 -245 1100 -188 1100 c 0
EndSplineSet
Substitution: 0 65534 'loww' uni0E49.low
Substitution: 0 65534 'amni' uni0E4D
EndChar
StartChar: uni0E4A
Encoding: 201 3658 199
OldEncoding: 234
Width: 0
Flags: HW
VStem: -270 59<1055 1115> -139 30<1049 1062>
AnchorPoint: "AboveMark" -102.542 967.68 mark 0
Fore
115 1229 m 1
 115 1229 l 0
 123 1091 50 1009 -66 992 c 5
 -66 1017 l 1
 -13 1051 -19 1158 -68 1172 c 1
 -121 1134 l 1
 -173 1172 l 1
 -208 1172 -235 1129 -229 1091 c 1
 -229 1091 -219 1123 -173 1123 c 0
 -136 1123 -110 1092 -110 1060 c 0
 -110 1020 -132 989 -173 989 c 0
 -233 989 -270 1043 -270 1115 c 0
 -270 1166 -222 1226 -173 1226 c 1
 -173 1226 -121 1180 -120 1180 c 2
 -69 1224 l 1
 41 1195 22 1094 2 1051 c 1
 55 1089 71 1157 54 1229 c 1
 115 1229 l 1
-139 1055 m 0
 -139 1106 -211 1106 -211 1055 c 0
 -211 1006 -139 1006 -139 1055 c 0
EndSplineSet
Substitution: 0 65534 'loww' uni0E4A.low
Substitution: 0 65534 'amni' uni0E4D
EndChar
StartChar: uni0E4B
Encoding: 202 3659 200
OldEncoding: 235
Width: 0
Flags: HW
HStem: 1080 58<-268 -166 -107 -9>
VStem: -169 62<1140 1229>
DStem: -175 1140 -112 1140 -281 1138 -9 1138
AnchorPoint: "AboveMark" -139.164 967.68 mark 0
Fore
-9 1081 m 5
 -109 1080 l 1
 -110 992 l 1
 -164 992 l 1
 -166 1080 l 1
 -268 1081 l 1
 -268 1138 l 1
 -167 1140 l 1
 -169 1229 l 1
 -106 1229 l 1
 -107 1140 l 1
 -9 1138 l 1
 -9 1081 l 5
EndSplineSet
MinimumDistance: x8,9 
Substitution: 0 65534 'loww' uni0E4B.low
Substitution: 0 65534 'amni' uni0E4D
EndChar
StartChar: uni0E4C
Encoding: 203 3660 201
OldEncoding: 236
Width: 0
Flags: HW
HStem: 902 29<-172 -159>
AnchorPoint: "AboveMark" -162.602 890.88 mark 0
Fore
44 1143 m 1
 44 1143 l 0
 11 1043 -136 1041 -129 1038 c 0
 -66 1009 -84 902 -161 902 c 4
 -208 902 -236 932 -236 975 c 0
 -236 1035 -189 1069 -121 1081 c 0
 -96 1086 -17 1118 -14 1172 c 1
 44 1143 l 1
-162 931 m 0
 -109 931 -109 1014 -162 1014 c 0
 -216 1014 -216 931 -162 931 c 0
EndSplineSet
Substitution: 0 65534 'loww' uni0E4C.low
EndChar
StartChar: uni0E4D
Encoding: 204 3661 202
OldEncoding: 237
Width: 0
Flags: HW
HStem: 668 43<-144 -132> 813 46<-144 -132>
AnchorPoint: "AboveMark" -134.77 645.12 mark 0
AnchorPoint: "AboveMark" -134.77 967.68 basemark 0
AnchorPoint: "AboveBase" -101.077 645.12 mark 0
Fore
-134 668 m 0
 -134 668 l 0
 -257 668 -257 859 -134 859 c 0
 -14 859 -14 668 -134 668 c 0
-87 762 m 0
 -87 791 -109 813 -134 813 c 0
 -162 813 -183 791 -183 762 c 0
 -183 734 -162 711 -134 711 c 0
 -109 711 -87 734 -87 762 c 0
EndSplineSet
Substitution: 0 65534 'G006' uni0E4B
Substitution: 0 65534 'G005' uni0E4A
Substitution: 0 65534 'G004' uni0E49
Substitution: 0 65534 'G003' uni0E48
EndChar
StartChar: uni0E4E
Encoding: 205 3662 203
OldEncoding: 238
Width: 0
Flags: HW
AnchorPoint: "AboveBase" -101.077 645.12 mark 0
Fore
87 865 m 2
 5 923 -39 862 -19 816 c 1
 -19 816 -14 805 -17 800 c 0
 -25 788 -54 759 -69 762 c 0
 -72 762 -76 765 -76 765 c 1
 -137 831 -216 765 -170 696 c 1
 -170 696 -161 685 -167 680 c 0
 -175 674 -202 654 -211 651 c 0
 -216 650 -222 657 -222 657 c 1
 -308 762 -169 903 -63 806 c 1
 -62 808 l 1
 -106 908 24 980 113 900 c 1
 113 900 115 897 114 892 c 0
 112 882 103 862 91 863 c 0
 90 863 87 865 87 865 c 2
EndSplineSet
EndChar
StartChar: uni0E4F
Encoding: 206 3663 204
OldEncoding: 239
Width: 702
Flags: HW
HStem: -2 54<352 359> 164 43<352 359> 276 20G<583 583> 296 21G<479 479 680 680> 382 47<352 359> 539 55<352 359>
VStem: 22 96<296 319> 222 70<296 303> 412 67<296 303> 583 97<296 319>
Fore
680 296 m 0
 680 296 l 0
 680 101 505 -2 352 -2 c 0
 194 -2 22 101 22 296 c 0
 22 492 194 594 352 594 c 0
 505 594 680 492 680 296 c 0
583 296 m 0
 583 296 l 0
 583 430 479 539 352 539 c 0
 221 539 118 430 118 296 c 0
 118 163 221 52 352 52 c 0
 479 52 583 163 583 296 c 0
479 296 m 0
 479 296 l 0
 479 218 419 164 352 164 c 0
 279 164 222 218 222 296 c 0
 222 376 279 429 352 429 c 0
 419 429 479 376 479 296 c 0
412 296 m 0
 412 341 394 382 352 382 c 0
 309 382 292 341 292 296 c 0
 292 252 309 207 352 207 c 0
 394 207 412 252 412 296 c 0
EndSplineSet
EndChar
StartChar: uni0E50
Encoding: 207 3664 205
OldEncoding: 240
Width: 615
Flags: HW
HStem: -8 45<308 325> 430 45<308 325>
VStem: 50 76<215 249> 484 76<215 249>
Fore
561 232 m 0
 561 232 l 0
 561 92 446 -8 308 -8 c 0
 164 -8 50 89 50 233 c 0
 50 373 164 475 308 475 c 0
 446 475 561 373 561 232 c 0
484 233 m 0
 484 336 412 430 308 430 c 0
 200 430 126 341 126 232 c 0
 126 126 205 37 308 37 c 0
 410 37 484 132 484 233 c 0
EndSplineSet
EndChar
StartChar: uni0E51
Encoding: 208 3665 206
OldEncoding: 241
Width: 615
Flags: HW
HStem: 430 45<304 324>
VStem: 49 76<232 244> 207 44<178 185> 330 61<152 183> 491 75<210 244>
Fore
566 232 m 0
 566 232 l 0
 566 104 495 0 381 -29 c 1
 349 -14 l 1
 472 32 491 146 491 233 c 0
 491 353 405 430 304 430 c 0
 204 430 125 352 125 232 c 0
 125 8 320 0 336 115 c 1
 336 115 325 95 287 95 c 0
 237 95 207 137 207 181 c 0
 207 230 240 269 292 269 c 0
 359 269 391 214 391 152 c 0
 391 -74 49 -65 49 232 c 0
 49 386 169 475 304 475 c 0
 438 475 566 384 566 232 c 0
330 183 m 0
 330 238 251 238 251 183 c 0
 251 127 330 127 330 183 c 0
EndSplineSet
EndChar
StartChar: uni0E52
Encoding: 209 3666 207
OldEncoding: 242
Width: 615
Flags: HW
HStem: 0 45<176 456>
VStem: 46 72<111 577> 503 71<164 257>
Fore
573 232 m 0
 573 232 l 0
 573 180 573 146 566 104 c 0
 555 46 544 0 450 0 c 2
 185 0 l 2
 88 0 46 54 46 126 c 2
 46 551 l 2
 46 644 33 664 33 664 c 1
 24 703 52 696 65 687 c 1
 101 641 l 1
 101 641 117 622 117 551 c 2
 117 124 l 2
 117 74 151 45 189 45 c 2
 443 45 l 2
 482 45 492 71 497 95 c 0
 505 166 503 160 503 233 c 0
 503 318 497 402 454 412 c 0
 423 418 396 350 390 312 c 0
 383 275 345 270 339 313 c 0
 333 352 304 418 274 412 c 0
 240 404 218 327 235 235 c 1
 235 235 246 253 277 253 c 0
 385 250 381 83 277 83 c 0
 214 83 186 131 175 184 c 0
 142 353 191 475 270 472 c 0
 328 470 358 401 361 364 c 1
 366 364 l 1
 372 401 402 470 462 472 c 0
 546 473 573 352 573 232 c 0
315 166 m 0
 315 223 235 223 235 166 c 0
 235 112 315 112 315 166 c 0
EndSplineSet
EndChar
StartChar: uni0E53
Encoding: 210 3667 208
OldEncoding: 243
Width: 615
Flags: HW
HStem: -8 21G<157 209> 412 61<196 204>
VStem: 224 41<71 86> 289 47<197 256>
Fore
407 412 m 0
 407 412 l 0
 360 406 336 316 336 238 c 0
 336 223 336 214 336 197 c 0
 336 160 289 161 289 197 c 0
 289 212 289 223 289 237 c 0
 289 339 248 412 202 412 c 0
 156 412 93 352 131 137 c 1
 131 137 150 163 185 163 c 0
 233 163 265 123 265 77 c 0
 265 31 233 -8 185 -8 c 0
 129 -8 90 32 72 86 c 0
 25 224 28 473 200 473 c 0
 277 473 309 370 309 370 c 1
 311 370 l 1
 334 450 374 473 421 473 c 0
 576 473 602 253 536 11 c 1
 495 0 l 2
 482 -2 462 -8 469 25 c 0
 528 286 484 421 407 412 c 0
224 75 m 0
 224 132 144 132 144 75 c 0
 144 20 224 20 224 75 c 0
EndSplineSet
EndChar
StartChar: uni0E54
Encoding: 211 3668 209
OldEncoding: 244
Width: 615
Flags: HW
HStem: 421 47<350 359> 424 48<274 290>
VStem: 52 76<243 259> 246 65<235 257> 391 43<250 259>
Fore
391 257 m 0x38
 391 257 l 0
 391 312 311 312 311 257 c 0
 311 200 391 200 391 257 c 0x38
535 46 m 0
 541 46 557 49 563 49 c 0
 583 49 571 29 571 29 c 1
 555 0 l 1
 555 0 470 0 385 3 c 0
 345 5 315 -2 276 -5 c 0
 166 -11 52 78 52 243 c 0
 52 398 162 472 278 472 c 0x78
 315 472 323 468 350 468 c 0
 440 468 508 536 508 690 c 1
 574 670 l 2
 580 668 586 664 585 650 c 0
 576 519 497 421 356 421 c 0xb8
 339 421 308 424 290 424 c 0x78
 175 424 131 329 129 243 c 0
 129 134 173 35 298 45 c 0
 311 46 319 48 334 48 c 0
 355 48 378 45 378 45 c 1
 317 69 246 140 246 235 c 0
 246 309 301 349 356 344 c 0
 404 339 434 304 434 252 c 0
 434 186 360 146 311 184 c 1
 311 146 426 37 535 46 c 0
EndSplineSet
EndChar
StartChar: uni0E55
Encoding: 212 3669 210
OldEncoding: 245
Width: 615
Flags: HW
HStem: 422 189<290 328>
VStem: 52 76<243 259> 227 44<503 509> 246 65<235 257> 383 46<503 509> 391 43<250 259>
Fore
391 257 m 0xd4
 391 257 l 0
 391 312 311 312 311 257 c 0
 311 200 391 200 391 257 c 0xd4
383 507 m 0xe8
 383 507 l 0
 383 587 271 587 271 507 c 0
 271 488 277 478 282 470 c 1
 304 467 350 467 372 472 c 1
 380 481 383 492 383 507 c 0xe8
506 690 m 1
 574 670 l 2
 580 668 586 664 585 650 c 0
 576 515 489 422 363 421 c 0
 344 421 308 422 290 422 c 0
 175 422 131 329 129 243 c 0
 129 134 173 35 298 45 c 0
 311 46 319 48 334 48 c 0
 355 48 380 43 380 43 c 1
 319 68 246 140 246 235 c 0
 246 309 301 349 356 344 c 0
 404 339 434 304 434 252 c 0
 434 186 360 146 311 184 c 1xd4
 311 146 426 37 535 46 c 0
 541 46 557 49 563 49 c 0
 583 49 571 29 571 29 c 1
 555 0 l 1
 555 0 470 0 385 3 c 0
 345 5 315 -2 276 -5 c 0
 166 -11 52 78 52 243 c 0
 52 390 151 456 237 468 c 1
 232 479 227 492 227 505 c 0
 227 570 271 611 328 611 c 0
 388 611 429 568 429 505 c 0
 429 496 428 490 423 485 c 1
 456 508 510 553 506 690 c 1
EndSplineSet
EndChar
StartChar: uni0E56
Encoding: 213 3670 211
OldEncoding: 246
Width: 615
Flags: HW
HStem: -8 45<296 309> 430 45<292 309>
VStem: 224 41<183 201> 479 76<230 249>
Fore
292 475 m 0
 292 475 l 0
 441 475 555 381 555 230 c 0
 555 94 469 -8 296 -8 c 0
 21 -8 28 280 183 280 c 0
 233 280 265 238 265 190 c 0
 265 146 237 104 185 104 c 0
 158 104 147 120 147 120 c 1
 155 72 227 37 296 37 c 0
 402 37 479 118 479 230 c 0
 479 349 394 430 292 430 c 0
 251 430 194 419 153 393 c 0
 142 386 109 393 112 435 c 1
 112 544 91 610 52 674 c 0
 49 680 46 691 58 691 c 2
 132 691 l 1
 148 664 181 564 175 453 c 1
 202 468 251 475 292 475 c 0
224 192 m 0
 224 247 144 247 144 192 c 0
 144 135 224 135 224 192 c 0
EndSplineSet
EndChar
StartChar: uni0E57
Encoding: 214 3671 212
OldEncoding: 247
Width: 615
Flags: HW
HStem: -8 21G<135 191> 418 54<164 170 358 358>
VStem: 204 42<71 80> 237 45<275 293>
Fore
560 671 m 0xe0
 560 671 l 0
 639 430 590 43 438 -2 c 1
 438 -2 377 -18 383 22 c 1
 383 22 400 97 409 146 c 0
 443 355 394 418 358 418 c 0
 318 418 295 366 287 326 c 0
 284 312 282 287 282 275 c 0
 278 240 241 238 237 275 c 0xd0
 237 290 235 313 232 327 c 0
 224 370 199 418 164 418 c 0
 132 418 71 367 110 138 c 1
 110 138 131 163 167 163 c 0
 214 163 246 124 246 78 c 0
 246 32 216 -8 167 -8 c 0
 104 -8 68 38 52 94 c 0
 2 281 31 465 166 472 c 0
 205 473 248 427 257 362 c 1
 262 362 l 1
 270 427 318 473 358 472 c 0
 482 465 520 284 440 52 c 1
 440 52 473 68 489 109 c 0
 546 249 563 459 491 641 c 1
 525 687 l 2
 536 702 547 710 560 671 c 0xe0
204 75 m 0xe0
 204 132 125 132 125 75 c 0
 125 20 204 20 204 75 c 0xe0
EndSplineSet
EndChar
StartChar: uni0E58
Encoding: 215 3672 213
OldEncoding: 248
Width: 615
Flags: HW
HStem: -3 21G<408 469> 289 47<476 483> 421 47<347 363> 424 49<262 289>
VStem: 39 76<215 251> 390 47<238 251>
Fore
570 240 m 0xdc
 570 240 l 0
 582 71 504 -3 434 -3 c 0
 382 -3 289 6 271 152 c 1
 248 134 230 48 224 -6 c 1
 162 -8 38 69 39 243 c 0
 41 398 147 473 262 473 c 0xdc
 290 473 325 468 347 468 c 0
 429 468 497 542 494 690 c 1
 561 668 l 2
 568 667 574 662 573 648 c 0
 563 519 476 421 363 421 c 0xec
 336 421 312 424 289 424 c 0
 169 424 115 338 115 241 c 0
 115 160 136 95 188 61 c 1
 188 61 204 192 273 220 c 1
 314 214 l 1
 314 2 500 0 503 166 c 1
 431 143 390 200 390 246 c 0
 390 303 428 336 476 336 c 0
 545 336 566 284 570 240 c 0xdc
516 247 m 0
 516 272 498 289 476 289 c 0
 453 289 437 272 437 247 c 0
 437 223 453 206 476 206 c 0
 498 206 516 223 516 247 c 0
EndSplineSet
EndChar
StartChar: uni0E59
Encoding: 216 3673 214
OldEncoding: 249
Width: 615
Flags: HW
HStem: -9 41<229 233> 115 45<222 232> 346 60<482 488> 346 121<368 486>
VStem: 268 41<74 76>
Fore
268 74 m 0xc8
 268 74 l 0
 268 97 249 115 229 115 c 0
 207 115 189 97 189 74 c 0
 189 51 207 32 229 32 c 0
 249 32 268 51 268 74 c 0xc8
345 362 m 1
 350 356 368 327 374 318 c 0
 446 190 508 40 508 40 c 2
 532 -8 463 -29 440 20 c 2
 440 20 369 178 317 275 c 0
 252 390 194 439 136 398 c 0
 84 361 106 204 169 124 c 1
 169 124 186 160 230 160 c 0
 277 160 309 123 309 74 c 0
 309 31 274 -9 229 -9 c 0
 191 -9 154 11 121 51 c 0
 30 167 5 369 106 442 c 0
 131 461 221 496 303 407 c 1
 303 439 336 467 368 467 c 0xd8
 440 468 440 406 482 406 c 0
 528 406 551 501 522 687 c 1
 599 664 l 1
 607 664 608 659 608 650 c 0
 618 449 574 346 486 346 c 0xe8
 421 346 413 412 377 413 c 0
 350 415 341 389 345 362 c 1
EndSplineSet
EndChar
StartChar: uni0E5A
Encoding: 217 3674 215
OldEncoding: 250
Width: 697
Flags: HW
HStem: 0 21G<331 405 514 588> 556 38<104 121>
VStem: 331 74<0 591> 514 74<0 591>
Fore
405 0 m 1
 331 0 l 1
 331 465 l 1
 251 382 106 410 68 438 c 0
 -3 490 31 594 112 594 c 0
 154 594 183 571 194 533 c 0
 205 492 181 462 181 462 c 1
 319 452 331 571 331 591 c 1
 405 591 l 1
 405 0 l 1
114 465 m 0
 114 465 l 0
 172 465 172 556 114 556 c 0
 55 556 55 465 114 465 c 0
514 591 m 1
 588 591 l 1
 588 0 l 1
 514 0 l 1
 514 591 l 1
EndSplineSet
EndChar
StartChar: uni0E5B
Encoding: 218 3675 216
OldEncoding: 251
Width: 1405
Flags: HW
HStem: 210 42<341 360> 280 26<300 318> 401 26<301 305>
VStem: 54 88<313 364> 224 50<336 360> 327 50<349 362> 437 70<375 416>
Fore
1381 335 m 1
 1284 332 l 0
 1268 332 1261 330 1258 315 c 0
 1248 260 1184 261 1178 323 c 0
 1175 358 1143 347 1148 326 c 0
 1164 263 1132 204 1068 192 c 0
 1062 190 1041 190 1044 203 c 0
 1062 281 1058 376 1006 435 c 1
 1003 435 l 1
 1034 378 1033 218 943 170 c 1
 943 170 924 157 904 157 c 0
 889 157 895 175 895 175 c 1
 910 278 888 427 834 473 c 1
 831 473 l 1
 869 390 872 187 738 123 c 1
 738 123 722 117 716 115 c 0
 706 112 694 121 696 131 c 0
 705 187 697 418 607 530 c 1
 604 530 l 1
 636 465 648 366 636 293 c 0
 624 218 555 66 372 49 c 0
 208 34 54 155 54 338 c 0
 54 547 191 637 322 619 c 0
 441 602 506 524 506 392 c 0
 506 309 446 210 352 210 c 0
 279 210 224 263 224 347 c 0
 224 395 257 427 301 427 c 0
 344 427 377 396 377 349 c 0
 377 298 337 280 318 280 c 2
 301 281 l 1
 309 264 320 252 353 252 c 0
 394 252 437 303 437 390 c 0
 437 468 412 559 320 573 c 0
 226 587 142 487 142 336 c 0
 142 192 252 69 372 91 c 0
 566 124 596 409 551 561 c 0
 544 587 571 593 586 587 c 0
 615 574 626 564 633 558 c 0
 752 464 769 312 735 167 c 1
 740 167 l 1
 790 215 813 381 790 504 c 1
 790 504 785 531 813 522 c 0
 829 518 844 508 844 508 c 2
 967 449 948 284 927 198 c 1
 930 198 l 1
 974 249 978 393 970 464 c 1
 970 464 964 485 990 478 c 0
 1005 473 1014 465 1014 465 c 2
 1107 416 1112 316 1078 224 c 1
 1081 224 l 2
 1103 237 1118 283 1120 329 c 0
 1121 392 1202 392 1205 330 c 0
 1208 300 1230 300 1235 329 c 0
 1241 364 1257 362 1285 361 c 2
 1381 358 l 1
 1381 335 l 1
327 349 m 0
 327 369 323 401 301 401 c 0
 281 401 274 372 274 349 c 0
 274 326 282 306 300 306 c 0
 318 306 327 324 327 349 c 0
EndSplineSet
EndChar
StartChar: uni0E38.low
Encoding: 219 63256 217
OldEncoding: 252
Width: 0
Flags: HW
HStem: -372 25<-175 -148>
VStem: -148 69<-492 -372>
Fore
-79 -492 m 1
 -145 -492 l 1
 -148 -372 l 1
 -151 -372 -159 -378 -175 -378 c 0
 -259 -375 -259 -250 -175 -246 c 4
 -121 -243 -88 -264 -79 -323 c 1
 -79 -492 l 1
-175 -347 m 0
 -129 -347 -129 -275 -175 -275 c 0
 -219 -275 -219 -347 -175 -347 c 0
EndSplineSet
EndChar
StartChar: uni0E39.low
Encoding: 220 63257 218
OldEncoding: 253
Width: 0
Flags: HW
HStem: -493 29<-175 -158> -367 26<-275 -268> -273 27<-275 -268>
VStem: -240 38<-433 -323> -145 66<-432 -250>
Fore
-79 -409 m 1
 -79 -409 l 0
 -84 -455 -107 -493 -158 -493 c 0
 -210 -493 -240 -464 -240 -421 c 1
 -243 -361 l 1
 -248 -362 -254 -367 -270 -367 c 0
 -352 -366 -352 -246 -270 -246 c 0
 -219 -246 -200 -278 -202 -323 c 1
 -202 -432 l 1
 -205 -449 -191 -464 -173 -464 c 0
 -155 -464 -147 -449 -145 -432 c 1
 -145 -250 l 1
 -79 -250 l 5
 -79 -409 l 1
-240 -307 m 0
 -240 -287 -255 -273 -273 -273 c 0
 -290 -273 -306 -287 -306 -307 c 0
 -306 -324 -290 -341 -273 -341 c 0
 -255 -341 -240 -324 -240 -307 c 0
EndSplineSet
EndChar
StartChar: uni0E3A.low
Encoding: 221 63258 219
OldEncoding: 254
Width: 0
Flags: HW
Fore
-118 -318 m 0
 -172 -318 -172 -233 -118 -233 c 0
 -66 -233 -66 -318 -118 -318 c 0
EndSplineSet
EndChar
StartChar: multiply
Encoding: 222 215 221
OldEncoding: 256
Width: 590
Flags: HW
DStem: 92 456 138 502 261 286 309 333 261 286 309 238 91 117 138 69 309 238 356 286 479 68 525 115 478 502 524 456 309 333 356 286
Fore
501 115 m 1
 457 68 l 1
 295 238 l 1
 132 69 l 1
 87 117 l 1
 249 286 l 1
 88 456 l 1
 132 502 l 1
 295 333 l 1
 456 502 l 1
 500 456 l 1
 340 286 l 1
 501 115 l 1
EndSplineSet
EndChar
StartChar: divide
Encoding: 223 247 222
OldEncoding: 257
Width: 520
Flags: HW
HStem: 14 104<251 263> 224 57<31 491> 387 106<251 263>
VStem: 211 100<66 68 439 447>
Fore
311 439 m 0
 311 439 l 0
 311 409 289 387 260 387 c 0
 233 387 211 413 211 439 c 0
 211 468 232 493 260 493 c 0
 289 493 311 472 311 439 c 0
491 224 m 1
 31 224 l 1
 31 281 l 1
 491 281 l 1
 491 224 l 1
311 66 m 0
 311 34 289 14 260 14 c 0
 233 14 211 37 211 66 c 0
 211 92 232 118 260 118 c 0
 289 118 311 95 311 66 c 0
EndSplineSet
EndChar
StartChar: registered
Encoding: 224 174 223
OldEncoding: 258
Width: 700
Flags: HW
HStem: -11 42<353 365> 154 13<211 345 500 516> 315 17<308 335> 492 13<213 227 213 358> 611 42<353 365>
VStem: 43 44<323 342> 251 57<183 315 197 470> 419 57<413 424> 617 44<323 342>
Fore
661 323 m 0
 661 323 l 0
 661 138 523 -11 353 -11 c 0
 180 -11 43 138 43 323 c 0
 43 504 180 653 353 653 c 0
 523 653 661 504 661 323 c 0
617 323 m 0
 617 323 l 0
 617 476 497 611 353 611 c 0
 207 611 87 476 87 323 c 0
 87 164 207 31 353 31 c 0
 497 31 617 164 617 323 c 0
516 154 m 1
 457 154 l 0
 431 154 418 194 402 230 c 0
 364 306 377 316 308 315 c 1
 308 198 l 2
 308 175 309 169 333 169 c 2
 345 167 l 1
 345 154 l 1
 211 154 l 1
 211 167 l 1
 219 167 l 2
 243 169 251 169 251 197 c 2
 251 462 l 2
 251 488 248 492 221 492 c 2
 213 492 l 1
 213 505 l 1
 363 505 l 2
 438 505 476 481 476 422 c 0
 476 369 438 336 391 329 c 1
 391 323 l 1
 428 315 443 273 459 241 c 0
 476 206 484 169 516 167 c 1
 516 154 l 1
419 415 m 0
 419 467 391 492 342 492 c 2
 323 490 l 2
 306 490 308 467 308 452 c 2
 308 335 l 1
 327 332 l 1
 378 332 419 349 419 415 c 0
EndSplineSet
EndChar
